<mxfile host="Electron" modified="2024-09-07T18:38:10.150Z" agent="Mozilla/5.0 (Windows NT 10.0; Win64; x64) AppleWebKit/537.36 (KHTML, like Gecko) draw.io/22.1.2 Chrome/114.0.5735.289 Electron/25.9.4 Safari/537.36" etag="ZrMbzAG1hPzV4J797CAS" version="22.1.2" type="device">
  <diagram name="flow" id="hJ5vSp3BViOWloIZaFvu">
    <mxGraphModel dx="1036" dy="606" grid="1" gridSize="10" guides="1" tooltips="1" connect="1" arrows="1" fold="1" page="1" pageScale="1" pageWidth="827" pageHeight="1169" math="0" shadow="0">
      <root>
        <mxCell id="0" />
        <mxCell id="1" parent="0" />
        <mxCell id="lP6f4BaXkuB_5W5CZ1m3-17" value="" style="rounded=0;whiteSpace=wrap;html=1;sketch=1;hachureGap=4;jiggle=2;curveFitting=1;fontFamily=Architects Daughter;fontSource=https%3A%2F%2Ffonts.googleapis.com%2Fcss%3Ffamily%3DArchitects%2BDaughter;fontSize=20;strokeColor=default;fillColor=#eeeeee;dashed=1;dashPattern=8 8;" vertex="1" parent="1">
          <mxGeometry x="120" y="30" width="460" height="470" as="geometry" />
        </mxCell>
        <mxCell id="lP6f4BaXkuB_5W5CZ1m3-10" style="edgeStyle=orthogonalEdgeStyle;rounded=0;sketch=1;hachureGap=4;jiggle=2;curveFitting=1;orthogonalLoop=1;jettySize=auto;html=1;entryX=0;entryY=0.5;entryDx=0;entryDy=0;fontFamily=Architects Daughter;fontSource=https%3A%2F%2Ffonts.googleapis.com%2Fcss%3Ffamily%3DArchitects%2BDaughter;fontSize=16;" edge="1" parent="1" source="lP6f4BaXkuB_5W5CZ1m3-1" target="lP6f4BaXkuB_5W5CZ1m3-3">
          <mxGeometry relative="1" as="geometry" />
        </mxCell>
        <mxCell id="lP6f4BaXkuB_5W5CZ1m3-1" value="Article&lt;br&gt;Stats" style="rounded=0;whiteSpace=wrap;html=1;sketch=1;hachureGap=4;jiggle=2;curveFitting=1;fontFamily=Architects Daughter;fontSource=https%3A%2F%2Ffonts.googleapis.com%2Fcss%3Ffamily%3DArchitects%2BDaughter;fontSize=20;fillColor=#b1ddf0;strokeColor=#10739e;" vertex="1" parent="1">
          <mxGeometry x="140" y="220" width="130" height="100" as="geometry" />
        </mxCell>
        <mxCell id="lP6f4BaXkuB_5W5CZ1m3-2" value="Blog&lt;br&gt;Client" style="rounded=0;whiteSpace=wrap;html=1;sketch=1;hachureGap=4;jiggle=2;curveFitting=1;fontFamily=Architects Daughter;fontSource=https%3A%2F%2Ffonts.googleapis.com%2Fcss%3Ffamily%3DArchitects%2BDaughter;fontSize=20;fillColor=#b1ddf0;strokeColor=#10739e;" vertex="1" parent="1">
          <mxGeometry x="414" y="57.5" width="130" height="100" as="geometry" />
        </mxCell>
        <mxCell id="lP6f4BaXkuB_5W5CZ1m3-3" value="Linguistics" style="rounded=0;whiteSpace=wrap;html=1;sketch=1;hachureGap=4;jiggle=2;curveFitting=1;fontFamily=Architects Daughter;fontSource=https%3A%2F%2Ffonts.googleapis.com%2Fcss%3Ffamily%3DArchitects%2BDaughter;fontSize=20;fillColor=#b1ddf0;strokeColor=#10739e;" vertex="1" parent="1">
          <mxGeometry x="414" y="215" width="130" height="100" as="geometry" />
        </mxCell>
        <mxCell id="lP6f4BaXkuB_5W5CZ1m3-4" value="Analytics&lt;br&gt;Data" style="rounded=0;whiteSpace=wrap;html=1;sketch=1;hachureGap=4;jiggle=2;curveFitting=1;fontFamily=Architects Daughter;fontSource=https%3A%2F%2Ffonts.googleapis.com%2Fcss%3Ffamily%3DArchitects%2BDaughter;fontSize=20;fillColor=#b1ddf0;strokeColor=#10739e;" vertex="1" parent="1">
          <mxGeometry x="414" y="372.5" width="130" height="100" as="geometry" />
        </mxCell>
        <mxCell id="lP6f4BaXkuB_5W5CZ1m3-5" value="DB" style="shape=cylinder3;whiteSpace=wrap;html=1;boundedLbl=1;backgroundOutline=1;size=15;sketch=1;hachureGap=4;jiggle=2;curveFitting=1;fontFamily=Architects Daughter;fontSource=https%3A%2F%2Ffonts.googleapis.com%2Fcss%3Ffamily%3DArchitects%2BDaughter;fontSize=20;fillColor=#f8cecc;strokeColor=#b85450;" vertex="1" parent="1">
          <mxGeometry x="670" y="365" width="90" height="115" as="geometry" />
        </mxCell>
        <mxCell id="lP6f4BaXkuB_5W5CZ1m3-6" value="Blog&lt;br&gt;Service" style="shape=hexagon;perimeter=hexagonPerimeter2;whiteSpace=wrap;html=1;fixedSize=1;sketch=1;hachureGap=4;jiggle=2;curveFitting=1;fontFamily=Architects Daughter;fontSource=https%3A%2F%2Ffonts.googleapis.com%2Fcss%3Ffamily%3DArchitects%2BDaughter;fontSize=20;fillColor=#fad9d5;strokeColor=#ae4132;" vertex="1" parent="1">
          <mxGeometry x="660" y="55" width="130" height="110" as="geometry" />
        </mxCell>
        <mxCell id="lP6f4BaXkuB_5W5CZ1m3-7" value="" style="endArrow=classic;html=1;rounded=0;sketch=1;hachureGap=4;jiggle=2;curveFitting=1;fontFamily=Architects Daughter;fontSource=https%3A%2F%2Ffonts.googleapis.com%2Fcss%3Ffamily%3DArchitects%2BDaughter;fontSize=16;entryX=0;entryY=0.5;entryDx=0;entryDy=0;" edge="1" parent="1" target="lP6f4BaXkuB_5W5CZ1m3-2">
          <mxGeometry width="50" height="50" relative="1" as="geometry">
            <mxPoint x="270" y="240" as="sourcePoint" />
            <mxPoint x="430" y="110" as="targetPoint" />
          </mxGeometry>
        </mxCell>
        <mxCell id="lP6f4BaXkuB_5W5CZ1m3-21" value="fetch" style="edgeLabel;html=1;align=center;verticalAlign=middle;resizable=0;points=[];fontSize=20;fontFamily=Architects Daughter;" vertex="1" connectable="0" parent="lP6f4BaXkuB_5W5CZ1m3-7">
          <mxGeometry x="-0.2689" y="-5" relative="1" as="geometry">
            <mxPoint x="4" y="-15" as="offset" />
          </mxGeometry>
        </mxCell>
        <mxCell id="lP6f4BaXkuB_5W5CZ1m3-11" value="" style="endArrow=classic;html=1;rounded=0;sketch=1;hachureGap=4;jiggle=2;curveFitting=1;fontFamily=Architects Daughter;fontSource=https%3A%2F%2Ffonts.googleapis.com%2Fcss%3Ffamily%3DArchitects%2BDaughter;fontSize=16;exitX=1;exitY=0.75;exitDx=0;exitDy=0;entryX=0;entryY=0.5;entryDx=0;entryDy=0;" edge="1" parent="1" source="lP6f4BaXkuB_5W5CZ1m3-1" target="lP6f4BaXkuB_5W5CZ1m3-4">
          <mxGeometry width="50" height="50" relative="1" as="geometry">
            <mxPoint x="280" y="250" as="sourcePoint" />
            <mxPoint x="440" y="120" as="targetPoint" />
          </mxGeometry>
        </mxCell>
        <mxCell id="lP6f4BaXkuB_5W5CZ1m3-19" value="save" style="edgeLabel;html=1;align=center;verticalAlign=middle;resizable=0;points=[];fontSize=20;fontFamily=Architects Daughter;" vertex="1" connectable="0" parent="lP6f4BaXkuB_5W5CZ1m3-11">
          <mxGeometry x="-0.1457" y="2" relative="1" as="geometry">
            <mxPoint as="offset" />
          </mxGeometry>
        </mxCell>
        <mxCell id="lP6f4BaXkuB_5W5CZ1m3-12" value="" style="endArrow=none;dashed=1;html=1;dashPattern=1 3;strokeWidth=2;rounded=0;sketch=1;hachureGap=4;jiggle=2;curveFitting=1;fontFamily=Architects Daughter;fontSource=https%3A%2F%2Ffonts.googleapis.com%2Fcss%3Ffamily%3DArchitects%2BDaughter;fontSize=16;exitX=1;exitY=0.5;exitDx=0;exitDy=0;entryX=0;entryY=0.5;entryDx=0;entryDy=0;" edge="1" parent="1" source="lP6f4BaXkuB_5W5CZ1m3-2" target="lP6f4BaXkuB_5W5CZ1m3-6">
          <mxGeometry width="50" height="50" relative="1" as="geometry">
            <mxPoint x="590" y="200" as="sourcePoint" />
            <mxPoint x="640" y="150" as="targetPoint" />
          </mxGeometry>
        </mxCell>
        <mxCell id="lP6f4BaXkuB_5W5CZ1m3-13" value="" style="endArrow=none;dashed=1;html=1;dashPattern=1 3;strokeWidth=2;rounded=0;sketch=1;hachureGap=4;jiggle=2;curveFitting=1;fontFamily=Architects Daughter;fontSource=https%3A%2F%2Ffonts.googleapis.com%2Fcss%3Ffamily%3DArchitects%2BDaughter;fontSize=16;exitX=1;exitY=0.5;exitDx=0;exitDy=0;entryX=0;entryY=0.5;entryDx=0;entryDy=0;entryPerimeter=0;" edge="1" parent="1" source="lP6f4BaXkuB_5W5CZ1m3-4" target="lP6f4BaXkuB_5W5CZ1m3-5">
          <mxGeometry width="50" height="50" relative="1" as="geometry">
            <mxPoint x="570" y="430" as="sourcePoint" />
            <mxPoint x="650" y="430" as="targetPoint" />
          </mxGeometry>
        </mxCell>
        <mxCell id="lP6f4BaXkuB_5W5CZ1m3-14" value="" style="endArrow=none;dashed=1;html=1;dashPattern=1 3;strokeWidth=2;rounded=0;sketch=1;hachureGap=4;jiggle=2;curveFitting=1;fontFamily=Architects Daughter;fontSource=https%3A%2F%2Ffonts.googleapis.com%2Fcss%3Ffamily%3DArchitects%2BDaughter;fontSize=16;entryX=0;entryY=0.5;entryDx=0;entryDy=0;" edge="1" parent="1" target="lP6f4BaXkuB_5W5CZ1m3-1">
          <mxGeometry width="50" height="50" relative="1" as="geometry">
            <mxPoint x="40" y="270" as="sourcePoint" />
            <mxPoint x="120" y="280" as="targetPoint" />
          </mxGeometry>
        </mxCell>
        <mxCell id="lP6f4BaXkuB_5W5CZ1m3-15" value="http" style="text;html=1;align=center;verticalAlign=middle;resizable=0;points=[];autosize=1;strokeColor=none;fillColor=none;fontSize=20;fontFamily=Architects Daughter;" vertex="1" parent="1">
          <mxGeometry x="35" y="230" width="60" height="40" as="geometry" />
        </mxCell>
        <mxCell id="lP6f4BaXkuB_5W5CZ1m3-16" value="http" style="text;html=1;align=center;verticalAlign=middle;resizable=0;points=[];autosize=1;strokeColor=none;fillColor=none;fontSize=20;fontFamily=Architects Daughter;" vertex="1" parent="1">
          <mxGeometry x="590" y="70" width="60" height="40" as="geometry" />
        </mxCell>
        <mxCell id="lP6f4BaXkuB_5W5CZ1m3-18" value="" style="shape=image;verticalLabelPosition=bottom;labelBackgroundColor=default;verticalAlign=top;aspect=fixed;imageAspect=0;image=data:image/png,iVBORw0KGgoAAAANSUhEUgAAAXkAAAF2CAYAAACLVejoAAAAAXNSR0IArs4c6QAAAARnQU1BAACxjwv8YQUAAAAJcEhZcwAADsMAAA7DAcdvqGQAAPhYSURBVHhe7P3XliTJlSUKiptzzj04jwySFIkEqQLqFple3bNm7swP1D/0P/SvzPu81ZC1Zt3VPVN9qwAUgASSR0QG5+GcM3M3n733kaOqZu4RGR7E3cxctpmoCleVI0eOHiEq2vJf/+UfdkJCQkJCQlOiFM8JCQkJCU2IJOQTEhISmhhJyCckJCQ0MZKQT0hISGhiJCHfhNjZSXPpCcSb8sGOfgnNgSTkmwwU8C3R/jIwPJnmMLXIw4wPeH4V9srHU+wVltB4SEK+ydDSEpvlXto8/PgQkKEzmYY3RSFctO/sQLzL7CWoTVMv/vIcER/paBz2oIART1mchMZBEvLNiCpBXzDuTYODmxwKSaaBDI+O3LdarFcLcRpDtcvQUvAQf/BszurAhIZBEvJNhqxRUtDjXy0G6A0tTUYuGRP0OJgzmUYyNfUbPaviMIbp63lccID9CsktpQ/zRIg5osuVh4SGQhLyTQhvt3auHZWlKw+RUdvFwYOSaRzjAligRyUaBcYjwXjVvJClhCDPc0EcOCowPO8UBXsxcULDIAn5psNOKLHRom1SU8sbZrTDsNmacKcjCnr5pV+j/aqgSrQ6tSCcd0qwuokppL7T7IYEOy1goMKwvGHvJAl1jiTkmwzWiNEe1c2OwtvbNBou3QyKwRY/Hj1aMo1jrOYiqgJ5YJXbOQdSuPRWEO2lLJkfpd3vkTSh8ZA2KGs6eCOFUaNko66u4p2dSiHYWm5igsaEak9C28bci6Mr1agNsBqnhs+j0soHcEtkCs7hJP5oXCQh37RgtRYado2gL6KmTSc0FPJBmypBncH5ACYG2hJa+ENVp5BXvcfKzx8SHpk2syvKLvU+od6RhHyTQo2YRwp3aHqlllJob22H6QwdrV06t7V0hLZSe2htbUN4qzfr10ZinPrCrvpj1eNkmvhOqOxsh+3trbBdKYdyZSNsVtbDVmUzbG5vhPL2JvwrykTj90jD/Eym5znbSE+q+UZCEvJNCatSXy4ZKq2hs7U7DHQPw4yE/g6cO0ZCb/tQ6G7vC51t3aG91KEHwX6QGKceIKkMUCuPNaITXQwzYV3Z2YJgXwub5fWwUV4Ny5uLYbE8GxY3YNanwwLOG1vrocKVOUhvWXrPgI8I5GeOhAZDEvJNBGnvOxVp5R0Q6j2dAxLm/R1DYaBrNAz3TIT+zpHQ09Ybutv6Q1dbX+hoo1ZPjZ5CHq04cUPjgfWWVRx5gGf6wcQwCu8taOtb1Nq3NsL61mpY3VoOK+XFsAQBP7c2CUE/A/tcWIZZ2VyCdr8WtvFw0GNC+dAkNBqSkG94WPWxi10qtUIjb4d23h8GO8fDeO/JMNF3Joz3nQoj3ccg4EdDZ6lbDwFq7YzPxmuL69JCq6ZBsUUX5LJEPcfjOfEOo9/ONjT4NQn32bXnYXrlcXix9DBMrz6F0J/Gg2ApbGooh8KeSIK+0ZCEfL0CtcKK2eHkGNpVtpcIPTlQ6k51qUsQ7p1hoHMIgv1MOD5wIRzrOxeGu45Bkx8KvZ3Q2tt7NRZfamljpqaYITNllxrukYWN1Vc0Lr9eXg6rmwsS+NTsny8/DE+X74XJlQfyYy+A3LY3v7TY/A9jGHMpb4/NkITDQRLy9QrUChsJhTwbELVt+dlMWMSOhHsPNPfhrolwHIL99NCVcGrgA2jvp0NPWx/1ezQ6pCmxsVFbh4FT47fwZzOka69mm9DsIC/ZSD45gUN9FNQU+utby2Fy+Wl4vHgrPFy4EV4s3w/z61N4CCxrklb8EpnGeIiWzKYwy924i/aEw0ES8nULvpruDQU/aN981TwDAjjsMtI9Ec4OXQsXRz4Npwcvh/6uMQj9vtDd1hNa8WPDc82/YjkpuTdtBUS/hKME1L39AXAFecQcwraGcdbDKrT7xY0pCfs7M9+EB/M3wuzaC8TdRiznSWrvONniHOYmSwX5mVKvQ8IhofXX/3z+v0V7Qr0BbcPGywvtDxo5hXtPx0A4Ac390sgn4YOxL8Kl0U/Dif4Loa99IK6UcXEOwM49SMxd8OcQkByZT8KRAAW6dHeAdW/171xA/xbwGfmICkN/13DoBV9xMr+11KY4XIZJY6/VAXhIqLfpueCUC3jlSEfCISAJ+bqFC/e8cdDGhtcLAX9y4FL4eOLX4dr4r6DJXwmDnaMIa9eADONlHWQ48k2m7KxjDI4tMeEog0pAzjER4D8qBjAc8qOAp7Af6BoJnR09GsPf4Bh9nMSNKWJexoU2Nm8PkwLnJRwwkpCvY7DhoUMse4teZuoKQ13j0t6vj/8C5081wdrXORjaWtsRp7qZqsGpoeWQS5O40VQHJxwJWL37BClBTpObXhrekwWG9hDaSlyW26X3KtiL5JkrtDa3+ULVhlbpaGjQofQ2jJNfJrMkHCCSkK9TWHMxPZ4NsK21Mwx1Hw/nh66HT479JlwZ/TyM9BwPXe1cEpkvf9TErBLlOr2gdotDJuDzU8JRRE3lR6Gc8xwR40h48yHQqncqetoHpGx0QbunkOcSzDLOHMfP0oPXlDpmUbAkHDBy6ZBQh1BzCa3Q0vkS06XRT8LPTv1DuDj8cRjsHJNmxYbn8YqGn34rIgn4hGpQcJMvwAiZqi19XmfyClnGouXMwh5lBxQODg9eAB/+7MQ/atK/v3NY2r4l8Lx5trwSDg9JyNcx2OA40TXUeQyC/ZNwbfwXOH8UBrtG4wSYNx6e3bBKadDApIFFjSoJ+ISXoCDa7VjgFYWBjRRDXsZTrVAuTNB/qKFDKh7U7kuRLy2qpfW8Eg4HScjXMbiKprd9MJwbugaNCRr80MfajqClhGrzBqdGFKHGGI0OLuB5iIAHnZwOs83L5Eg4cvCJVnFINcQ7BdaQtp/HVDAOJfBhd/tAOD/0UfgU/Hl66Drcg1JAyHlx4Ea2hMNDEvJ1CFuPsKPla+cGr4UrYz8PZweuaGUDG1YeI0IOHExtEtS8qJFlk2EM5yQuV8vn8WJisyYcKWRvUQt78IFUeKkDCKIxLxxjbGj0JWj03WPhzOBVLeXlOxtdbb1SIDyOv/ORcDhIQr4OQd2HG4YNdx9DV/hX4dLwp6G3Y1ATrJn+VTWWCj+1PjYmC8/GQf1cbM+IQ6dp+9F4uoSjgdeobmMLRKTAzuLDVzxlhkfyJVd48V2N6+O/1At6bXE9vQl5syUcDpKQrzNwzXFrSxsE/Hg4NXhZhsK+rbUjxogNDK2OtvzgxpqTNS64zQsoxMk0uCwQKNoTmh6RFTJuwckMD9FbiBELcd0pLwJefH9jrPt4OI0e5+nBD4xnS+0I4i+LmXAISEK+zsBXT7raesLJ/ks2mdVDAc818Nas1GDUAGODI9SGeOBXfvIGJUGfafzRuBZWJejdnnB0kfOAKQgE/Mg7JZ7pJD9ZSAZF5RCgCfpR8OuF4U/Cqf6LWmJZKmj9CYeDJOQPFFFIZwzPFuKG4Hr4jjDQOarJ1gvDH4W+9kGT0RHqICuLYj45Mh+EF192yeBeewQlHFWAGcQPxhQZj8nuZ9rMOLeaJfJvfAD0dQyF8+Bbjs0Pdo4Efo2sEEu9hZ+GRXqtqAk/iSTk3zucvXNQucmbDD1oLA63LDjWf0770Ax1TejlkxirgCzlnnh1KPDKwISjBWMG8QwO2VuvBeROF/A2vCMoYc7h5Nfh7gnw70XxcS+EPsG97C0jz01Mb9Yq5H75dRPeBknIHwBiOwCox5sxD9jE0zxz7XEpjPWcgCZ0XW+z+mZQCQn1AxfCNtpubur5+EVna6kd/HsCvdGPw2jPSX2cxttAtvVGC7c2i78YqCYBWJuImSW8NZKQPzDYQE3GtrCIjeOQCgV6b3tfOA7t5+zQVWjxY1qelpBQT3BBXCWVBTqcl7mscjycAR8f6z8ferR2vh2h5HhufbANQW5xq8W4udzPhogS3hZJyB8AfI5TGgrsOouTje13Sjuhq70nTPSeDaf6L4eJnjPaACoxeUL9gTwJU8Wa0S+CfNsjfj4VTpKfe8+FrtbeyPhxmS8ahdQeKjnRy7R8WnRMeEdIQv6A4EzbUmG3NjYKMv1ORd1cviJ+afRn4dTAZa2usa84JSTUKzKOjqbWylViveDni+HS2MdaTCBth18Z2bGvJOiHbGwaYMeeAUprxq+Q8HZIkuQgUMWt5vAjx+Ep1Dl2eX74wzDeexpdW18Tn5BQf8iG1QtHgt4cY3dwZc1E3+lwYejDMAb+7mxD75TfGJbYiQJeBgf+o/KT55jwLpCE/HsGWd40FLBuHH+Xr/i5JXS0daEBsFt7UZOu2qdbWxckJNQpyMrGwOYGjMc57mLfiaWTO6T2tPWH8e5TWi022nsCgr8TYZH/BSU05NkB1fknvDmSNHnPUJe0ilnJ1Gb464J2ww9vc11xX+dQNtlaYP2EhLrCLt6UBw5RI8/sAPmZfH1m+Eo4NXgpdHf0yl8oNouC3axJwL8rJCF/ALAxRxrTcIz9bUUNNx07N3w9nB66gu5sD3wthk3JJiTUF4wrjY8zSB7nPlxrr/X2UdB3tnWDv6nIXNfYvO1rE4U44nGFmWJGr4Il4R0gCfkDBpmfTYQfXxjpOhZOQ4s/3ncu9HcMa5kZGdw0/8ToCfUMimUX7H6u7bUyxHaqHGgf0Yfnua/NSPcxCB60g/htWIEPBaWmSPI8PN+Et0ES8geCGmYFD3Ofj+P957V1Ad9s9Y+AWMwk4BPqE0XOLHI1ZbS9LcsYhViIxHhtLe1hGErNhaGPodScDx1UaDS8AxNncnMBDwP/2BFIeEskIX8AsNegZNGBK2p6O/rDSQh5avL9nbY/DUV8oXkkJNQhipLXuZVC2TbHs1CbgHWBrQWTYPD+ziFo8pfDCb0gNaDdVgUmgtEOmHIgLduDL+NJeCskIf/eUMOgZOLI+PzaExmd+3uM9BzTChtrLompE+ofxqt2/ClIsZfEDuJzDtWc7L8QTgycC72dA4rgM1X+y/F610h4NZKQ3wfIct4bFTtm/cno6SbztzOdjM/dOvjpvrHe0+Hq+C+1rKyj1I0UTMeITBvtCQl1CeNxOxYAR3UItXcGOOjgR8C7w/GBC+HKxBdhvPdMaA3Q5tFAdqC1i/0Ri8ZzSXh7JCG/X8QuZTUTmjA3OIsSftYjAd3TVnVTJ/rOhnODH2qMkt9xtSiJpROaBdWtw0EffuibHxQ5N/Sh2kFPR3+cjyLYSgqtqdisEt4YScjvAxkD6gCWLaoqO9TTbWc94/ES5Dbj4IFAA38ukRzvOamhmtHu46GzvSfPAmfLX5knJDQVbLR+B0pNi7Y7GO0+qc3LRntPhU5o9xacK09qBd42Et4KSci/JnYJYFhzFwW58aQJbdmMR6Gh23BNS+jrGAxnB6+F0/2XQld7r76NyQSWN5NYukLGCQnNgaynymEc29fm9MBlaPRXsz3nCY9FpGbwbpCE/H5Q5EAJY3qY9iHQSxYcJdkrOreEVmgrPWGk+0Q4N3xNH1PwL+ZYDmYSEpoahSHJ9lJ7OM5hy6HrYbQHvVpo860QR2w2lTR0+U6RhPxrQmwXmU9HaN1aFwwXJ2ArMpLpEtgtgbtLUvevhLbWNjDyCS2XPNZ7Xp9Ikxav1TbeRbW8ExKaEsbkpszgwLmovvahcKznjHZe5b5NFPzeW/b95hPeHknI7wMvZ7sYYvxpLjGpkberrVv7dvC7rUNdo9mLTwae3Q4UrAkJzQcX4y36YtRg95g+knNy4CJ6t915qOaxEt4FkpDfB6ilkwd1FjNmDjAkNfsoo+ktW4ve9OuH5n4G2sqpwcuhu70XvooAY3FqmTkpMQnNiHxOiza2kBbtunpq8Aq0+SvayKytpQ1avsdLeBdIQn4fKMrewnSpBXD4JloJDtOAW0N/9yi0lEtaSTAILb4tjsULGu4xWFp/NCQkNBdqxbarNvx2AjctY/s4CUWIbQTNBtjelSbhzZCE/H4gCUyNnRYT8saI9IssyRPtMBToE/1nw4XRT/VRkDYwtDO37ddRSBN7BHK4NSGhSWBcjyN4W3YddiSA2C64pPLi8KeajOW+TllzSHhrJCG/L5gAJgNmQzZkVgrsaLUDlfi20Ns2EE73XQ4Xhj+GhjIGv+L+HkxiK+uzhAxQoMdISGgeqKmYNbK49V05CcsPf19CO+E3YfXh75ZCjzfhrZCE/JvAZTAHz8m12SB6xsKhp60vHOs9G070X4qfPrPvtlpSi+eDM7lIj+l1SoI+odkAns6biHE43OwYd7d1h7G+k5qA5Qfte9r7EZTE07tAouK+QI60U2aBgK8S3HBQMxnumQjnRz8Kx/rOqPtpoYwVbUhnP0/pqM4v4e2g3tJOJWzvbIetSjmazWjKYbuypTDG8cG3hPcD9YB5BmvzLA6HJ5cak+vbSja8eX704zDUPQE/+FqXOeEt0Prrfz7/36I94XXRAqak+kFmtVOEfSCB37U8M3gtXD/2a21Cxi/j2Dg+oFMU8MW0tERjoj9hL/iqDEkJQnMb7qymHD9KQWG+srkQ5tenwszqszC9+jTMrr4Is2sv5Mewze0NxefDmd/XtVyyC8QzQb/crRg45FviFuMmFFElrAuMz5Os0d3Wyo/Yt4SF9emwuD6DB/CmhjRbpBQhRPG8HmKiCOMNotr/qCMJ+X3DGclYjVxn7AYWAyPzzdaJ3tPh0shn4fLIz6CRcCw+bkKGiBbXDwn7gWnaMPiTfKI/YELWCMraoHDf3imH9a0VCfKnS3fDvbnvwu2Zv4a7s1+H+/M3woOFG+HJ4u0ws/Y0LG8uSpPnnAmX8PG1ez6UlaNfhMjqLPa2cMjvIVrySAkFGD3tVyQR3VavFsYPfbMeVjYWUC9zYRV1uLW9GUMZLa8QCn4nvOa2YGIsoHCRI44k5PcJYyIypjGYGI0+4DEKiv6u4XB57Gcwn2uopqO1S+EJbwtS3Bp4UXOO1I9nw+bWWphbm4Qg/yHcnP4LBPs34cH8zfBs+U6YWnkMwf5C4QtrU9AYzczBj0Jlc2sjtLd1am8VbkfBS8YqjojX4j3AmF3/AqpdCRFOlgJ5ZOVBlpIEPB8IFfzWK6uql9XykiIomureEtiP9UO/Ik8os4SIJOT3CQp1iZvIR2SoEts7z62tYbz/bPjk2N+FC8Mfht72ATFtwruAETxrvrDYEFjRhFDe3giz6y8k2L+b/H34YfI/wuPFO9DoJ8Pa1mLY2F5HnM2wtVXGeT2slRch5Ccl/GdXnyPOMrTJDq2M4jd3VX/4mzg38SGDQ36mrRZ7+SXUkkU05DESlO4SHq7tbV1hC72xSdTL0uY86I+fHqwxfjxmwj36e1hCjiTk9wnxooQL4drljvbd4GTROQj3K2M/D+O9p+SnBAnvEE5Pnt2wBnYgwFfDi+VH4fbsV+F7CPiHCzc1truxvRa2d7YQgy/YoL40PswOPvTFyrYmX8sQKJuIt761GjZgtuDX3dEnw+G2KIMAFy521Bl/coKH5GEJ1QD1SXuRx2hURanoYPviJCwnxjkuvwZNfhMP5G30lPXE9aMLfbUxzqXQl3bWb4IjCfl9wpnShw6cofh69tmh6xDwX2gL1d6OAWM6T5DwDkBi5jUg2uNEuUEhPgcNnuPuN6b+GB7M/xCWNmYRoyIhIOM/uZFU2UULNHYOt21urYeVTWr8a6pDmo7WTn2Xl9diEj/amb26oq+HJbwUkUSsCwEVmNVFbE/eA67sbKN3taq63EQPzB6mhLc/5mOT5cpCMRKKMEomvBaceaiN2Lt6dOBJWWqDMBgOZ4evhwsjH4f+zmHwK2JXjRUmvDNwrAxkdcqyNpbLi+HZ0gMI+a/Cw/mbYW1zxRR2wBq/xZObQoVWzwChEhFw82GxvDmLvO6Gu+gRPJ3/MayXlxVVcaJAz1DjzPNM2A1QEPSzHwjllRDPGSnhJpn5gXu2JypP3Lm1jaufIoHZ/pRCvMDc8FM+CbVIQn6fyJaCUdDDSo2jr3MkHO+/EE72X9Le2NT8yLCJ5d4xSNBdRG2RYJ5efQbt/UZ4tnw/LEFIV8IW6kZiORcesCkL+EtAuMCOZz2YEcJhAgr6h3M3NOSzvDkvLT9D9RMixx5eCTUQjXJCZTbSvop+O1ppM9x9PJzquxiO954PA1CkqLPnEWkvuqH512aTkIT8m0KaA36tYER+kPjC8Ce2Pw1fx46aJhmwoJ8kvDVAVD1kYUBWpyyF8gsI94cLNySQLZDxKohue/abH+oDpiLjW0xYLpLvjF/ZlntzazNMrTzR8ktO5HK8P8+LNe/HhP3Aq8/sZsk0cnPEE0UTl7S2htHe4+EiNPqx3lPa54aZMLZSxGS0+B70nlWCIQn5fUD8R0EhFzdWatPr18f6zsW94sfAauQwj1HgwYR3AFBTBCV9YfDnxOlaeTnMrjwLMxDKa1srBaIjgurLPCj3uRKqJCHBiVc4CJ4YFdKBa+SZAUPXK+thfmMWwv5ZWFpn78AeAFE2xeswLzNyZ9dOqIYpRaRPVh8ZrXKixRD9ZEMk7vvE9nW8/7zaW2sLv8fglWBp/K3ZhN1IQv5NIP6zF5/Ge06FU2C+ib6ToRtuZ06CjJfwDgHSSkuLJOaXuPi26tLmnCbmVsuLYbvCyTn8SHsKbUW2BBTyNh7PMDv7I8DioTlogpWGXf+KHhpcWrm4MacHSgbLEmAdF03C3nD6ZIQDvH7iA0Awv+KDs6utJ4z1nQon+y+i13xaH+Gxrf0sjR89TWp31UhC/g3g8zuDXSPoRn6kTZXIiDamG0GrnInh3h1IS62XUXMmuLSO66jXtlcg4CuKUsKptBMn5mB0ZMNHxfEhYaPrsKC+7BcRLcodcXnegjbPrQ/Wyz6Ri/hKZ/EM5jK4X0IOo4koFMmkoZVIKvfPvLID64D0tg9/87sMF0c+CQPQ7C2GZaCz2l6eZ0KOJOT3CbIS9zeRdtF7KpxFN5Ln6q1RGSvhfUCNPtop7ss7m2EdAr4sDd7DYwxv8xLw1e1fdvnRxvB4liTnmcEI1cZmm3iAlM1f8Dsg3F70S6gGaWPGqGRHf1DzlPlEr1qwfbGdcdhmrPeketFc9JALehhP69WUICQhvx9QE9yphPYWfuTgRDjRZ93HXu1/HfeniTA9kHgJ1ya8AYyWTlGeWR8VaPD8kLrp6Kgjaexq9ginnTFd/ONHTVx1iTgIkgYJq6Vg3PhiDXoDLTtctoczvWON5rA6VposSBETdiHSxelEgtJL3hbm1DRn3hOTq9SKdtYvAX+i77zaX3up08Il7D1rq9+EHEdOyOfMYEdHteslqEAw4Me94U8PXg1nYfq4rAsMWIWMx/IOff0jp0wGST4ad0fzlni7LIy4FNY5nQFlGulN/2IYULymCYEYgQFVN1Twd8Br1/XkMJN7V0WIqL2A8RB/1WE8++qdVyEPNxuP1X65T7Wr1nnwAH34j2TaTa1qH6es3y7bGdfLnx28Fs6g7bE3LZqBRxU3K+ahFbAucSQ1eW9iNvGWI/fLmYThMvCidse1uwPdY+Hc8HV9mFtj8QhXV9FNfmoQ5OWlTS4Kd9qyMz0jopNU5PpxbgHA/WDK27Y/O99StIkxi2sWg1mRUvm+HNLAXxrHqcumbaIgpzdsUs3Nt6jV+a14vnnKPI5vfpZf2VMRu5tLljLPojqJg9fM/CyCcWHRRpCm29p5kW/fbsBw3mELtKW/Z1Kd0kxus4OVE/WAOvopeh80iuQyuM/ukBwtGpvnh7+5fQhX3WhJJYHyabPAKjpXo95ocFA4kkLeRYO/jk6YD1BDEWcMNqFSqS0Mdx0LpweuhBP958NA54j22CD4YGBci0/j04ONwFhsHDhJMBrszo1GKkELNCYZUgI+KCcF+vr2qla3cFfH+bWpsLQxB8HESdAyorhmmtPAcsU5v9SesCGVn4hUxEui7iOHdwcV0KyE0S96wGE7l8LgnLELDO1l0JRv63KL5Bcrj8Kz5XthcvlRWNiY1p46nFzOecz5K7dLGYHJLkE3rPSsyJh/fWKPG1N5Ytlg2N7Y7jhkc2rgchjqmpCGT6XC+BNpXlK+ozqMc+T2rtmLB+TH8dfYQkzWsQGCsdyOYye0CL5ifXX0C3QXr2hfEz4VLA5jWM45L7kl86hzULDihKJQkKtRyFgJKDD4FaVNrjgpz+vDGxREk0sPtIvjnJYaziBsQbs9UiAxnT7GEfMxOhF0yOONwXvknvFz65P20hKuz7dfi435ba7AbLpR5yM9x8LxvnNhrPe0trD4aXgZHVGBEMzGo/txW11q64ub8/qwyYvlB+EphLsEPOjL7XZXNme1eVq5siGNnmXkenFb10+w0jJVJWZOwRj9ED+nfBarvqEb9rvGGWVguf37DFuV7bC6tSSeY09S4QppiNIdGNIGZRHGHhAb0pIMLaWcWTiTP9g5Gq6OfRGuTfwiDHePq8GT6diUBJyK+10b8jzqF/5g492yEPZwM1JYw+JvGz/u7U3N8vbsX7XT4/eTfwh3Zr8Kj+ZvhccLt8JDmEeLP+pt0dXNJdGNe+q3tbbJnoMXfDva1KeQJ9HYgyH97OqiJe/E/hHGJ9o3fWstTK0+Dnem/xJuvOD2yL/TVsmPF2+Hp4t3w7OlO7DjvHhPDwEKe2qv3e29+XCFco7X0EUKAl6e/JudL4TJWu9QWyKkcsimusWfX5AiXy1vLoRp8BppmD3GFLURCngwSEJ+D5hQMzYhe9HGCZ/TA5fC1XFo8UNXQycYzBpTERkrRkPsilR38KZEZHeOg9l5hCDatg84cH+YH2f+Gu7A3J//AQKIgue5tvTlkML8xhSE7lRYXJ+D9rkkIcyvNLGbzdUQejDGnN8W9SnkDUZTu3p+O7Q4j2i0HA/ChfAID8YfZ/4SbkPI35/7TpujzYKGSxvz2qaBQ2CLoO3C+oz25eGDlvvmMz8+PElX7sEuRMGYqx54sIqf3eWCMLup+gZu0xUQOmilIlVCL4aCnkODS6AN33pmb8geB4qlFAlHVsib4DaALaJTfJ81CDST2B7YsE8MnA/XoMWfG7oehrqoxVujypuUspDxozKQNbrrFC4ACLf5bXOsk5N/1Mx/nPkqfPfid+FHCCPX1LkPu2igspqh8OK69RUIqLk1e1uUGmdPO7ft7X5tQflTqE8h7/okEhcvDjv9jccg4HeowS9LoH/97F+1PTKHvrjNMffiUVrLCIAF9KXWz2EwfsGK+6xzWIx119XWB/ri4ameJ028Du1VtGCGMJlfHlafcFoC4i2e7Z6tjtlGK5r/MZrMoXgcIkRYodwO76UX+eMo4AgKeWebgmgTv7ib4fLQn0MMPWhEF0Y+Ctcnfh2O9Z0NHfHD3KYrWSo/Zrn6EyIyY73D7tzvFSY2BH6wgcMG1N5/nPkSWudNTbKa1oQGRUUR+iHpZI3HhmTY+KhtUgj7y0qcuOaQF5egvouGVq+afPXVc57Ih/IC7ntNw1s/TP+HaMsvIHEYRvvjIAppyvF27aRJ4Y0zU1dQPq66Ybn5FSueubUD43HlF3tMtqTXrpOfnfP9bojcVq/Q3Uay5dSzM+nTzocbzuzlsKe5BfrYOxKvLttREvTFQdIjA5e/DjGMPE2rL4Z3QvPUi0+9F8JE75nQ0zFAkWZxYIxVlIN+PHMsVg8AC2wc2O3LcOXM6uYyhOc9jb1/++LfNJSwuDmLcK40QmlVPpY0EowTfzT6IRoaHwXxysZ8uDf3Tbg1/ecwtfpUH+So2rq3qeDM4wxihrQiVejLFTQLG7PhNmjy/dQfwvTaU71VK0T6Z5DdPHVkdjhzonF29UW4hQfEl8/+u/Lh0Bl7AqStXd0yMnsBHP/Ix0DqF9mNs01RVNk9+5EPtm60R+4Ce6L/QhjtOQEFoismqyrxT4JafnE+rplw5IR8Vo+sVJys6eRQY4SxQYed0McPF4x+HE4PXQ7d7f0m4JWS8XiO+jys5qKDJgr6mvwbAVy9wWWRt2b+FP7y9L+Hm9N/CpPL96XVV23SBZAWRg8YFJUakr9/4MKf2hWFz9Ta4/B4+ccws/Y8F2pNB5Tcig34EtIc3CZhBbR9DnpyqGZm5bm0ehPLjBCNs00Uxk5L0VdMyiGxMh6gC+HF0oPww4s/hm+e/1t4snAbfhT028rCs4upo2k82J3bj9yl8oA27EGyXZ4a+iCcH/0k9HYOiMa2fLcarr3vpcVndG1CHDkh7xVpTGLiiV1jWeRp4RTm1OJHoB2cH/koTPSf0weeMwGvo2N3Y3Z3rW89gw82fud0FkL4HrT2b57/e/hh+o8Q8A+1GyPLrOEDFErPNwINLRf0dPMPv6qC010JyxBIjxZvayWJTRxWRWoiGI2sfG6IFnuAQot/vnRfw16kA2lTEF0xBVygtackjOdUCzqXlIJDVqt4aNzDw/jP4Yep/9CnDxfXZ+OD1HPwXCOqGbg+kd0j7p0EVRHo6QaAXwfaJbf7vjDyIXrdJwN3qcx62zVoVkH+Khw5IU/oqR3thHiBlW9/+VCgs/t3qv9yON57LvR3DAVuTObSTceM4dDU+CKG+cKHZxd85lfv8DH0+fVpCIu/hC+f/g8I+u/D4uqMxtNVDpXdy0xBBkHD9wtCK12FojKcD06eCdJnR2PIk0sPNcygdc0xrOkg8pAiJoxt+M6wU9kJy+jVTK8+1fI/avCMaS9IxaSeDkYvMGUhALfW4B7LjM+/HgQ7YRNaPVc5fTP5u/CX5/8jPEDdcZyab8pyoWb+JjdMzKr+wXuN9yyJTZPfvkiGcM5BsH3y61GnBj4IYz2nQ0dbV0ybcDSFvA5g+YzZY0MrkKMT2gA/58ddJge6RjWhpXDxjTEPNS2dLUezOS/CZNnXOShGKOCnV56GW9NfQhv8fbg/963eYOWQgMqj8XWWKJbdbfCy18mttBJJJAKdkT6ywqu8tR4W1qbD8vpc2IbwsTFQmt1d68YHRaoJa6ODi1ho3uXVsAQabGytWZgM00SaRjCFedtDUg+LLG4e03jXtl2eWn0S7sx+rfcXOIeysD6lLRK8Lixd8Sr1jHjPfuuFey+WhqXn6qLBzpFwfvDDcHLAthtJMBw5IS/mAGc4q+QaeOYZuAa3v2M4nBn6IJweuqL9MsRKpjqYyRqNudUcNTkEIB4fCGY8Xv0gFjNiR1o1Nfg7M9+Er579a7g3863WZtv2uoAXgSQSmXCg1NZbNdHw5P40Etw8G32IHeS3UV6G4ev5W3BDj8361E0k6FEkK5aXLYd6TFsb2qKASyW9+OQfE+lGK3P5ME5EDM532TRYHPzQ02SUeTxIb079OXwHQa+hm41ZDRPpISEeZtrd91afUMmyssvEe5cVR1EIXrZx4OVwZvCD0Nc5rHcIFA4iN+uk6uvgyAl54w+whde5mN7AdcgU3twbgx/m5rK5IWrxrXGveEQ1hnP2ctAXDcw98oBDAAsmMayj22pOMgRXYlDb+2HmP8L3078LTxfu6AUcCmHFUllwiAlYxqycMVjG/QSLrHYlK+iDMxsaX4ziMkBbXWPxctS6GxSkEc/krYy/KIq8PuLEIOhRbICiCINhfPKa6e3MA2H52dHztGDSmGKeD2e+lHZv9lsI+t/rBTbOA5D2BqZmyloU+CWDu3fHPjiQBvZzt8NKYof2UkcY7B5Fuz1re0t1jIgefu+1ZXNbnltz4sgJeVW0atcakTFOrGa0klYwykQfP8zNSRzuWc3XxgsNAlELKYQqtzuKEQ4FBWbOrVV2CgO+VPNw4SaEwb+re8+9QBhHTQplyEueF0xFYxw3MY5Naim0+kIeDnbjWnmOoWrPlaonQ9HeBEBxshKJFk4De7mOcz5tpEP0y6nlPjQGat+5iyFwRY88VxNhhC9d5XsDt6e/glb/p/Bo/iYEPR7e0ujz6+XX9fR5Pjl2+xw8WEY3ewH+4Ce+dKfFEkMfaslztoFgIRmtKpH71UPx3iOOniaPmnXlqrZuueFTb/tAODFwKZyFkB+AVsAGQyFWEPMNBckXlZcWLwcMNElO/PFFnG+f/3t4vvhAux9uxyWSEtj4Z4poAaIE/RlOd8GeBSC9GhafAgjhsYQeUXd7nzZ6a0VXWrS1SDCEnxsfGV0isolVlJlv/fa29UOB6FJE9nBYLxTNpJenlS/PshMKkY0wm1+ErmwhpuArebhlwlcv/qdeauOnDNlLy/gAxoYy9uhZZU8Dv0b9g/Tl5wHPDn+kdtzd0YeHqr2dbqWIR5xoozEqkCIW1mw4ekJe9cjGYxVqbG1HCqBjvWf1weCxnpMSRo0HZ10AxZJNxXNW5qmidfCPF3/UROu92e/CyvoChAIDs9Sx8UfPKvg1jI4Wy+PBn1LJM1EIwuDmhlJD3eNohCPSZJtXwOc0qxYd6Mu0tIbejsEw3HNc/GZvYziMkvZgLMC6S4ZYJzopd4MFW5iDAo9vAHMlz+1ZaPTTf1Kdr6m3xnX0iKvofg+eNl6MThm681LUM9jL0ac5oc2zHXNpJelMqW6lqy6Hl9gsmaupcAQ1eQAVrqqWpsIGw4bYGoa6joULIx9rTI8bkJE4OUs0BpNniA3TfoQdycac8Hu8eCd88+J3mpjjplfaLwUix+Uum71+TGBJd4FBrmXmUaJNpKV2CB964dDT0RtO9HN7gGMS8gYFmrUJQJoZX9mkqRWPZxi4OTnaj4fcMY4Zd43aZyMZHaFGrUgN+kX+tKSRTjEwE9DyJ3De4dpwXx+OAxiYwZz/WFybCTen/ihBzxU469yWAoHGHeR0T2vplYXCYv7m0RBgmdh+Oad2afjTMNJ1HK3beuQsiI4opM5kTskD0rmBCrkPHE0hr+rNWZjaFZ/+E72nwvnhD6UFcEmWxWu0ijfmdZjQkQX/Fmhxq3oR587sN3rhiXvC86UZrdaQNM5zMBEQG/nLwGTFs0NZ0IcW7n3eGgY6R/XJRL6G7nMdTYuqotFhHnxJhzuaHsfDjmPGfV3DobXULsHKODrpaDai2pXD5JOFunyKMktQPcLBt0K5jHIWGv0D9Npuz3wdplaehm0+VhhfkfO6Nne0KP84lBOv0QjgWDzfc2F7Hke7Zvu2nTpZCLaEaI2QkI/2ZsMRFPJk1si0YmIOI3SGke4JzcifRONjI/QPExDSbBrkKW93GcsXXWzotHHN+/Tqs/DD9Jfar5wf+ShDoyMROHRC4aDleYV09POs9qKBGoZ747yrsUAzbGvpCAMdo+FYz7lwuv8KaH0SjZAfYW5GoPQQqkaZSJiohdNFzbGrvSeMdR8Pp7lEd+AyaDMEGuWbirnAz+ZFPC29gRZ+3kl5mm9MpaOfdcTBUhIt+uA5dw/9fvI/wr35G2F5a0kTsZYB4+0t6CzEjjo1ADhU1dcxiIeprbThF93aod0rrGhEbHvYiaRNiCOqyQPkV1QwDTcdOzfyYTg7fC10tw+IQVjr1ris5m38uP4hxtWv2GC5z8mGVlvwTcgfp/8cXizf10ZhLlDI4bJnGp2ltnAgZpY1djcxQi5qjKYejz0ifqLt6vgvw4fH/kZzHdTiG4Web45CDURtW1b9uN9KX7gw9FH49Njfh3N64W4EGj34DtFEfyZFuijnqwFPq6M8TOTkdbLI8vDLwsZ6qWjf9amVR+HezFfh9tSXgd8B0D43ulCW2MAHfm1+DQNQCO2Y7fkM6Mv2zXZOdnVlxUtEo/cHmlTKH00hnzEztyqlFn9MHwY+MXBRHyLYhYaq+3izavAmJDi5t1Je1Na2d2e/CvzS0PLGnBq9NHhEN6HsgI95VsHJlsWNbrdoEhF5MrwVDcwmwE5qnuPDib8JF0c+VUNrZgFfXTKKVoJHE/kcGeaZS/0mek+HD8Z+Fq5O/EIfhh/tOq79kiwXpFEyi28aJwwctNESQwoG4AM2i0NYLB7Yv9uCQF8VL9wINyf/EJ4v3bMtjtm7jYk8N6tnXtN98lOjgHM/bNccthlG74ntnYWQsIdNpkmFu+NoCnnULF984jI+rvY43nfexkfbh0CQfJhGzYg8ruZB0ygA0+5Yb6QCbta2tGsvwu05fs3pu8AvNrk2w4ZcvfAuAl7e08mgtpCnEyQAPBf84GwptWrpGlc2cA/+n534+3B26Ip29HxXHwypZ5gOD5PRmCCdREB50MYlu4NdY+HK+C/CZ8f/QZ+WHO89Cb7kZCwiRRLTkj9g7cEhWuvMQwxUrniMwK3azyJkd0SHJtm5OdrD+ZvhPnp23MWSbyFb7gZ/UCg5fen2wLpHTiUOu3L4dRwP1BPgR362k0t52f4zGoq41l6aEUdPyINTWbEUfhw24HjdeXTnhrvGQ1sL96excDJItABe+ZlHXcNYl/fcoiV0M2vPtIqGn5njhxX4xqkNSRGvKpOVW/lJYhBOC5wlCew6PFIutYKGfGP49MAVCPi/0RANtahBX0nS9Ih00smVBKeZ1YyDLmqaY90nwqWRT8L18V9Ds/95ODlwIXS194GeEETUsBU3ghaX3lUn1QAMV/XElT2C1RHFfj4ks6MvTPHBf2/uW/EG33L2rdCYhLHsmN8903mu9Q27Y7vXFrTrNrXv80NXNeHNdl8siUoJmtokdvPh6Al5MS30dQic3vbecHbwCrrKH4VePO01dIEazxsIYYyem/qGMS+PVgZ+RYhvst6c/qPG5DXRFouXaelkcLPlfkAmE4Aqrb6g0lFrlABBD4iTh/3oDZ0ZuBo+Pv534YuT/0mfS+SXtbiEDRnEVM0M0CY++Ax0m40n1gvnTbNwePJlHT4YOaz1GXo9nx7/e00Y8r0CLfxDHEtrkNhV8ugThb7qvIUTqSasre5iHJ1MkJnYbtGczKPFW+Hu3Nf6cAk/81js1VksHJW9++fh9Q3et927JmHBl+fBi2zvPVo3X1RyaPbszzYFjpyQp7bCPdE50XVi4HI4Dq1pCF1mLekr1LJVPY5qQMbujQC7Uz6m+JHoxfB88R665TfCs8UHYb28ouK44M7GxlVuK/FrlzI2IF7HVmi06gUfG3//Vbg88mkYhZvj8hyiUe7K3K5jpvmRlzKWGX8N41DYOrHh5DLK3o7+cKLvbLg69rkekhfHPtNGWyaUkaTK4ChLzNf9Ck1avriIxYjxLKraAHsJ/JjLs+WH2pyOS2u3Cx9zYX7KXnYAdr+X+ke8cQLWttbOMMih2f4L2j6cn6Hk0lKLZdSpStNEOIKavDUortW+OPqpJgY52ZoxL+o5E3U4NV618965SdWWtg6+M/NXCPh7EPgLEMbxA9EZrNQ01NJlR+N3P0N009/DcCZIG+7i2cYXfDoHobVfDdch4D8Y/bnoa6+Tk6AQKBQqMQ3xU0p9Vc+h0RAJ6Aq9jfmCdihO9AKMGtkQAcPwoORXjrgv+kcTfwuN/n8Jp6B5ckyZQw6eljVFY3Xi+RGwkdZ8oQkuGRz0PPZIvI7/mBhu7l90Z+br8GD+e03KcrWNApgBobSWplFgt26U8mK0oWfEveYvjXymN9vbW9Duq8rYnGhwIc+aAetlHEx4reVQ44pxOBGjhtR/PlwY+lDL+zRWbJGYXQQtziS78zwIVF11l8PuSz+N23oEurfD+ja/FvQg3Jr9KkytPNYSSo/DUhnyTF1wG6IQyWw42yWVQh1bRUevCAKek9eXRj4K18Z/GS5Ckx/unihsWwDgZHnFZDxXXW83TIC9Ok69o7rMOLJM0VUVynLKmxOFpdDJdfRQPkjLT479Rude8CyHxfTcswNOSCS+Zq6sHNQV3DRex7YlcaxD/nAtD7OLtmh/+8mVR9rb5ukyFAIJeucpXsdG67U8H+fGAe9Wd66isu0PgTfPj3yIHtP50M1hRLZ9BKqkkSyiCjyMdGxhWS5W/kh/g5/rFw2vyateYuWQ4KogEd5sqijBLNwbfqz3JLpsF/E0P6PxOWP83ZWWZQvkvgeD17+exXStl0d+M3Rm5Yka7TN0wZfL8xaicchiqYpwf1KCuVh+DlHWWwHDIAQ4xDXYORbODl2HgP+VhBF37uTLZTXJC2AeL7uHZgfKreI7DdwQRnMeKcw7StA6u0+iV/R5uDr+i3Bq4BIE/aBCtSW2kNeUkTvPw+vKnx9+FYcLeh45OU/B/mz5vrYnntbcjV3D8gXyhtSAMApwiKqnvVcrbbivDc9drT0oJGhmpANsbF4mtqkCFYAYKi+nYjG8/tDQQt6WNhYIHOlPo1M8E9RoyPDcb/ri8EfhJBoNBT67yMyJvxyeymAsckhQQWAKN0DWsjuMdx0PKi8aJ7/veXfm2/Bk4cewsb0iZmUaa6eF0sDDacQYCvZDdj3kWxBK/uOEID+5xi2ZuUzy0tjPocEfC9w+NxMIFDTUKuGkj+7bLAm74LVq9UDFo72tKwz1cD+lT8MnHLrRexwctrG4Ht8IDENyy69YWzFONPqpEgiLVUIdccXVzMrT8OPMV2Fy+ZG+FOaxWJ8Ws1GAO49l3IFiIzpEL9KV7Z47VF4Y/lirvsjeHODK6Y+fCmwlZlqGlTI6REowz2itZzTBmHysFFI8Q87cfmRVc1fJsd5T4ezwdXWHuU7ZYFXnqI96szt/OfwujYnJkOxUb6Jxcsnkw4UbYXL1kfalKRaoqmzMfo/CmpddO7sLcbq5OD7M7VzPDF0NV8a/sBdNujhE0+ntImaSZ657tCwT9gRpRSoZzUgqNk5+pJoT2HyR7PLYz6TR97T3Z4LaKZzPedjZAmCTw9tBRKxH97A62wlr5aUwtfxYygE/3r6+taJwh91hY0D3GZnRBbHfOxWRsd4TkANXwnjfKQ3b+PsxTieZrLCgKumNf+blYMQ6p0rDC3nROB4l6DRjDqKjUsTuYGhq8ZxdH+46Ho73XdCkC/e14NIqpoypAabDCbVr1WbH6jgHDbuyji+9EbtfdrsXN6bDi5WH4fnqQ9jntF8JwQdAlAtZqfKs6BONGgbyAw2ycCUEPS2hNKFTgx+ED8a+kPAZ7T4OwR9pFl/CsrzokZ3cN2FPOHVyMU9BTnsnNHoKeg7d8N2D8b4z4meTO4gh2uNMvjUnXJH/ZZSbzgTzNH/whtoHXMiMq6TWt5bDk8Xb4d7cN+Iljcbn0q5BEImQAWV1p2hk+9pQDpzouyi5wMUYfHcmF4lFevnPfGmUna5RvE59osGFfJHAYOmsXqxxyAZPTiLp+48Dl8OZgQ80zOAfEijWv2AtJIO98lwV44Bh1y7eQfaKO4zbCK6J50qax9DEKOC34mqajEXxV3xfR+0JgcxabNAUAPhJWOCazIMfOB/tPRkuj36m5ZLc+Ilj8DZJSoHBs+Vh9aErIivfepeG/gm7kRPGyGQ/7lzZAUE/0XdWS1MvDn2kLRHYc8q2I1B8f8AS9CSsPiysGA7AqqSKYtfa2t4Kk1AS2BOcX5+0niBiMazR4A+6/M7NxrKw/XN56unBK1BY7MPf/OYwCWKUiCWOtKGxnMxu9GoMNLiQJ8kj4QWJkeg0Pw5mcNtRros/M3QlnBy4KIFvQLVlkk7sXjA8ZVV9CCiWqwi7N5U03ialKR9m/OrP44Xb+k4rX1PXvUeGzPPzRIasfDgxxMR6tGf5WyDfZh3psk+rXRz2fffz3SSLzcly4MME50hjyznhZSB1cgrltKQfhTSHabRHOh6w54evh95OvsDH3qinqj0TzKdYL7krE1oxOh8mmtOBgsDVNtyxkm/C2pJKRMsYolFQKHu8dZ6MXlRYevSeDHcD5d7+tpQaIQim3PCkxEtLLpq8NLQu0NBCvkheCb1MmMRhGBwomPhK8ylUJveu4GoQPsUZbtqn1aQJN/tlOcfgPNYhw9Q7gx5AdPKOt8Mqutkzay/Cs+UHtkf81qYarRUFsaSuKUHWWFn8vKF7eE4FXUP+NFza1x8ujnwSPpn4jb6Dq82eREMgi+eID1DVSUuoIJ6NGxfjJBThlFGVxZ/Bzlxe2csdU4euQ6P/LBzvPaO3tvViE3hA8fAnZ1gefjAov4KgzmqC9UwX/uzl8du/SxsL4enS/fCc+9psrymaKUSFDOsZVbda4LlYBv74gX5OvHLvKq6247423DfIhjZjDwlpPZviQ0650F3Iul7R8Jq8oUh8Z3A7ahc6rokf/kjjmh1tXL/txbYa8rhmikez1QuKd2f3boYvPs2vTYani3cg4J+HtS2uqKlEAY0UTKKoNWWyYMAaeYyteEYTOukOoVt7c1+UkD87dFXfwnX5blHhyLLOa4H+5s3I2RUSXgqnm1MpfyzSR3sDQTBxTuTSyKfS7Ln9gYVbOqVUItLeUwOoS8/Va1ssoXg5GMa1808W7oGn7sG+DN88Zd0jKwzvFSa6/Z0Bc5IyLRpq5EeCyNcnwN9a/qs4WSYZrOQxj0jLBqBG4wt5VSOorZdA5CLp45hzqaTdEPnW4IXhT0J/54gEvMU15FVJUkTNN4LyreA8UFjzzK/uNvkWOQsBZQh5Lnvj9gWLG7Pw8p/B9iuBSx4oO6WzSFWkF8fMFWr+/EcrJ6WO9Z8J18e/0PpijstbL8iyUURzIoHfNz1y9qLLo/g5oRZGOy0NBpHynqbxq+jKugQP8yW+axO/DBeHPw39Hfy6VAcTRN5w+ucoungFwgQ8k5mFR/b42BPe3F4P06tP9EKd5nf49TDFagCoeFZGlSkaA2lpP3qSlpQL56EEnh74IPS0DmrVnSmCMQ9PHHle6aLTWlmeez2iwYW8E9iIzwlJW1vDNa0t8csw5ySYhvmSDoWT14e1hghVWfRD9cczT4dXhfHKuOFqDSQi+nFFjX8I4tnSXS2DU7CYNOaRGZ6sUEyeMS/AEjNAfgxnbxUOzWegEXC/D74hPNwzEfNWtGjye7N8DF4bDl5Tt53wEpBW5N4ohDJTDfrw61ITvWe1jPX4wEXwOve4acvrNJ7tAQ8gQLm5oCJgNScjewI7sXe4Ul5Qz5DCfqmwUqshgHKLK50gsZw8mYC3grKtc1Kbe82f6L8AZeZc3KzQ5jpq95oXD8siZ0OggYW8CZZYhQYQnrSnoXDim6184YErETpKnfC3BvQyWFrPwcAUh4Pq+8gZ1H1Z/krY2F4NcxuT+jjz/NqLUN5at/CqyJFS9jdkFpTYMvRY9JGFDM03gk+C+c8MfhD0rUy+IRjjCWxEMvFSETmdmRt+WQKgaE+ogteybVlgfg6GuRdpymEazo3wTePxnlPai0UThkQUbnJ5HRWQu6r9dXUJyEqo7JTDUnkmPFm6E2b0Fiw/9t4IqC6TodDya4KNlp2g5elwYYTDuicCtx23eEjnCatoaJ5eX/WMBhbyrBqDNN3oYDVwwpFLorj64+LwJ2Gk57gmrQTE08M5xjexD1NTf/S1JgVT00AOEsZEDt5LtKKMXNdLDevZ4l01wk11qV3bihELhbXljRGwWojlydi1xSRd+zuHtdf5WQh5vhLO/T+UCyMrgeWS52wU3YWi1x7BCYRqgYQ3J+BjvzQCwqyeWlQXI9BAOdTAHit3sdTSYI+siNHBuoexujF/1q89S+hXrENwF+KyTayuL4QnC7f1beAtaPeNASvJ7uMeiAGUD5QTVAqPcdUYtHvRgIFeB6KfPKJhOGO8NPe6QAMLecKIayTPGwOHZTjJymEaMj+Xnlk3NRc/jLcnsvpiXDNyvTTB+wJvJLsZ2GBnA48ugkvb5ten1QgX1qZVKFsPvReQRjQoIDqZp68c8PF6zWdAi+f+HpxopRavcV+LpaQWVzbLJKJgrUaMmvAKROKJTE6rAvOZF/gAXqQ/64h7MHFpMN/e7Gzn5wMZ39LkKWmPGRY8cz+cmae5ANQx3NyeenrlSZhbe67JWNu47OUoXu9QoQel8yk9zC24NTqt4NzXhhsXntNHW2yRBie0833mXaCbm0dQz051jQYX8jmk8WjZUwXa55B9s1Wz5awor82sVnfbrP4yWIWSPOgAgwGMUQ4edlljLN1DvBE+0vgZt6X1Wb2Cvrg5yw72S/hNCcGQ3qSZn+Xp8VVGhpKOyIeTq3wb8OzAtTCkL91DeCCOPUqVIjvKZk6dbcjAPNw74fVg9UCLnHJ7nTsti+FEB+qGL/pdgkY/0DEM+RZrSelQZ6w35gtP38teNR9PqvmYRg97+tkplMFjy5sLYQZCnttlcKWN2llMzCNhroLBgWchsxwgqohVxC4PINIcR9LyRP/lcH7oY9ByJJYjL4CehZGuPB5G0faLhhbyVdUFBydLWEkj3SfC2cHrcS03P/XFyshjV6UTdvsY6P+ysAOC3Txg9+J3w4mx1fKSvra/AEG/sbWqBiqh8KaISXkVaohnh6/CXAu92gIiXtskRYybJchNRI0z4bUQKVZDuCpaRkcehZPjbdqLiW9vcptnewO5pmmLh2LdObwahZowhNBFtWFze1NLdPkt2OUNvhxl2rzFxpGWeBKyB8khIy9cxC6PAiyM8oJj82eHrkmOUJ5kk7CghhDbmJWQZZWlbtHgmryJbhoSnG+skclPcH+avnNaGlXSV4lYPV5JdcB8+4BpEYV7jlYucePKB36QeWNrTSsf3k7AGxuTmm0t3EJ4JJwavBRODJ4PXdDqDRT0zuAeP+FwsaM9/Xs6+jWmPNZzJgx0jmvhgfE7jGvetewBN2vQjZAJMPrALnclLK6hx7j0UEKemrzFz1MzlhkqGrlbyCz1j1KJn2Ichvw4A43+nFaT6aU/wGlUgqUl7tGUj9PXLxpYyBdIKz7bCZ2tXVrrytfu9WYrZ8gjuxmfNRC3CWwwbkUhC0Wm5j658iTMrD/XzpOGt2A3jffjehAY3AKCL9lwxQZfeuJknlHRUNOEEw4VxtuchO3tGNY7ISf6L0ED5TClPYjt0Wz1VRxqEL/AYkt0YeVJ1ii4EEYBwR7i8uacPj7DiX72IrOohGXpp4gstMHAfW34JuxYODd8Hb2jDzQJ60NUWflkMVde5vpEg2vyBk428gUGfibtAiqGE4U9HfwYiFWAPXOd0eu9SmpBQV/TYOBck5B/rFU1WzsQ8oyjor1F40JjZm+I2zGfgbAY6BglZRFQpJnRkOxuJuFwYfXBNsAtc8n7XDtPzZ5+Ls6JPeuKykN29jbisAcEz9ydcn59KixB2G+gF8mvjzUjjJpcOtwPIX9NH//m+zb8SL0vTzWKeQuofzS8kCdvtkDT5JP3ZP95DdNQE6WwijFkWCHqZsbxxEaCt0NHJWxDyC+F+bXnanRbbHDsNtbE2xdIR/z4PgFX0nBlEvdJMZa3cDOkpe0o6Q0i4bCBWsBDnnvPj3RPaE8bbp9rH8WxJm4twKqwGvbKmncZa3koVrnequb+SPPrM/omLD8qYjxQ5AJPXPRrRLRoXxu+BHi8/6zkCj/2b9+fqCZQI5SygYW8MS2/O9kK5uaHo7k/zUjPMQl4Et/GFc2YvfFgjQ5NCQViGWzP77WwtD6nlTVa7QChr8b2pkXURTiB16FJVq695vguV9horB7BJtIj4Kar4JNwqLCK59g83w/hN3fHe06H/o4RNHCbNCRUZ7LG2lM95meLZeD8jqUzX76TwQnYhY2ZMLc+LSFveVh6j8ez+KXKr7HAu2YvqA0Kz0j3MckV+zB9O8pVW6b6L2ODa/KsCnZTe/VW5oWhj6DFj0WGtTE002AiUyuE50YB7haamAS8cZ62MaBw54TrKgQ8dwzUxBrCVbI34DklwUW4ooabNfEzfl2wcxJKVIskYzxNNOmG3CfhcKFaiYY8UAp97YN6oYeLEDgvpUUH+oZA8VEdeUu2mBqWlhLixEjWVujJuC3iPS7Vnd+YhJDfxAODYRa3KNSZ3vPQxG9si40Av0uWh7Qc6BwL54Y+gUZ/EW2iumdkhc8KWrdoWCFv6+J37GWQPnsZhGPJXPKUo1gRMOI8msaDNxoKdS6bnFudDJvQ6MWNaGxZo8pb1z7Ah+GOtHgOd1ETpFZvjdxg2XoTiP6N0W6bHKyL6jrv7uBLPWeghY6HdmifDunqJo0LVVed1iFfVnrkJx61BTF4j9tncHVXljaetLmZNPvoUcUv7tcAyIjjnww9qW9Cs21wrkOyR78iHesXjSvk8aMQ4vDMxdGPA7cT7mztkZ+BNp8qKaCBeK0axk58tZxdZn61R11mCniF4PxGAh5ZIGvmwi0MTvSdD0NamRS/nJXBNDzvFxkh3+x6Ce8WrBGvFZ645JXfMOXDmm/AaldFC0U4Ws4egt434rKVNjFEAhtn+DG0QiG/gV4kFIx1vpdRyMEeBmbkmwW5f2PAhrNo8TuHoNcLUuchZ3yLFJYRvZP4hbV6R8MKeQqhbnSfjvWcDucHr+uTdKXWNqsZwhm0Ct51bFCgPNwkil1mGm7/asW1slY1un2ATMt11VydRCbu6eBe8c4aTtACopDYKyjhYFFd4+bi2HFP+4C2I6ahkPKIFFqmC5iHp7cVXLmfbB7IM9Jowr+8EpbAeyub89LmfSGDsoz8YHYe3TQSqMwYBUyQc8UZXzY7oV1Yj/Wc0bBNK9uH06fO0XBCnqTnj+uAuY5b3ajec1rPbZuQ1VA+c2a6DtAgtbML3MpgQ59k46qasr6/iVJJC0OZJHz3Xza+MMbld3wJhC+QUSjko7WWbZZrtFgtJNQn+NDuDANd42EUSpD2bvJKpPD1qo1q60vrMabxmuaRPMetrfndgtXyosbpvWegLD1vIbM0CFCO4i2DPhT0VHg4lDnRyxekLkjgd5S6EBZ7LXWOxtTkQVkS/fzIx+HM4DVpnnwZhARXHdXwFnm50diNqGUgrk3eKK+HlY1FaFJLWtYm+e6F23cheQX7etZg95iWofK7l5xwFdHUyJFpbLn2mLSLSCOULeHwETkFdeX1wvbAB/ZY3ym1jx0IKsVSlRdrLtZzzKNCJy08IJrywo8LLblwlqtsuE6eyyipbPDFKEUSIBQLS5Qtx0aCC22nIwtGY9+n6MXD8uzgVe1U2QP5Yw+3+i9lnQn5SLAq2pke4YYaJt9A48oBbkLGXePsk12EVYoqx+uH0Nk9igH1Cys+jrKA+cBQXMLGFTWrm4sQ9mtoYPGFlDcsltOUbwpzqRiFPIdt8mw8hgN2Be7zQgnvEcX6Qb1EJ3u1fRDuo902/KamXlOVNPEkFM9sdcWqLtY4V9bwa1Hc4oBLeg0U8LU5NSKK2rnP6RlF2qG9H+8/rzfquQKto82+UfGy8r6KCgdJoboQ8sYbHAuzcwZYzQUGUqB9qYhbFnAi5FjvWWkrrSW+pOCM6Ec7+8lAR5VH3UJ6c6QL/9s4rFZWw0J5Lqxtr0CjKoNeCFBxjEqmoWUlF9yeN0DzKxptzdx1XMvFuOROzZuXBc1N6aNPbPQMUHCxUSccLmI9WAVZFUHIcwiOexB1t/I7AKbJ0+RizBQim7CPdv/Fuvc0hKWz3U+Xy/NhpbwYKtTkBUvjeZlP48HvWWVWcY0eBLf34KcWOTzMj38PdnEVmr0g5aVWTKRReg33yCKjY6HN5Lb3i7oQ8jnTEVXkqgJjtUPrPDFwUV+sH+yCgEe31Cshx+60jQsry06lAu19NaxAi7fla+wWgyJVY1FvVm5uwDTYPa7VNa2cvFZ11LIGPRUg5A064fDBeqiuC9YNNU3OVXHZHx/kGoYr1OFe2J3TbnCIZm1zRStspMlnWb5O6nqHKzMRcJiKQ3uL5q8GukfD+eHr4VT/BdF1N0VjHgjI8zKlyPxfXQfvGnUi5GFQblvGBVOrDdALhGkDk/Z1DWnToDND10J39jGQZgQLHcuGEyeAuC6eQzVb6C7TUw83U7XFaK/SrEknhRfjwMplppxEooDnl4WomcSrAm7LfRLqDaybQv24E3VbamkLnR09obdrMPR28qtR9g3YAgfsC34VCnlukMchw4oPGRbA/GVewY/1Cb/fKIxxqPaBwd+24b4CGXTFPqIOOttXttS/VWwSmrtVGtw/z4/husYBoC6EvJUWB3aNaEhL11BpaOUYI7qe3EaYM9zDXROaMGxmqI2INrRzTH4trJeXtHQyYxaCNOPvJx54Ci/EoZtaPB+W/egVkXm5DVNGd+HVeSYcLoq1UxSqrFsavtTG5ZQ97YN6MapQ+/G8H5DLODm7BS2emvxK2MavGryHaBCZ99RYwt7vv2i19uXgvjaUPyd6z+u9Eg4ZM06lEkU8ojK2Uqjs8RGRZ6G6OSjUhZB3WlKuE+ocyWEeJB27SWPdpzTpwaWT+jCCkbEp4e0innCGJg8hvwYhz4mvtwVpygcnX5bp7RxQt54Cn5q9XdWvzPrwY4He1VESDhF7twIKlhZpmVxCyUlYzme9JPLrA+n52Umul1/bWtaSSq0nF2r5phGZJPK5bh00rCoCW43RtaPEF85OSx7xgy3sNSki/truwVyWXX4yP8DdB4E6EfJOCZ5BRu3FYuQwhR5EbenUShpuFsSVNVwi1swQKUQWYyzSZHNrXatrtnZcyBvd9tSU/IkpWB5FMA23EeaLHdxtkrtP6qFZ4Go2UrsC4bbcJ6F+oFoB01jteV3vaM6qBz00bZdLIU/fvfjltcE9bLbD+vYqeHFFS3q5ysuuWZ2vX+Ygtda3g9Mv3i/vG4Yue88gbw/87sJw93i4MPKRvr3QVepCe+LPYiif2AZjDuaZocrxXlE/mrxoIJuYw8hppquVn/Sb0AeL+dTkTntHBc4KbJj8OMgaushb21sKUJi3pAIyn4KgJyVrQUYlLTlMw57S3mAebvJcVFd7ZZpwCPD62Q0qQ11tfeqpUciTjxR7D755XVCT55YaGxD05coalI7yS/NrHAHviPf7E7fNYCpIo5BHE31ntQSZcsphNYJY8UFBD/ODMWd0vX8cupDPC1soMCnoAIH4Ye6zg5fDOAgqjbMFz8uGY543g2sBpE55u6xP/XH/miKR9qJF1uYQZHlUg8EUAHy7laY15kHGNOOgLXc5jgr96x9eP8V68rppUR1zl9aezjhc8w7AxwS3OOCGZZwf4jJKF/J+B4TxSGPxSXbHKEhR8RSy8pjRooXWrjDReyqcHvog9EFOZYkRV0uQ4UHSeC5xJOdAcehC3kkmQPN0IpAgfLuOHn0dw+H0wNUw1n0ytLa+G0atf7i4NVB74jANx0BpN+Yz7MU3mV+MVi3oLV92LjkOT0bV8FcWhRZ3FO0GXju/ekJ9wWvG6ox1zIc4Bb0vN7Yara7T/YJinuvlOYTIs13XcyfsKo0FliFrMFYCCvZYFCtd/iO4Ymm054RW/HHvJyYnbdh27VuwisaMlFee8uBQF8M1WcFFEVFJhKIosc/68Zuj57WW2198OkogHbiKgd1iblBmn15z7nkJSFAjZU1Md0HQo0fEt/g6S90Q8nuwglQZZuQGd+LzJTDV+SYcHop1RBOBCtLkOh7iHErwITmfGHxTUO4RtpQSQh49TOMGu/5hCLJ3i1rOtnLtBcojvilO+cRVNtZbsrh2ZF6en9MFx9pLvEfUhZDPkROEjEiCceUHiUjD8WN/c+9ogCxhgrUMbYmraqxrTE0hwltcLV6DSNyPg6uU+AWoFq0OyKFceYDJs/Lma0ZxEg4ZtbVgteV1pgd5G3tr3HSu1Z7PMextQH2MykYZvUtuUvZOMj107EXLojJTbaNhT4mfWeRb+FRC+U4CXyjcrQJ5igi124NpQfUl5Is0gOngdxa7hsNQz6iW+nGi0AcwaknYfMjLydUMnOjixCvH5X3J2qvGxV+HfTimyHcNOGRTXK3ErqYzpf/YrzKYoH+d/BMOCqgN9bqik5ZoJ4+0lmId80tfb11xOR9wOJUra8ifu4Vao4IEomF5cmPlc1ME2gIepF3tPRDyo/q+NNvUT7WQt66GfaAuhLyT0Irut7QT2lo6NB7PsS7uG5ERGcx1kEQ6dEBz5yTXNjT5bQp5avI1moDZigxYHa4QqnFFIJh0tbdcjS3zfOK2CQU0T0N+PeTUawzYwxnAye1WryUoSG0aWii1xrmXtykcs4bhZCuHbDSE59d2iNdq/BoA1kT2vvdM6iCIPRmNLkcvzndIVrUPS24xnzw+bNHECxwo6kiTB0GgjWTjhaBFO4jF14a5rXA+Fo8ARjl4Wh0atOwNpoLGxAblRY+U2uUm9iQPHwwMUGAhFf2LiXeBgVG/N+tPxD8geKPB3/jGbspL5niTW2V21l8ivG9TzNl86gaxkLzTTNjHe+SwHN925dAch0DpfnMwraWngGcPU0so5RORCX03jQwvr5U5E9xEwcr5Dr6LQEEvIQ8/rTiiKUBJ4HeQVKkPIW8UMRnUYkKMxOQr2X1tQzAQ8hpOiFoJSVUgcHPCqOCgEFPZOUGaeefhZqshSmQyhtkunsyDRKZ3POuXizMD2cKMXdVyjpQ/NKgcNG6xg2lIZrMbhYoVixdjOBRo1hpkmhmMZ8eTUyZ6CZGi+c+chwa7NI5egFh+nrk9CJfHsrfGVTYdLV2gAIc93+6GmT/H4vkWtq+uMWXEFkzoZzeh+I0Ce/7x4G3AeN5M5H/3KIBvvPa2D4Z+mHypak5j8aPS4WAXOTCwFIcOW1rkyG0cQ+Qn/jjh2hLyMeOjgdhgxSfiDloMu3jkJQ22kIyNLosHvyyL6GXhRVRfpNp1OPB7yNsILXhEUajhRxflnILRovRgrCoWHW5yKH6WJwWjLYHztNkzpDpZlsQ+F3d4yG49g/lEiqh98XN1+tYrlCXd7Tu4Zb7Rab1LCnTSwe/EMj9gWXZoYGn54KSc0qcBs1GHiEOmQ10IeaHIEbDyqVcqlbRdKj8SYl3M3aKouVFNE5M6RoEqm6KZqxp8eBbycJXTaY2TPWBr4tUxsruERaVhWVQGItIAzKM1yuaCr5XbhzLoXzSE5UVjeZQgvPQ9JDgtfYFGjJhpeRbfgw4PvAE3jmo/3Wn2QPLzm8LSi392ZVW8h+YHS8uFCxwOo7yyLZ1jQGxfh4n6EfJAkVdIFg7RkGi2GZk1qqODYnlJmUI32Dz3RE6hPBb9tO1pFIi0eqixIGPkKesXxTu34ohHwB/5xLz5S2Dzt1sCwTengRsDQ4wO3NlH1EFmvAaHqoqoTffqWjkY8BnOIRIfiquF7jLrllSX57XBa/AMujCH4lyIwdwaVpSd19xjYrbJ4MuR7cVCDqs6oXaXvEitg0CdCHmSgcyAo5gGwIlLJkm0dgp52B21RGtqRHJ4l1hl90PWYKuhJDpUh9Mr9ymExQbbGJCoinfPhtUVetsGcLYXuvJQGDQ0d9kBpxgUnUBui0TTmeK+ArqUSu16j4Afq3Eq2bGYrg6g2+Gd5TWZ9TJQaO77zrFzrWmnAELZ3hzMlxO6NgQkoUafyI/VAj7eQ5ODygB5hLKK9DCg7LH4h0mFOhHyAKhAvst4D8xB7Z3re/nl+V2aVLMzD4vHMsZiapDBixyFVw1JsuAiRCc3LwPCXhFaP5CGapxgAowNqzv0d46GvvZBCXrO3bDMENFGJ2conLKPVMuLNjOKayEA8peiATdO7W1dYQD584MqLaU8L9rkqqAJ6Z5i2GEg3rq3n+p2hFusVPR+hbYg2N6M9HlDFPLVEEU72mdbO65H7d2Mw1mu4NW0oGDn+niNOqjAoHGBHhnZ1NZImEicA0D9CHkhkgLlJwnYcDhrzTf1LCwSBqciMzUnjAL6o6wc5+ObdPZCS04n2SJZiMyaWV5GJ/pz4owbTfETbrUrbOoQXhSWTWW3pYHcL32oexzCmC+idKIhxSGLCmJEOjg5qhud+XoYbSbwGU4ttV3bMI/28Pu3w/CpaS5M6PeUIc/tQLDn5fKbokDhy0rU4re43BHCnpOl7wIU8m0QbLbybW80fTMtgHKK8oq8U10tJEINIeQ8GF6pHyEfucE1dDkjXegj3ziUczQYJy8kV0S0t7ZLU+CZbgs3sxc5pC3gz1D99o6kxs8tE2zEvwGgcni5Wa4W7c1CQczvDXCtMhubjUsjXPLMSlakgUYsxE/RMIqigQ4IZGPl8t3RrhNhvPeU1j8b3R1Iwww9C8GF5+FRks3HmpDdGJfHasfIHe4YSQHPB/rb1bUXmf2XNvxcCZOWGtsvcTTaqcHpzudnTgHSmS73MX49aNSJkM8LTiLw53TJ2iHBc07B5kYsN2nRWsq7gnzRYq9Pl+8GE8dR2V2RjYicEON+OJuVddkbAbuqHx5csnas71w4P3Q9DHdxEzuwtUlxI4N+xG6qSdCLyQxslBze4H4vpwYvhHNDV8Ngx2hcFkdBRrrlTZcmh+ez+zrvDXtcMpcjJnStjjck7A2vwz8/DT4IW8GP0l7ZbuOFc0FPt5smRyxmxkoiQX2Uu86Ga+JYYaSNaQbcFwMCSP3u6iZ1VMAm2d4CTb7UoRctMo3yFTTJmjHimEjKwTbI9ki6UsCXt9dNw6tzeCmy0kiYQOsuteqjDWcGrobTA5el1XNVlkggGhkY3Sf2JdtlI+xhaK/hcdlut7aPvTjycTg7dCX0cDyePyXNUwni0ehX88A4MBQumQt4A4dmWMcb22tWxwh/J9okiszhGg6PiSfjTdQKeqO5rE2PbXCQHqSg+U9SWDR5B/XwGqgzIc+y5xxBRtmEFqLvSEaivAv+bCzwwcdfK37t6h5zzM8ZhGSpbUR0KhQWPSijH6E9NOCie5uaPAQA31p8V+O07xNSzONtSp6WUBIwBFdzUDCP9Z0K1yZ+Fa6O/Qoa/TEIn7hRVCSAXnLiQ0+CmOmMskJkLE70H+8/jzy+CBeHP9GXyCjIsmiyREct4QtB9QHOMFTC+taavihGIc/7L7axN4EX29eG6xsPhYaZC3qrLHPXFWHeOXYq7DFxA8ENo2+BHrtxsPSoOyFvRScXkUFt90VtsdsAQujdg3SwFsXZe76azgbFxkWosVlwfi6iwEdkPG/czmLS8rY29LUpLa1rBODGC8UyoFgU9JwkPTt0PVwf/1W4MvpFONV/WStjKOxZdg7DcCmhXr3nww/nrdiD4VJMfrPz9OClcG3s5+Ha+C/CBL/dqU8jFsfiC9ePFgn+jP57VcThgcKHq2rW+W3gCuvY7+/N71PFBr05hMWVNTxnNGG2MO5+paxrIoiXqJDC6OH2CvIeNEnqSshbpzmnDhsiPy9G4mWrP15BvGYGBQlXMtiLP6g2CqkqYrhOWk1D01btnHvTDmpD6PFDzGtlaPKw1z2y1oHeCPhB5UKZbHc/js23hz4I+nPD18IvTv+X8PnJfwpnBz8MQ90ToFu3wimQSD+tZcbDsgUCvJ3DM73Hw6XRT5HmH8Mnx36LdFeUF+PZIGJ2cSF7YBakWF4jdjwU8NKFy1OT57dY+dFtbihGvLXgRQa+2ovbGJNG9qDDhd1YtCMC1nv+zYdtPFiL1WByrRoHSZo6EvKRMDoYCdi95JdnNjhmjJ+goCIJmxksrNGCwoSTr9wbQxsgVXGJC3jC0vwUdZgfabq6tRRWyvNgzvWfIOleND+EOnCSFCVIwUohzhU2JwcuaMjlsxN/L8HN84cTvw6Xhj+BAL8Kjf9quDTyibT+nyHs5yf+KXx2/H9RD+BY/zkty7S3aGsQrxUfne7ITmaNHgeNPaqjgh7a6tYy6nhRmnyc9QLe/B5tmIZfm+rRyibjR8/vEHjincN43Y652x9e5jLBbrFsPJ6yir2m6vkti8nzIXFFfWnyRi6QwiwaQuBY4jqMj+8ZGIHuGLEZYXyBPwU2RAq0JY47cxLQPkqQCxT+YvSXA4GudVo8CHnQdB1Cfrk8iwepjdn+NPwqr7zae0ZeejvhEJ0Ey9mJHs9E3+lwfeKX4ZfQ6n9z7n8Nvzr9f5R2/8nx34ZPj/9d+Pmpfwp/e/b/FH5z9v8SfnHyP0PA/yKM9ZyG8OrNaMWMC1kb4uWq/OXY5Xvg0FxF4RZYp6sQ8Eubs+oVi1t23rzZU2Cx90MB39PWH7rRQ2pjjyiG0lJ1D2STw2SVN4RuWfcexbgL+DwgGh6tLW1IVi3DvhXpQeRxi6loDgr1IeRjiUUYHtTAWqR5rJQXwurmor2wQyguhRpvPSdl84FMEXdDhIuTrdzljuPOGmMGHczf4mrcguc9kcckbSnA6OJwGN+EXNtcDSubSxqbN0Ef8+JF9M8ZtC4Ri1YEH4qcMOUX9Dl5yvH588MfhStjP4fg/zU0+F9DqP88XIDfyf4LYbh7Qm+16o3Fkr/MskfG9Qzcrg1fWdWxEGw3q2X01jbYWyvL721Lxa0MOsGL3R19oRUKRyZG2G7FX+bkLWSocjQInFC6dzpo4KA787OjHqZbi+oxaViMRIhx/OdQcntaHAjqRJOPBRaTwEV6wM6385Y35sLy5ryejh7NxV4zI+oPGbgBUhc0eX5ARfuoePFFL7EN7PH8OmA6aB+ciGQ3cxF0FoO6Np9lA0vGkP7IMbuZ+gYbFyes+YDkp9lGe0+GE33n9eHlUQj//o4R7U2jeQ7AStoYZctRW+d0U0XgOPGmlCQ+xPlCVM44bwKrfWru3e19oOke2+pG2vlVau+sMWBlMNhZFHUvgEoXe0Re0h0qpJsLklV86SzPATE4/0PEdpRlc0CCvj6EfCy1rXggMUXSsLWzoW7mcnkOdj4dPZ6CG5SBXg963mXcQDu/ut8T+toHNBSRMZeOtBci/wRsKILMx/QVLaGcW5sUrfmZwZy2NgzU6GAZWFa+fk+Bz54Qx5HbWtrlx6ZqgBBDRKNOoyCvoWqZUQnb2xvopUGLX58Pa9DmOfypJaRvUzhchDTsoZBv79X4vBGrMHzKU9W9NA4kf/zeXdCQedRmzJ4P5QExLpWjFQj45U3Kqk3zjLxkBLI8os2yozkA1IkmD4iekagR1OSX1ufCwvpM2NxaQ7BNdDhtDohGhwTnAiulD9f0tQ9ByHeDSfbYH8O6QOb8SeSpOUwzu/5cdLZldp5HjCOn1c3r5l5P4D1bSfIyW2kK2Bft6g8qi98+JAjbyvrWalhCD20Vgl7rt7OhuDdETErtnXNDHJPP962ppV+NuxjUEMg55FW3rliQW+wNL6zPokc8qxU2L3uSOvUPkhz1I+RRfD7dbEDAhImGa/B0XFibkpZJjZOapwIPkkqHgupCSpPncE3nIIQ8usnxVXJyTaZ5vCZRsvHAeAm+EDW7+kJCXpp8DKodiTe9Pnc3DNDgivvUmBXlcK2WQpHRGrBoKhML4ffO8gAVFGZtaxl1OqXFC6pzFRBGPeX9Q5cBrfRZTigbnMPglgYGipJ48QxwW6NuGOh24y2z12Nf/XJ6FQoS+Yc9mM3tdT1M51enwvL6goZrxFugt1LXMJb5HhzqR8iTshHWIEkMEnAjLICAk8uPNW7MCQ5VgGIcHXBMno2ru71fgp4v6ZgWlWvXTpcq+mSNmzGrjccijRc3pmBmTONTaFUusFWnrLbXOVSUQnlqiwJomCbjwQYqG4Hb9lv3u2YdLm/Mh+m1Z2GlvAwXI5k//28Dvq/BHT/7OobiMtOcbrUCrTGxuwwsoeS6OSNaNLG9uA75tEL5BC2eewTFea3aOqmGcjTre0YdafKAVIX8lkgcMuUSmPXxwp0ws/o8DifEwCMDKyyHbLg+ua9rGIJ+SOPKMWBPVHm/ovFxQm6Zk0aafOWbkfz6PuN7nypCD4xob2BUk4sFKhbKBJUJq8YqrMoV713CB/U5tfJEq2uy0WC0seryvz6YjmPwHDYc7Bo1IZ9p8kWaNRbd9gbLEGlG1BSJ7YJebCszq8/Ck4XbGnXQSENMk1GadWK2iOh/QKgvIZ/R1CzUrEjMJRDv0cKtMLX6RE9K4WDpdIgge9DYMBX3OGfj6u8chhbF5WsevjeqJon2RIveduVLHOpyrk1KKGgbCSS19GAT9a7ILrlO30jwe9Z9s1w6wRWFYl4i4zsrN039w+68WIYQyjvsAc9IAHHSlWJGK0JYpthT3h+Qdwvf1egKPR2DYQBCnuPyxS0fnNWq76Ta3hiwundBTvaoFdMCAjjUOb36KDyav4n2M0tPowPTsA3R4oQBaKVh3nad94/6EPKkA010OsiQJMjG1qo0khfLD8Pc+qR21NuT6E2H3WXkyob+jmHtycJdKcWAMdrLKPJTgp7pKNQp5CdXHqnb6cNihJ3JKv6KPy9Kv1fnW9fgrb/09l8ZWFfwOi/WPbcBoRY/pyG4OY0ZK4aKxQMf2oz5+mB07hvPyVbyXnf7AJQM9iSr6VRktcag4B5gYfUgdLMH0Og4RzgPefRi+YEEPeUU4/NhqijZgfBHRsHrgFAfQj6jpRG0SrOCfWdnS/tvvFi6H+7Pfq/lfj7u1dxwrdkIxCMb1iAa2VDnWOAr5dI6GZUgraK1Fq8S9MyB6dhjegYaz69PxfXyzph5rnQrp5dnV4eIZcBfc2UCC0AlwkyDFeiVWNlaluCZXXsBjX4d8sp233QaxMP+AN6igsGx+OHO8dBR6ooBEYUsSU5nt0albBWFyCOxFBJNADdPXFifDg/mb4QXKw/COt8Yh5/PJzK6p8kSEbTKmVneO+pDyANVxXWGhCGZSCyu+phaeRzuz30fZlae2TKlAyLS4SIySgSXr/GlnpHuCY2NthZftFDU/dPEHxQcppmCJk/hQK0k30qi+h6I3T71DHtYcavh6hunw01jwu+8WIK18mJ4jof1HOewtu3FHAECyFvWfovMNBx/H+iAkO8eD53cr18Z4aBz80Kk4kGGSqd9M3cacuj+7A9oM0/1Ho/FIzGi3KoT5aEuhLyRJecV1wIcEkGaxZ4JT5fuatiGQwtb25yEbVYOY7nimB61gwoMzmxofZ2DYahnLPRwiwN/MYrMJbrpsG8wFd9FmId2MgvhoHcT8CCVEuKaCG+h4DRX/UP3HM3L7nl3nNx1+Hj1/ViNs3JsDxVOok8tPwoLa9OhUoHwgb8MI1JI0ShNjp8sKSrdFIxhfU+X+yeZQLOrE36HnlfOJ42IrBQFY+BkK+XPc8ihJ0t3tD5e3yiQwmUKhUA/0gf/6hwA0e5gUBdCPmcTAoUHd2SEUigZk/s1r4fFtZnwcPFWeLBwS7vrOSPxVDR749Wh9QQ2Q79T0ScSievltcKmczgMdI9qt0ROfokOYqq8lGYsHxke9oBRGL2lHW5xsBxmVp+qu0/NPosQmVLaCf4vyapOYXSx/sre8JDqGC+P/z6gYUpVlBmjccEDJueLor9Bb12iztgT44Qr38C0YU2Uo1gUti8ad2Y/Okil2nIjLuqdgp3j8fzEog3XWDu1h4cOMp5eXo2IrDxWmiqASNww8dH8rfBo4SYUz2ktO1aAjqJINPCLD0LPzWIBsa0eBOpkuCZnDCOTk4w2GBLc/tI2Hy/cDnfnv9MEob0FuwfoWROwh1cdw8pefODbdg+stNbQ3dofRrpPSNDv3j+kAGZTKHVt+RnsfrRvoxs6s/IkPF78EdqKLwljDDe6Kx2tpuofxl1kdbvvlyEPeXW89wvQ2P4RtTYeo0DOwkxEcyJwavlxeL54X71evv9ggiavKy+Z6hBBSulFzbNTHGqnrhjwYzV8R2Ogayzwo+ZtcNcumTQ6e2aNDaORw12kVkWT2ffnvg1P0Eb4VvHuEkefqoDdsQ4KdSLkCRCBWkTGWEaU3I5bLZXQVdoMi6uTYXLhHhj6oSYL7WMIOcPpIxLRLiYncGIujcOEpEc862S6AQ3Bt1/He0/pM3ecjK1eBgh4y3UvhOsNvug0FOiDM7U17m8yt/4iPEU3dG5jMmyC3pmYL1yD+RQfQAlvj0zzxTnqNSB3zcNJNPd6jH4E6oYbkT2Y/z48hLFeGCMjjqIVKsuFPs4MYj1KPMd4FGSqawUYX/S2D+i7t1zZpSFCplUCN00CkYkHWapAOUPFZ3LlYXi2dC/Mr01p6Kbei19HQr7IuGYzMpPp6MattpRCpWVbe5/Prz4FM/8gglt3yZFXjqdnAzBrnddGAbpTa3U452ViefijkOcWusPdx9B1jo0uhhO0axxWv+gRYdnm4l1gY8aJjXttc1nj8py8m1l7bpPctbRzmia8W5DMTmoncdUDG/VUQ3rWGXeb5GoPapfPlx/EhQn+gPCTZw6Df8xOPrkgiJnTE7DW16JVNcd6z+I8HCf7Yz4esRlQQ9dqD/aU1iFvHoSHczfCLNoFtfjiy0/1iroQ8iZuyG00+Ltwk1+0wc/EEM/bYak8G+7OfaOXELiagELHli+V1CYY36RZgdH9Og0BlparQXi/vP+8LKQA9z0f6pqAJj+hcXl/+9WoFNNl0sCFPfIAcXzRjNwyjGp2S72jrWkfgrZkaGqIipPVS23+Ce8ExrigPk56iDp90ULiQzXTnulkPSI+x+IXN6bDCyg801B+bFth+2g3/4oGi+dGBmCbsyo3LhBwDcWRvzwQle2Kq2rGwvG+c3oJz74xnEVqHmRFMosPV4nUoBlfKns0fwNy5+uwtDlnNGT0OkddCHlnlSJjRzJLTtsaX/GgfKnRr29thBfLj6G53AnTK0+lfeotzSyPPB9D7tcYePW9ct+a7rZeCPqxMAJtnnvZ8MHGjam8pGZwdGGc7X8NwxaeEceZmX4WzrkP0pbrgG13yrjSRoncJLxbWI258bqTMCZ0zuluQpqrPTbR63oc62o6bO34thSIIyGdJ7U8o5sVKks1mJK8wHTkM+56ymWTE32n9NGabH/0JoWVHyCdSDMJ+JUwtfosPEXvdnLlidoHSVd4RNYt6qS2SMloBYxsJF9OQh9n11Kl0ApNxYYVuDHQw4VbYXb9hZaLCcorq6oMZNxqn3qF3/vuMgjRmxOu3EPkeP95rZ0nzRSUSQW4qkkLRLpmGpxFkICPEbkZGgUHh2yeLd7T2nkuy+MHRgx6/FqahHcDPWWtAnKqes3BR4LVenKZ1NZDnQJoOTxdvBvuz91UPbH+KJwIRVPedFk64wAL4zWrHyIWlQoX67e91AntfSSM9BwHr43rE5TNLORFpggnS6VSDnNrL6DF34a8gULJj6Jr1VJjoH5qi1wpqrrwoMHtOXNG41o9Q/nlG46N3Z37NjxbfhA2KusIKFZThPvF/OsfXn5HTZliMJdOcrXDyYHL0OjH5QnFTWeTF4U8ZGXH3Q0fmIwEgzA9HkQnNxUT9KDvnZmvJUQ2fd8gAXHYc0p4NxD/s5Jivai+cLCKrEIF7UJtBPRfWp8ND+dvoX5+hBb/IuiD7IDEuP2jYX3BwhPzhJGfecGY3dIwBdtaCL2d/eFE/znN//DlOxuqaU5ECgD87GZsI/hxldLzpQfhztxXUHyeguz+4hMP9Y+6EPLOx9mYr7gOdlcx4Caxc5ryNW3GD9BcFiWAaKjNs0JE/WJ6Yi/hX9fgvVsz3PvO2RRb0X0eCsf6zmk5JYdv2iD4jYwm6E2rJy1AwRaOxYJ5XZgr42iPfvYDkEmp1KJPAj6Y/8HWBGsr1fimsSIRmSXhLaF5J1We0VfVCFgv1uA2nrkjK/d0ujPzVXixdE/vOOjDIIpk+jqzUz7RL88VgJ+8eZCxNOQVskMJGjvfxzg9dDmM9Z4Eb3FDvOaHU4hkL29tQIufCk+WIGNguJqPEbwnXKBm3aIuhLz4WjCLiRkaA8lZ8lsVw7sWgudthS+ALIZnqAAKIy5xIiK7AnlejVIpBtypls/R0I4TDItvpQdNQDi+GMWhmone02G85wS0Lb6kErV1hCsu0pheAmQPO+SZEYONmg4aTlwzjPlzyep6mNt4oXXznIi1zcuYq1M4yyThLcBaMQOqgu45bY2+plkaWKscQuDQDJfycdnkzNoLbS/M+svaCqA8xULIB3VsPIAz/GjsCnZNglq++ZUk1Ac62VO8GEZ6uFS3ebV4gk2DO1/42+UEJ1gfLHwv+bIChZLbF6gmYoVZb7i+kXNDHYAEMyakIcWdgHY2QeTIm8EWtHe+oXl/7juNnWntagbEYLr6r4tq4H51yzxk9x4thZN/4Hu873Q4NXBJ65mL7wkQ0uZlNYqpGcOdUzDCohuUnA+InbBeXtXGZbdn/wKN8YFeuok1lfCOYbVRUy+ysrZUKfpT4PChex+KzdTqU72FyTqhcFYsRcMhCncXWjGrPUBBbxzBlO0l7nY6oo+dj8D0gK9sqIa5NzEkc4zS5Z2yRgfuQa5QvnD4MqMQTowjU+eCvo6EPFkyko10JHNGv4yG8CITS9ukGwGsDr3AszYZnizcCZPLj9AAFmyFQawIAx0x/0YAy0oS6H5haOdpj9vnB6nHe06FM0PXwmDHWGgN7YrHJCUcaEizTKiDDsomNnzCaS/29nCA9GZvaXb1mcbmHy7cDPPZ25QJ7wqqmYzRgVhVFVRkXhvmTX7nXMn3U78Ld+e/CWtcr01mUWUjdkzn74IzW9pMdJndbBGKYD4u6DvbesJE31lN6lNxaNplk0Wo0YB+oCE1dj5IuYLv4cKPUh53uNmbhEqkQUaK+qZJHQn5AqEiz4nteCBd9cO5irAwYEqGcA9tLh97uPBDeLx4SzPgSqy/J8oSNwhEgaz8kvpZEWIYwAlYW2VzLgz3ngxdnYNaecMufktgFx4UqEpnJs+BgLsgUFxj8XjcrIxbEN+d/SbcmvpSe3bYiyAJ7wZ5veRgLbAeyON25sOVWuXd2a+1f4o2IYNC4zGttiw2H+t5dqxfs0mW0ZJdDvnTM0bmA4NLck8OXgwnBy7oxbujgkgB9F5XwpP5H8ODuR/CwsZUnIsygem1QahJuqNOUVfDNc7QBjAlKR4p6MR3G0FmVBQYDluUt9bCw7mb6l7xe6W+3YFyYFzl5fk3BvKtCHDMbh2lBnGs9IzTKs1rqHsiHBu8EEZ7T9kGUlxqoxUwFk/0tIMZDUAaXMArJqQBNRajFq4DunESlt3VJ/O3w83JP2qim5rO0djX/yBAOlu9WB2YyeoeDg5DUpG5M/tV+HHmL+q9Uvj4F4iyqsUhk9n0RHIKePdSnrQIdgVe1TX/ds7zdI+F4wPnwziUhvbW+JlJz6BJ4cWz77bO4kH6LeTJD3iwrkO+mHhnjHyFH91Gv3pGXQn5WkgmC0bOWoK6kBMHw0WGn1l7JgHEtd0ctpEQismqUwNKzgMbCVgcjcUFXWbQSA5vzI13bMyV3TuIoi514YFlthaNm54dvBrODH0ATaxXE6QVV99QGn8kWpcc/nDSh/r+TnxRSnnp4HSw9Dzy4y1r5Xltd3Bj9stwf+FGWNVHov1ndLRcebKz5eO+uW1/eNN0h4GX36uHGE+ZMbuIbj89e+kHS4xHPuZLadTe76A39XTxTtyFlXyLOBYtAnlZtRkQ7iJK9chrZBFYb27jqrWStso4OXApjHWfDN1tfRBwbcqDMRoHvFdrzxlHFm7f+bVYeoKfwuSE9uTqw/B0+U6YhTzhpn1sh4xhD0unJI+FTOsUdS3kq+FMWY3cl2vE7c00vtrN7Q6mV58EfqR6N1RdZvzEc0FwCvI0HJ6g3ws19xnBlTbH+8+GM4OXoNWPhXattAFzxjIyjYpYSOulUrOnoI8afM78DvPlSyBLm7PoLX0bbs38VQKfL6WRPkyZkckvWkW36Lcr791gfvVF89eF3Xf1/ccy071XkUBaW+qK5shz1BRZWbSxR7q8sRAeL9wKt6a/1EejF9fn4J8P0+QouDKN05CHsHbzG+FVGMboHaWOcKz/XDg3dF1fH+P3C/wKliJPV9/w++TZyqsy21/ws8dhOSkvKDceQYHheY1ffILgL1KAyG05VesVDSTk94DTF+dcPu9oqObu3PfQdu5pDFNArdRWataYkNC126zK0CBNW24ctKFB9rcPhvGeM+HEwEV93MH2mrcmnQt4mEiw6MroRx8JJ5LHUsGQTWDYZUXETS6rXH4aHkx/HX6Y/L12rKTAsdSMz8SuP4GOmbArAvfE+yqEFe15b6WIWnc9wu/bjFEeRmWjICE9rHxE5gsn7caTjGBu6prci+YxNPeb03+yYZrVF1BotlAjRm27Fk/xnMH97RSvBLfdlcHqjFEo0PmR7tPgnbNDV0J/13C8T8T3PLK86h3GvW4zF8tt9PdyG3JqcLPD55Ab/AIdPwySiQicIylidK/Z+idI66//+fx/i/aGRsaDsHA1SBlCh1+T574u3e19NhGJQFZMXi1ZKksY4RUrBs+9zV3nsNVHYD70avgBCU6WZp+AK5RHdEBBi6xOsIyZuxBXYJj8oNGDvlxKyY+qk7Y9HX3qSeiFGc8jHtQQYl52io6IIl1za3Wc3e56Bu+VBpTDqfrOY5g8ze7iyOKBWjGMLzvx5ZtH0OBvTP1JY/HTq481LMm18JY6okDDWhh9s1qsgodxTos7TZ4dvBaujv8inB78QHvWFHM1QV/NL/WL/D55lsHBfJ0/PY7VgO0y+Sj8MPVH9VTX8HClMLAU8UDhIJoRWUhdo6GFPDU/0Vu1lzOxxqJRbe0QOJxE6oN2wk/lcfKE0RnTq7fI+lXCBr9M31H+nqLOgZtsa+nQROza1kqYWXsqYayxWzEo4/BgZSuh5VqxC1RRHFrcl4gPSDgsfkXLVCnktec88u9q69UYrj5iQnoh71zAW2PJ99XJ4YLGJ7Ry5HGtrnenrUugGKJWdruwRMJVcRG9GI9lyz1k5+Tf8sYsBPyPEPD/IcP5Ji6fJB2YnRYSuInw3pDTymlLWBjj6y9jQFtBOzkFwf7xsb+VoOeHQfhxmiyybFV3X/8gb/OcHWAKtDKr+fNNYQ7z/jjzVzxMv5ad/K3eUpaEdeqOxqFFQwt5p7e6YCI5jPjZumX2BuCONlYa7jkGLdO+oMS4alYSODETAhnKFb2yaowXKsSsW/Ce2e3m1sNcDbOxtRS4Raq+Jg9BbC+UmVF5nIiFwjHEf+6THwnauECzAhpvSQPa4K58yItbIFPY2zdAQeeYSHntIeCJVwvvPOzV8eoI8WHKu9UdiyeL9My85MNi6cwfHFrdQQG/SA3+j9q2gOPD5cp6pIHxL221UHgWoKsU4tlwmw2/8cxwU4a4MuvSyKfh+sSvwyhX1MDPrhDLohMt8GoEWNEj7L5dacv4KJ7oX65shAcLN8N3L36vTfnWuaCA7UWRLKJkBv5k48yXWcqiQ12isYV8JKxVXezAOsGhtbDiKIQGu207Xg4n+KvZpjTGKlTDUEJLTiiAhofIHHlofSPeNz/uQJpwtcDiJifqtiXk+StqKManXjYTH+aOR7PiHzmaecCT3mwgnPfgG5cU9uxDUch3tfboQWOv6OewrGL6aAyW294oxqt3sAxejvyeMxstLEuVB72Mupz4W96cD4+hwd+a+TLcmv6LPunHB7Z6oiU+OGMaHV92LfMnrbOz0rmARwz1IFq0P83Zoavhg7HPNeHK3hjrLROKOlsand1a98B9F+812oteFNh8x4YfsL8NLf7m1J/CwvqUNHvFVNGZAobOaI8+BlkyV92hscfkwaT2VOUPDUDCB4zLisCfk1McVmBXlJt39XUM6cUOrw47W1wytFWdIbehlrMusI6y1ztIA2rV7W2dYam8oEmkcnlD8xUWwQ7a1ySDM68dDX62Js8wE7hGMfpR4yGtucf22iaFPcfp28NA1yg0Qgh6JS/QUB6ebxGWbxEc3mkcAW/wEoiOvH/Y5Ufe5Jkwxo2gxT7+wTmUh/M3wveTv5cGz0lWTgaSBjRMpgMyNOoT+RXzPA1GO/d0O+uOGXAsvi0c6zsbPjn+23AZmnx/14gUIbtfHmK7oIfXQzzVP4xesRj5/WfkQjj4cgm9Jk603p79SnvUeK/U4tiJ2LFXxzMFUdCpEKkO0fATr6oMGPvJmhNetcFhmy0wc6vW//bzbVBoKRYpGsV3wJEJJMvTUd1g6hPiZRx55xwb537gfEWbjMv3BjbiHicshgSGFye2Biuzld8iAArCQZk7nS0Oj5y0I7hj39rWsr4vyqEhTtzxHqiBMk6p5E8U5WDWnwSuF/NvHFj5RCm/9UivzMlfdLA++GCcXXuhvWi4TJJbSHCHSb4ARboxrnJglqgXS+q5EdEnZmpX5zVq4zAXXBH1wwcxV2BdHPkkfHTsb7Sbqb34VJ1GrvxQHVzHKLCvDrtuGx7b6O2/WH4Yvn/xB230xl6U3hdQAk8EeuHsaqC8hGpXvaKxhXzG0BGZhYxsFUJhsw4BR69BMDQ/gNAB4aMXPIoVpLwKbsBdqms5dsepN1QJaN13Kdg+4CVpiYubs5q807bDEDz2HLQyVZFAgiQ63C/Sm8S0BwmD7IHJfJgVX9rZ2F4Py+g98OUdvnLfjh4FP/6sFU7scWkoIM/Wb9k8sovJ5HRvFGRUA8wm/slcEdFBYatVHcuPINz/HH6Y/GO4N/ud3mzVOx5ZpcQEOBXnVeLfrqG4Vi8Gsxl57b7s4VyBZSf0tg+GD0Y/D9fGfxFO9l8I3e39ykM5UNFRgiwl/Bkij7qHsbTxqd9vzmb4oZxU/hbRw30wh57T1O8h7O/LL6NvzMO2fICT/kgXsxMaYUFAw2vyxarzY5HNGcwxN6KzvU+MLUHf1ik/B1PENhJdfgQU4KZRwHsFJSCDNReBnsz69qq0bG5HsL3DHfU4Xm5MmzGqTjjozwMJEpmcPyc3EelijSIKAJwp2PmR4+XyvDbP0r4fCOLySg4h5bsZWgohsxB0FE2jwe/baGclKJbDHsVchrqE3tWThR81Hszxd27pPL8xpQex95A8fuaCf5YbLFZ3NHnlFGLIbi57d6EVv+72gXCi73z4cOLX0OQ/1vLJVmjxxhMFwMH8TWjSXcy5nlGkBey6aR4iNVCOtfIq6H07/Djzlfa8WtlYMNqKnjXCOwp+S2tefo2qeHWIBhfyRmQerQtrzFisXqO/YuipS612rPeE1s6zslRpGSweoYqjlVItVnBV1LpFvFeWBfcul4ZL2iDoO9T9pxDZ3FrPCRWZmpACB7d8eKC//GgnGBaHu+jJMLhcIPHIdFx5swUNlftxL6zPhk0NO7RpToQPHF1DabyOqmHL/XLUe0OqgmgSCQPIHnmIpWJvh9s3ky6cYP1u8ncQNF+G58sP9G2EStjOaJLxp2uT0cf4nH6w2F8wutGDdWTDY9Lexcc8laDg9IbjEPCXx36mydaJvjPqbRV7WHZ9utzOPGXJrtUQAKH89v1lPhaDPfyFjZlwY+rPmvvgJmTsOTl9nd5KGPNwOkidkZ1+0VLHaHhNPquKWHmZD1uB/RXGbjEFXGdbVxjuGtcHiVuhWdrGQwS1HIvPjHT2vJixZd4w8BUYBEujDzLH73PyjVVq2tTstUysGFfW3C2hT4sfeI7B1n3PnCJ55gBEc/SiOFzGZZxrEGAbuC6jcAM1rudv4XhzMdEeaDQBb4iligfSncTlqg1uSUDhzjdYf5j6D33sht/TZZ1sU8AziaWS3dzMQ5boy+zcLwYQ9JCn8zWdqCfWM/xaIcy5+dgH45+HTyZ+o0lXfo/ABbwXgDlYrsxPFlWw30OjIL9d3jspxw8NVcLq1pK+9HQDdcDtIja2V0AjiW8lsncQPGU8y2J5ZJ5ClaPu0NhC3huUKs9ZFGc9eaPwiPTnZAq7x/w8Xk97r/bI5qfz9OIO00jbYXwmsESep7ljRg0Av+viffNhRm2NwyWccNuAgOckEx98EvSKBRgnG4radEZjC/eQuOAAbo5dwqF4xV9J45zc2GxxYxpdYlxzi9/IhDZPOcT4sEgIKn4NlN9PIb+vg4GX/qeuybJRsO+E8nZZ29cubM5AqNyEcPlz+G7qD+H+3LdWDzv23VCW1n+WgyHjRXjkoY7oyjxpcQfH3/ng4ER8R+jvGgunhz/QMM0Ho5+hR9urezRkfQMY2uLQjbTawlU9eh3DysCDl8j4i3++Ac4NDPnS073Zb8Lc2jOtOjMyoOQ4u5JkR6O9PSTiwzPGLcaqVzT8xKszaE7u3C+nvVlYVVymRqHT2zms71Zy9Qmj2zOcliwRkpmmaukL/nUMY0dnbLd6KVog6DvwkOsDU2/phQ+uuuEHuvMVBbkGaCkMWmrJYDkspIrOsps7+uaAh784xd4DX/Th7n5LEPzbYSu04Z5oXKfPssruO0ehZHBYaXOP4mMoYpfHbsRchOqoHmK+NskmWyHfQooYXaIyxmO5OTQ2t/4CGvuNcBOaOzX4hws3wuz6pCapeddFPjabXYPeMdsMHkPpZItgXHlU58H0LVBmetr7w/nha+HT438Xzg9dV2/WHq6GPN945MVh6Jaf3LTUO4oUszKIBjCsG74Jfnvuq/DD5B/CCwh7toFYQB4UX6eiW3482ylHlaMu0QQTr0UyF2pgF+3Ng/uB8MUSavJ8QUpjxFz1AWY3Qc+YkUlixVrKXRnWKQoMrh4NIG2GZw7btIWONg6VcOOyipY8rkDYczySW0EwjpfUy+1dV7o9LPPIfJ12BeRByNaoyklYLuXkJnIcf+YQBQVdeZtbI2xrbF9LLqkxFe6liF1+mbaWh5gt+lcliLSIMJdFqIpWhYwjYN0tWLOUHoAzh6m4sdj82mR4tnxP3zjg5Co/usLvslKj5/5KpIv9PGm0xQtG0sPp3JnH8Xuiy/zc8Gih9sBp0cqZM4NXwrXxX4Yro5+L9+3FQIvvqM3HUOtuJERK6PZ3JND5uUQ+aO/OfK1elCjJelAxrZx5aeUZTWOiKYT8fkDNivqVXr9v7YE2Mxi60AAoWMQOFBiqU69UVD7VowapYzZS3b45okVsbkeUi2Xt5D4z7T1g+nUTtpU1adoqPtIw2Q61PBomk1Fm5gAkdqL99QGxA41YWj00qoWN6TCz/ExfOLJvx1Yg3luRcxwqAHRtObI7MOhGFRpNETbHQu88FSlgtHBYSpTEe3DqHZjduuyFa8pt6aV5izZMbWXiQ4oPSz6wuHz0iVZu/FUbXt2e/qvGgBch3FlOxtV1lZ9fx85ZbwrXcD+7PxqAY2T421oZhcqbNu5FRNiJLzuVwOsdWgNPDf6DsZ/rfRH26PJ0zQaWC4bEUXXhACdpzh7VXTxwOVQztcI3iblLLeM7JZuPJkdOyLMy+eNwBdsz9+zgtgfc18ar12LEKvfGTzRM/duNimFx/5JNgrEwj+y92K6R7ZApLRK4HFZgQxBhCmW1NATpEl1R4GVDNq8N3g/Ts1dVxkNmJaxC410pL0CrWtCKBw7nrMLO9ePcIYfbJXN1UHFooQgbRineh9WeGSIPcwrkqHHHfIrVrnLqzNT2y9OAJugRcaO2+fVJvVjzeP62djG8O/d1uDdvX/qfhUbPyT57C9tysjzc8J6L8PxhKwb5/emY341cummGwCARV5Cw13Zq4HL4cPxX2l1yoveM6p3Cv5mRsbCIZ3TZgEDnksnvJ/9dE9+rXMkk3jGFwuhox2bCkRPyqm7UO1d88GvsgxDywz0ToVNrye0LOGzSegGCArJY6Q1V/7hZZ3SWQhZjeP9xApZ7hnOMvgyBulFe1dYEXKOdA/RAWmmcSk5HzFUns+8X7CUopbKlkFwN89DqJ6Fd8cUgLvPkihx9kJ11AoHFmqHgoqGfZRDvhWda6U83bs5/OWjP/fItE0yfJuh2AZ+FIE/ZcaBQ4LwOH1A03LeHDyduIMYxd2nu03/U+cnCLQl+8ppul/ekC9EBIbtjQ4T68wLx3nUxR1YeHmTTffPMoS0vC8F7tdgUXC16L2G0+7g0+E9gJnpPg8/txbhCsqYDaRApqWKSRhwa44uAt6HBc8kqP0yfRVAMi9mMOIKaPCvSutYEmZ4bavXHfW3UmvT3p3uh4gvWhoMEQiwChAQbgQQBHmzcfqCnrZ8helmKWilXe9jjjr/YZKT9MQdvRha+X1huJjg9OdeG8+FignM9rEHr5Z4iMyvPwvOVR5ogm4PAtHH8Zd2fj9+bhu/3BLAOXwILwZECnucYVUmi3bMpWGCjcOdk9ZLmE7gVLYdf7s9/F27O/CXcmvpzuD/3nfxmEMax3uoHZqQVpbxfjGdZ7d7z+9HBLu9xMiAWveTNNPk9Gnin3Dq4Qx+OuT7+N3qj9UT/edWzHmrKryrTpkJ18ay8K5tztj8N6oqfTtT+NHHeJ8ZqWrT813/5h1ouOQJAM4CGxI3LxqDdXB//Zfji5H9Ct/aihgZyoEGBOiKQ8UoDoXDjhZP5ASiYW0mLLWikXK/9zYt/z8YrqV1Ta9aXndQYnDamVVuWPHrm+0CWpxwyanQOhPHH8XnWU0/nQBhBj2uk67g2PhuUGQ997YOaW9HWCaU2TSbynQC+eMU3a60rzgeB1aXulZf1wgO6unoKnLHBrwJ7Bdr6ziYeOlvx4bOBh89KWFq3l7vm8QBiz4P7zfCD2ssbc1qa57RRrvrTzmvyHOFdhQhuMUFwuIU/Qj0VItKIbtlEFwOHshgrE/U4MDoVl7Gekxqe+XDib8JJCHh9T8Hpq3thLp5T88HpTrrx28ScH/nzk/+udfEai9emb/m7AaSq2ZsPR1LIi7WjkGlv6wnnhz8Mvzn7f9Y+HvwYtm1glsMJlDev+oXJBjCtGjIN7jluNWmyxRiawshdkSJhdXMxPFt6gO7s7/WRiqnVJ9B4+PIS47qAgNFFYImnN4Ul1Q3jZI1Mfrh3/dhA4UPh1Nbarp4WtVEKfU4c88tfXBZIww/D9EGQ9bT1oWcG096t/XI459De0q5zqzZIK+HBxevpkroge3VcDcOhIX3xamtDb6Ty5S32bJbRq+D47Wp5IaxuLMB/RSuCZKARcvLaJvCsBHqg6JcjlrIKujwCKlldEXgg6cZQdvnDRuGvPONkcsw5z9OvZEtkT/Sd0xj85dGfSZsnnTSngRikqKeseqg2FYx32L5Zt+RrDp/97uH/S72tTfC0Pego5J0WScg3F0wS0oKG1BLGoc1/dvzvwkfH/jacGbwKQcIPYDOOmqEYwZqRN6b6hUomBvcXnOI9U4jK6mVgTGPxrLEjHfea4Rpufm6OE4ccH+d6eo5DS2wxObO30xsjp2mEMos+8eT5swYo+Oz+AQRQU5cA1yqp7tBLgQ8jAY8HAB8IFHicYK4V8lDas8vxLCEP4c79fLjqR0IegptDM7arJgwEPSenyxDq1O5zHrI8dGt+f7J4uAn7PHaOKMMV3YWNnWJGiGCyyvKwQBobyxc9FH9HvReuFDsOrZ1bBl8d/bneZu3u6JOAN/hVmJqJ43WaDiglCwq68SHMzyfyYyBfP/+fegnK2obxvNGjiOajydET8mg1sf4jdkJ3Wz8axzkI+r8PX5z6L2Gwc1j+FqnxKt1KaNVafffePXXA5ZITJ9r42v369lp4gS7tjck/aNtbavfc1IzDChRMipflVH2F1wHTMjVTKrWyMsHjyxbtjHioLwl5/MydX5Eavo0xwwYBbuPzXIlDw2Ea/BBuP4YxLRs3c4i5iB/424bVFtjqR3slDt+AJlyNxQedJYnDK4inXOI9Z3kqB2Vt9wf42a7HE9J6mI4Er8tjIT7A6ygS0yrQhbxdvx1CnHsxnRr4IHx28p8k5Ac7uNtqJ6JyOSrBhPHMnl2efXNCxd0Ji+uz4c9P/7fwVwh4vp9AhYUsQD4WLUkI0oJDZu5uMuIcuYlXCY9Yh3ZCl67CD39vQvvr0UsiXe09obWV3ds4Bl1UuRoAxbvM75y+dixCPgVPCpf2lg5owz165Z3L7Sjc+JUtTiRyCSDj5Elqc3wdWBoezYa7hMUEmyzmL0FIi18PZ4Zl14fQQ91wvxcOtXAFBVe7cPiEGhw1743yioZXpI1DM6fhpK4NvywGfuyc5zWE801IvZwVh2CYFzV8lpnC3onJq2tlC2/CbhBwzdApbvAyZferIxDTSYDrHAGLBWU+NTYT0EqHf0epIwx3TWjI8foEh2g+C+PdJ9WLKflHLrIc7Foxg6YG55JYn9z07YepP+hDLNxWgkNjeW1E2uDPmjFfHs3WLDiCq2sIq0hVMGratTUuKWR3n93+3vZ+W1LpDUP13giVz/uF4fAG7xcSQ1ps4d5pi6GMFn0MNh5syyvZ/bcPoLdL0HEscxsPQ2q4ukYUYPuFXdKEImFCO4o72QEKeJyyO6faFcM03grw8rRJkDKMGr3/aKc2D39fgWOCucbwCjFurfE4yFyGVtp4YEoedVvyiPcPuKCvSuu+8d6VGX3wz/IFlEZhjMp7l68MKcLq4UQ45426uaNqzwl9so8TrB+M/iwMQeD7t4yJmFUBzCCemxh8OHNZ6+25r7WQgCueNOTIYnsdCKznaAW8XpsJR3KdfFU1ygFtHmetvw5bYbBzRBo9J+4YIW+sjQKyqt2zfrtu3ZjcjggvCposLgQMhAU1ea6j59uxFB58YWoVGpJPbL0pTGTZzy4KH2YpG37I28LifepaMUIBum+PiwwYrKi18WTwY6AkpaVRWvq5ySObV+Z0T5wyWFp7UBJWKrfbz5Pg3lUQc+sRB4suSX+LJPhgkF3fEu0gBXuhdEEsaQ6Ck6pXxr+QgD8zdE27S1KDt7z8TuzIe6z2IXJbc4HbF6zqK1vfc3+a5fty019Fjj1z1Y4qgMb40ezNhSOpyVs1esuKTRF/Pv05LNHfORSGuydCJ4dtINis8gswHjHUBFXDr3GQ4PXsmpmt6haqb178HsNrhxrYAFh+DttQqPADz9TA+TBkbI1VwxTHl6vh+VlY5sos9C8IRpzMJ7oB3RPjZ42RYESzF69bjCHAoaSy4xjzsDg4F9I6sksVkWWSwx5IzIMuF8VwyKIQumI6lgI/RPa8eaI9OgH5eHL8Lb18+FfkUuiE4jHUNRpODlwKl8c+Dx9AyPMj3PwYt3+knrCyRcOTbJZ/dAK5rbEhqgEs344Ukdm15+EW31+Y/lJvUNNfNFFU8i+pYQ9OevLBaRRvPhxRIR8bjuyoWNZtSwXduS2Nz3OJXhe0Vy7L05frFQHxGTXyE5mGyNIDMahKcBqqHAcDXtJNFdwjlio67d55ZGOAd0FIcMiAk3j8qtZgDz+hyInpoLdkuTc9BX3WQFB42kljM/RDrsoPiGqv5S/Rp5/8CsaPgqzuLvoX7ALd1UbXqY0H966kEVXC0Q38cvrEtPKwMPnRLpN5mR/+LJ9r5/JFBMWJsNT2ixkrnPH4MCEVOXzEVV98g/Xi2Gfh+rG/1ZLfY73cD77XhpcKvzwTWTK/oq0RYNTI73a3QsEYzkGwVXb0mcu7c9/qYyAvlqDFc3krmNhKXshRNIu9KsBDmg1HdEweYB3LwomsyPgcrkFNk2U4Hs8JLb50w+VphQRAxlLwgl3+nkch2m5LneBV98MyMdwagJWVG121xqGbAWiNQxIsvgcKd/XkskPObZhOFOkiMBcad8erW+Z+qjlHWsrmyG2Hgdr7InJhwzPKnLOCoUoYWVrPwUNEFcVzf8+Ew4cmvDgEM9A5Gk5Tex/l15x+Du39WhjtOYF6iG+x7sJuv+JVGgl2ty7ISR/yF1EMMTtfSHvOj4FM/TE8WripN4/FleBTCnPF4gE0s/cPPK/mxZGeeGVF20/WaOcHHri/epCQH+oaCx1tXKkA4SVV3pOT2fDnWYCDWob4LYo4RWfk+oeKFH/+8hSttXdPYc9hrEHQhYYrktj74ZindYJLUdiLEEyhxkSIxrTqAMQo+XUVqCCeos2AuBruiM6DgE/wFveIMRtvLt6JKtwEhRmGMSAWBxCrFPIQn8BqKe0aSsaIpnMITmvuGnl28IrG3vmS04n+i9qGo73UrnybGda8SMCaM8Aw2Ug7WPiOw1LZti+gkJ9efaztL2xC3qgPq+ol40kaszYtjq4mD6huCzVMG5lGww9wdLR262USffibk7BVzFB0xAZc5BZZzV2MWb+whrPrbr0cMZhChWO/pAcFPFchcViLq3D4wpG22kX3mA2O6ZjcqANbTdbupTDkXxUsh13U/ffM4z1CgpnG3fFctNlYOR/qds41cbrzE4/mdDoDCrBQgkKezxXG7Ch1hqHucQj3q+EKtPer0N7PUXvvPak5En0n19PmWTQfVLa9acYjyW/2lvgi303t2/9o8Uctj1Uc/YiYT0xD2EPS8y8ENBGOrJC3xhaPsW5dH/Mq5xg9u8rWsPrEEBYDR0Ti0AQT+09gZvY3Z2arZ3iJjQbVd5yXxAoW3ThxtQ1X3lAYaaK6rVNar+UXTQu1ehuRtqxwiJezBgZ6R42ZECXlzbT6u69sfjo4GFfoDk0CR0Q+wc3mAl7e8qc9KwugONQeLcCMn2K21Dg5BMY5j7HeU1oaeXXsi3Bl7HN98INDh9zewegWryNrzKwJIRoDoo8spGocSox04HF7p6I9hPi1pztz32pfIS6kYFyLw5ys3+Q87nVDh/eoYi02FY78xKut17aK1VFMZC9IcTdECrLhnuP6kpReMHGmIYfoz1S1rGGu3K86tP6A+zNiiPGN3b0p8Gx2+yGW9aEVlxu6aWsBCPvBzjHtz08h1d7WEbYCtXpuFcCNuyTmjG4C3NFutKSJD02PAshqlwMYJ1oPAC4S7N7owwOo4fcTb9SDM7rEo2S6vEg35kO781s2UINHIEQR6NjV1hXGek6F88Ofhg+P/SZcG/+V9oLnA5T01Uov34cIxi5vV8vPzQOW0Xs2BPnE7cVyb/PD3OXF8GTpTvhu8t+1GRnniBSqDIz3DJ4HjIhoxvIm7NhMOKJC3uqX0NAcK5k+ajVywLUDTcB2quMKG34Pky8H8VukHseEn6zZsYpzMhTt9Yp4jzpF6kTpZSE4Zppo3tQI0ohDNd0d/WGgc0RLULlpWDuEFleE8EFJ3Ytj9dS4+IsJeTB7IccqH9wK70Z3BI/qK79P5IKB13Q+KUJeOBSDGFfxYY9UVJgZHJURuEtbRLSE9lKHlj+O9JzQLqgXhj/RS02XRz7TVhvku1x7Vw6RFmbPc29OeMm8/AajLGuIPy6Z5Jutd2bs84pz61NZqM4xGR+m5gfjlePwrHNL0+CICnlUpOo6VnnUwAxm57JBMhaHGijsuaqEbxdme85HdU5pZWUC84shylv+jYDCbapBqWVYSWjPaJYhOhSPLvtpshA04qTssd4zYbTruLYD5iZZFPBbgV+eYvxcI3VDSDyCtszVjAlMOtx9MLDrZNcHihO/di9Fwx97IsWyFM4Q6P7jdgOcNOXWEYPd4+HM4OVwdezz8PHE34ZLFO595yD42XOkcGd6F1gA78Ezlm/maDqoZCx/VRGNulmdgFf4jQF+XvH7qT+EmbXnWu3FGOozxbSkoKUhjxaoFi35Jaou1hQ4whOvhcqkVca60GbFEX99BWh7XZoptS2OzdsLUtagGTemkE2KWoYGbYKgQ/G+Zceh2peIbpzYhEQ7aPWkD7cE5hCXtojoGNIXqPqg5dPd0dbJcZ6www3AKtugGVNaM7RtFeKYqzJGmBzuY+eDAa+FK2ZMYVen4JDw4BknPzKaWb0cDvZcbBlqV3tXGOoe026RZwevhYvDH4dLox9r75mT/Zck9Cn8iy82OXj16vIXr96cMNG8d5nJcVzVxZ0luU/83dnvtAeR8RLixGRR3JuxhDrZwWDWgkcT4QgKeRfkrNDqJpO5GUGRuB91RStFOPTAYRvtWc59bdAIGZfs5LnYCz+FHKm9FZz1DBbXbt1bQGwotAJ0SW7JxHLB2IlplIMgevCPSJzH4OobPiDHe09oSWo3h3KgpfJdBH4UhLTkEtVq+AUs35zKdjwIZHVrf5XZxUX0sTqPDyKT67BDplNbZO+lrbVNDzX2bvo6B8N430m9oXp59Ofhg7FfQMB/qu0JJNz1aT7uOxOvYCcgWvIKiCbSJo/YZLC2SvhDkydjiRYtjOCbrffmvgl35uxDN9wt1BSwGF8JrB7ppTH6mGmRbqrnJsURFPJW4WYjrMYrsQHpp8qH0ZmMxhUi0DjhN9Q9GoZ7jmmc2dJavAK/CGr3tZ51jOxOec8iiZWLZ/vFlkF/uXH0eEDBCuR+fAmltaVdgo4aKpdccpXIaPcJGU7UUru3fYIq2k1S33WV9kuQtp5xdoEDhV3VymzIy5evDHKBBC5BcEtAbwbl5cqj4/1nw+nBD8Kl4U/ClfFfakjm1OBlfXN1AD2cTn7gRGve0YNh2vxCseygPjIv3oGuAxrlcYthzYLIZ7LiKIuoLiuX6nJ3yW8nf69P+nHXSQuLCgnhZ9GPZxwl+PMHgbIkioRvIhzBj4Z4RebMwqe9iRTbXJh1zVCKdv7pZlebn1T75Zn/HD4/+U9hpGtCwsvikq0KYrDK4tdrHFBwqUzx1u1khbKjCm3+tMbyigIoM9NmsUFb/gz0FVX1LgK71vNr9vFufsOVmtgcNLOlzblQ5ndmt/mx7PhBD2ho/A5szDhHzNpOfp23By9jYjvWbs11rRQE9Ub0RqCxt4NH2HPhthjW6xvR8ttjfae04R3ndIa7T+phZ7TFwf4RbsOVY/YU8rJmboRxNz2cxbXKyM1RAGnD7+2WtWTyy6f/I/zh8f8nzKw9A12oxVuNsX6cKk4/kUrSnyaexOsWV3CmbyIc0W+8ss7tp3fhUPFGBFR2bM2FajeAGXrR3b4y9kX45Phvw+XhzzS5KD5heGSOXBjAknNOPNcveNt2l7Q52+fi2VBoDl68qgiW1mygqeJYhCxalhy6OgR4eXtT+75zZ0sug+PHuxfWpiTs+eHuhY25sLwxr4+WcJ+cbQh+u4Kj2vXuYPxBUIwXKaEQCVkqBZxA7dWQFA3H20c5LIUeygD4o799OPS28YtV3ejNdGvYz7bJKII5+hVieXSCD/55CSP1JajgawmAzNLkMEpQyC+sT4fbs1+Hr1/87+Hm9JfgjwXURU6HGDOavegT/STkDfJJQr5ZYBVr1Y+ftE3zt5d36PLKtubHsXmuB+eHv6+Mfh6+OPWfw+mBy6GtpQ18AYGG6CbgLVdLLg/A86pf2F37/cYyCNX3npWoGCUDPbMYsMJ4HPcmGBStehLwhB+1e36sY2VzHhr+ZJiHkF+EnfuPuKDn5/j4YOAKCm4/wQ97sNvu2j6Hebjni+XrDTi7GrDrpneB9clYLSXp6Jo7aCtBQy91agkttXWe+eISP5rNLQa4dJRCnh8ZH+k5JgHf09EH7b5Tmn425BTz1i1Fr4IVsPsubi1BWAmikOexOtERAdsmtHjU8+OF2+GPT/437TTJfePJC62gdBGqffIBaV9LKyOoIdpFUq+nJsKR1eT3DQmNFmhinfrM2m/P/l/1HU1u1sXxVDERHgSKSkdkluZjmfcLn+jmslU2XApvfe2pvBaWIOwXy7NhdXNJH2fmw2AZGpx97WlZL68xPr/Bur0NgY+Hhs2noO70d1b3WrE6zRs2BTD0dgp31CmXOVKwU5hzKwEuo+WKIb4vwUlUfVQF7j4Ieb75yzXv9hCwD4jb5Hy14EnYP7zWKOQrqN8l1PnN6T+Hf3vwL3rxiQ99hlnEvO0lGJKQ3wdsrHpHbyB+euy34eOJ34Szw9fR2PtjBDtImIDRUgN/G0SRjIO0cwhtfntWn/SDMOfSOX6qj259so/bHiN8g9o9P98Ht75iBUHPYaFtju1vlyXyKQfsoR0giCnQoam3tGuSmBOmXPnT0dalYRjuX0TNvZPu1l6Np3NClUKfWjwfAIyriVMJGP6TkHk3sDqyoypND3dNtr74Xfjmxb+FubUX1tYskkHkT3XgSEJ+H5DYgXDgUrfjfWfDJ8d/Ez4/+Z80uaY9WzRWyhPfrSMo5BOzvTmcNUF5PWAzV/bAZX3wIbCNM1flUJvXA6C8ahul7WzGdx0Qtkn3NqqE6dnrso+iaIkjtG+Or5cg5Dsg1Ls7eiDQoZ1DiGsHUjwANDLPVRk8x5/sFDLSHi1PMwl7gfVGFIdF9vIz0J+GA4mc46mE6ZUn4cun/z18+/zfwuTyEzzMV+MUhfWiCTXFVAcZkpB/TRi7gXXAkPy+JrW5q+O/DH9z5n8N54avaTUFNUFDZLij8FX89wg2/rzdW2N/FUEl7rPhnvwD3BQO8t+2r1hJyCM+tT8KFu4bw8lQGzunZt8KzZzj8Las8VXXdDA/wuY1UqW/HpxqTrOcbtbWogN1xPrjB9kfQIv//cP/R7g59ScI+DXVrxAfFMKuh8XRxhF+4/XNQKFAoVGG1kgh0NNhY7Mcq6VwMHatZtiiNeH1UK3dFQlYtCOOopkf49JQYGs8Hdq5tkRu7dYwC4dY+MYyDSdF3W5DMFz9YvFNuLdZ70wXsHupvvbLYLWf8Loo0nY35ZyafGhPrj4Jd2e/DnfmvrIlkxDwtkUB8vCkqrOEIlz1TPgJkHVK0MzJUhI8EELz69PaEOnp0l1pFRRMRZHAbmQcwUnYJ1xg56C9lphwMw7+orsOFk/DKzRcc0EtPRo+iGWiXXFgWuCmsZdkij0wNhFrJv7gIVTXBbddtZAs4RUg3aiBO/12U47tjHWrKsWP8y3PFm+jvX2ldpfFQYSsHpI02xOJLPsAWc7kjgmRdXQf+Q3JZ4t39Ho1BT0lDaM4+yYcDIrPg6pnA7FHZZjwAPSQKCagr8+pFLGXD/w8IwoaZZjw0ygSinTdTVuCvhTwnESfWX0Rni7eDS+WH6DdLav9WSrm5Q8DWlMl1CIJ+f0gm7AzcK0213A/W7wXHi3c0Is8qbEfHnbJa8LdhTrZq3oYTQ9xGbPXotizqO5lFOp8r8wTMlgPKDoipV8JRF5cnwsP529pO+HlrUV90o+E1sZ2NrECtxllnQR9FZKQ3we8+Rextb2h1/HvznwXZlaea7LPuqL2MPgJFk7YL6raLx3U9excbWpQqIhc7zOTC/Ri/Ub7HlllwwNZnrAUkyW8FPkw3CsIBfJazaAVaROyp+Hu/DfhxerjUObHQCL9PU4GOLSRWZVnQhLy+4QzEfmIzErNfmF9NjxevBOeL90PS+szmiT6CTZOeBN44y00Yhfw1YK+ADir273ZKNjdVIM+JYXsCgLycfh49oqm4OI54TWQEU2uKoC+qkuc+UUx9o6fL98PT5ZuQ6OfVntjKqsGq0E6qnO0Y4IhCfl9wUQJmci2QgAz4c9hGwr3hws3wv35G2G5vBiZkMyqBAnvAqB1nFeNsDrwnwVURaiyGtyjGLc6kny83qqDTJYrkMZ7bEXjYQn7BsgmyonmlbC8OYf29EN4NH8zLK1N6w1otUBUgn/Uh5GVJgr64mR4giEJ+TeAWEuMSBiTcdL18eKP4e7cN9o8iS/diN+yeAnvBKRpVTsGgTPJ72Zv5Ml+Kn68SE3Q6wuQvfJMeBWM4qS52fiG8sLaTLg39314vPCjXnCLmlOkLh7rUrRg0yGmJ5Kgr0IS8vuA9EVN9BgjOltRoyhXtsL06rPweOlHnJ9qL5XiJG3COwBJH615e2Yd4FfTsOVfEApKV/D7SVgCWQlPZyfP8WUm4VXI6qa2LkS6Fm1DwTeWZ1Ymw6OFO2ES7YlDoNLe84hIb4JecK9oEnIkIb8P7M1A5C5o89DcN7ZWtMf1owWuBHiorXENEkP6eS5mT9gXYkMuwrrs+bmIvfzeFNXXeZVJ+GlY79cGWAxuoyJVrmyGF2g/Dxdu2tLkrTW98ZqnqzaCW1IV7EIS8vuGjwFGI64iu9q34LlD4oO5GxpH5P7o3CCL4dU/T64MEvYDkttNxOsKePrt5b8bHqc67uulTXgVpMDTAlKqDWRNgG3ItqVQG1q4AcNvti5Ag0dkmHx6NaIFgl+9avdnC3zdOj46SEL+DUBGIow/fbKNzFXStrjTy4/1gtTU6hN9kqyCYEvjR7OZC2ByywxwR+aRcCiIdZPwzmHiGoYb+WVDn2xJO2GjvBxmVp6g/dwNUzhzwznbuiDVx5siCfnXBhgxqh1iS2kX7qLbXo3nhBG/UsPu5qP5HzV8Q+1EbKqoTESXpTMox/hLSGhSiLmN110vd7dEf6USZjnciV7w5PIjfSSGm83FhpbwhkhCfh/wXmAuiE1g6x81EsbRV+RXX4S7M9+KWem2ME9Ze455mC16y5aQ0BxwVncu15evnOON19lOnq88CD/OfR1m1p/BXc7aXMKbIwn514ZxW65/kGuNc51NXTvnhP9KeUkvcTxbuqfP2GmNr3oClr4Ixs/agLA7TkJCw8KZO2P/qMdrZQzs8Gf7mFufUnt5hnbDL34VEiS8BZKQ3weKHUwefXBFsjubQYIvrFzyxWEbjs0/nPsuLKzPBH17VHDGzfNj3hYKv8TXCc2EanbPIH7HgXvCL2zYmvgnaC/5ME3Cu0AS8vuGi3rybM617usvaNCHk0bPoZncmfk6zK5Z9zOyNk41HC/s5ZeQ0BzIe7+mIDm3c/uCmdXnaCffhMmlB2FrawNhsZ0kvDWSkN8HbLjFmDN+DM54NmNIE/A+9s5JWE4kcQc9TsQulxfiDnoE4sRkSiPj+SQkNBe812tM7/1W+2Qjh2Ym0T4eL9yKCxW47JgtIuFdIAn5fUCC2HgTBi6ajBejnkJv88C5Am1+U11RbmD2FIZ7YWcMHx8GPOUC3s8JCc0CCHU2FTA61SD/kdP5ST+2C25dsLgxHTYrG6Gi9e+WMuHtkYT8a0OSeE+QWWtFtDE1LbavzZPF2+HB3M2wqLH5LTwMPGaEnJ5TTVhCQkPDG05sEGgY5HAuLeYuk/xu65OF22ETAp/go8DePknt4F0gCfn9gjwarQYbvqFmYq4i4AuGLkObn1x+DG3lpl6QWi0vicHVac0SwJJ4OqFpUdtqttEOFsLkCtvFj2oXZe5Pw4+pSyxVx094cyQhvw9kMjjyn2njbnhCgCZU3ZDA/qX55TC18lTj83yTj6sHYjZIXdRZ8rQJCc2FnK/1YW4IeO5PM412wWEbrj6jUuQivtCyEt4CSci/NnwkMTJqCewHIV8rnu3LkxaHndI8fEefCrw/dwOay11tuuQTuXFQHs+HPG1CQj0j5/pXYXcs4/gdbeZnQ5g/qF3kcTlQYx8GiUsbEt4SScjvE8akMDoUhD5AzX6Hk0aRYW0gB2IbJ2oo3BN7cuWRXvbgix9cYmkPAcbzfCxtQkK9wrm7yKm000e+CjAf8y0AvVoqODN68ek+2sPDsL61rKDsjfCYvipdwhsjCfm3Bkn4emTk8smlzbnwAkL+0cKP+riIfc7MHhUu5iOXJyTUKUwAR5EeYT5R+8nOHsOO3LpgOyxsTKM3e8eWFW/M68tqWQyd8tbg6RLeHEnIHxiMcSuVrTC1/CjcnPoPvShVhjZvrJyLeBvXT0ioR5jYNW7eLYg14igLv5NL8VLk5R19+H4SGvzt6f8I0yuPtV+N93hz+Z7nWEyd8GZIQv59g/wqrcYZdkfLxvjix9OlO9BqprRvh0UUhzNSQkLdIn+nw2ByudAfzVjY3ObkG+Cb6r0+XbyrFTVsB8yKU60+H+UtxX8Jb48k5N87jHl9QolczZU1yxsLEPL3wuPF23rjzyZhIxJvJ9Q5nKszVpWlyLjQzyNL6wT+Xtmct5cCwfeL4Hm9/a1McNC50AZoLTgT3hxJyL9vOBNXNYCgTwM+X34Q7s3dCHP68DfXzSe+TmgEOD/bmLvz7V78a7o5FJudbfH5/bnvwzPwPT+u45G1YIFnHPJWYukS3h5JyB8AjHFxjF1arrThhCs3ZeIE7NTyY21NvFXZTmydUOeg2CYvm1A2Ic8eqtsVBOTimnvRrPA9keUn4cH8rTCz8izsgNf5JTUDtX7X/GM6nSynhLdDEvIHgIz1Kdzlw/OOJl3n116Ehws3wrPF23CvxQpJzJ1QnxBnFtgzH2Gx6dNMtNNfgS1hc2td/P1g4Ycwv/4Cvdg1BOeZlCTgzc1hS/sR+YMi4c2RhPz7hqk7ewAMDP91aPDc7uDh/I2wurmI6NTmmWDPRAkJhwzjTbK1C/h8gpSCHp7yt7O0ePD1g/kfwOc3wtrWkmLm8jvLJEP0AZKQfxdIQv59Q5NK1sW1HQ/Iws7GfEFqXfva8GMJc2vPwvrWChqQdX8TEuoNYmGxNHgYFg49yi/y9A6HJBkBPtzOg/w8vf40PFm6o20MyuB3bVxQWCbsOcSMo5teubhPeHMkIX8giExckO/S1uHFCSmOx0+tPJK2M736NGyljxcn1DskyIGCsHY+18gLrNwrfhqKC4cj+aY3N+Yjv5sYRwQltTTREc9uT3gXSEL+vaOWYU3ncWOTTzthfn0q3Jr5Uvt5cLuDhIT6xB5CmIzsQBBDKejXobU/WbgTfpz6S5hfm9YGZMb3OEJL36Wox15uUuDfLZKQPyCoaUjFKXBwbCs8cZfK50sPNGwzs/pM+9xYk0hIqF9kHE2NHhYJePw2tlc1/PgUQv754oOwvrkK/udAjcUwdd9AmwY0Y3padE54J0hC/r2DLBxN5G9CvV3YzdmibuzyxiIE/cPwaP4WNHtqPvwMWjVi8oSEQ4N4MPKuZDsN7BqCgYV8uwT+fbLAz17e18t+lR3uFc9IZHxEq1V4CDn5iEjqzbtEEvLvHc7MkW2NxwvOyNL4803YqZXH4d78N/rwd6UShXxM7u/MZtOy7P7KMDhGSkh4XTjLkH/IR/G3G4WIMdyFO+EsLcBBIT+79iLcn/8+TK0+DlthEzyLnLOIsEDYF/V12rm1geVelWPCWyIJ+QOAMS5B5o2TTvKMjUZajTH44sZceLp0Vzv0LcFOwZ+DMbhrZUwnEwGruQp+CQmvhcgzPMngULCblcccdJuYNlEtsYwDFw0sbsyH5+DfJ9q+YI4hkOmKUUCt2/Ey/4Q3RRLy7x0S6Vm7cVQxvVsRYWt7MyyuzekLUvz2JdcYs0FRC2KD4t5+JuQ9Px7pZ9dJjSThtUFW0UA4+Ef8hZ+YKueh/EM27sdYJtiN74wLpZmDyVc3F7RKjLy7sDYdyluboaWSPv9xmEhC/kBgDF7L5nSbRhTD0MLYUNbLq/qw8d25b/VxkS2OzcPf4sXYalvWwJRWyG0JCT+NKKCdp2Tdi4dyoV7kuWJM8i0/6Te7Nhnuzn6tXSZXN5fCToVpa2MnHCSSkH/fQJtgA3gZTHOiBf9oypWNML36xLY7WLobFtdntGOf6/H54KadM+fLL5OQUIMis0QGcj4iYLcYtQIeBgxH34wXYbgmfgEKydPl2+HB4o0wtcYPc0OLF1Mrg4RDQhLy7xuRwXePSTrYzWXTsZ/Fr2hfm9mVZ+HW9JeawFor83VwNrI8H2lIMd9M0CckvBacYXLGkQinM3rxrVazKoQ+0RSPFPY7etHp/vwP4dbUX8Ls6rOwBf6NjwEk5VIBpk84DCQhfwAwAR8bSjbsQoOfWgEAfwl5Ap78sbt7Z/abcGvmz+H58n00JO5tgwajxDjYX4Z5J0GfsD/kDCPOy1g0WgQ7Z71IonCq4LdSXgjPFu+Hm9N/0RDjGvi2hB/5njzNONJkEg4FScgfBLIxGVgzqe6Igj4KdsXEgQ2qjC7w4sZMuDf7bfjq+b9qE7PN7bXYYLKFlJZGTc7tCQmvC3IMuK3AOMaF5kE+dOFeUEPMDj7c3FoFX94M3zz/n+HB3PdaEcaxebKoy3Xydcwi4RCQhPx7hzeWYhOphQl4PysWtSC0Eq62mV55Gm5MfQnzp/Bk4Ud9YcdelGJMSycrTGpLCa+PyDQ0kXfEfWIn59bIX4R5KKSyswUNnl96uh1ugS9/nP4yzK49Ddv8KHeU7jF6ljzhcND6638+/9+iPeF9ocDktZo8BXmtn7vdm41qa7sc1rZWwvr2Suhs7Qo97f2h1NKmuPkjgs0KtursEhJ2wyUweEVc4zwT3cZEboAd4zEK8G1o6twy+BE0+K+e/1u4M/t1mFt7rn3jLS/EjHypJPKjLeaVcKBIQv69gwwfz5HJndWz7ixaQLTugjUO+3zaxvaa9rjZgrbEh0Op1B7aSh2htQRhr9iALJkrIWFvRBYR38EugSw/ieRo3GbimjzHPWlmV1+E+3M/hJvTf5aA50QrhxHtA5YBykcU79x8zxhYPJ5wOEhC/kAABneB7haCjaHI/JT6mZMNxUZEHZXKlhoTv3K/XF5C2lJoa+2AaTdBn+WXGlTCT8O2ETD+MjakmyO4xkPORWRLKhmrW8vaCvve3Pfh2xe/C3dnvw0L65PS4E3Ak/9sC7IikoA/XCQh/94RGwxOJn9piWcLkYZk9hpkjQNnxeFYKDR6NCouqeSqBg7hcMUNh3C62roRM9eeEhJ+CuQ/UyYo9M2HfOYcRBt5jhvmPZq/EW5O/cm2xF66ExY2ZsL2NnqViCe2Ft8hP2akDCwfTerKnXAYSEL+vcO5O57F9TjIyQaWQ40kepjYp5/PjcNHYVzKxi/urEKLmg7Lm/OhjIZWKrVIm1eeyEcalRpdEXu1ttQCmw8Z98TzbhRjeKxMSOPIrzqRrzg8OAdt/eHCDybgp/8cHi/+KK0e+r0EuNKLTS0ny4EB/rDA0SwJh4Ak5A8czu0FrpdwL/jbP4+ROaj1m12rH6BhsSHyy1JzGy/C/Aa6zuW1UNophfa2Tgh+Cn3CGlzMRGez0Y+G8LCExkaxTom969W1d4elEFdBhaASsRamVp6E+3PfhR8m/6Dx90eLN/Vxm/L2huKJi5iJMirkJj9341wISjh4tPzXf/mHIkck1AnYCIk4kpM1Gg3tFNtNpUWrbDraO8NA90g42XshnBq4HI71nw9D3ROht60vdLf3hY62rtBWakc2PuZa3cgLOSY0NIrN+VV1msfjcF+5Ug6bEOzU0E17nwrPlh6Epwu3w/Ole2FhYzpsbK9r6MZVhITGQBLydYpMyO9qUKZtmS+aW3wPnWPxnIDtaOsOvR2DEPDjYaL3dDjWdxbnU2GoCwIf/h2tXRD0Ft/O+OkBkhpuY2Kv5rubZ8ywJ2j8Y+eKBPwmNPOVzQUI9hfS3rnN9eTKU2jtk2F5Yz5sQPhz/TvjGxKvNBKSkK9T7BLy1kZl4Y+gk0LaNxyhkr/TUgmlUmvoau0JA50jYRja/GD3KIT8OMyx0N85HLraekInHgYU+B2t3dLwW9Eb4NK3xAyNCNRaZBOrQHPYgArtXPuyDUFNsxnKW+Wwvr0W1rdWoJ2vaF5nbm1SQzH8FivH4Bc3Zk2472yJv5hL4o/GRBLydYpaIU/NyzTuXMjzZH5mF+BU00bDLLW0QuBDYy+1SLAPQJunRj/UMQphPxR6Owfh3x868UDoaOtA/MIkb0LDQLWleqeDLj7w6eJKK/xh+IZqGYJ9s7yq760ubS6Ghc05nKfDwgaF+1RYQxjjcdJVb1QjnbKLF3BWS2gsJCFft8iHZHZXUEHQAx7PwJbJs8XRDy21Fdp9JwR9V2tvXG4Jwd7aGdpgWvVCFdc3p1bciIgyGP/IEzr5A5sB5IGKtPLtbQh7jb9vSJvn3jMbW8tarcW18JYP+YBKgvEDs0u80bhIQr5ugWqJDc60smI1WZgmYSO8EbpXUeuiF52MI291v2FjpBixeExoJFiF82HuyHp3BLzzEFW9uXFoiczCB4DG5+lg0phgdz7em0xoJCQhX7eQDo4TxPFrNCyLSxu/AYv4pZgG6fMKZu8AMWNU8zfb7vcUExoBWd3SklVhXrM82ANdXuYnp/8KPUYEWkr4Z3kBe2kOCQ2DJOTrFhLb1kj307iglVki764T1oBtrTxdsd3GbO2UGnDzwOo5r+Ji3VpYDncjjnqMEZnV+DAPKeaV0AgoSoKEukLUtF4h4DVcU9tmJdwL4+uKw242Tp4XvBQLjToxQLOBdWz1b0fjhNxEH/KNeAd28UUxVDEACHh5Q0nQq61ZooQGQmrjDQw9AKw1ZlAzZKOUwxquxYGgr3ITiCWV3k1Cs+DlNRpDCqxgstuG8grMkYUzvnhHGRbCExoCScg3EPQCi4Qymppr5Q76xzBpXrExVsVDsOl3qPb4gFAK+SfTiGY3WKORD4DcRlS7irnkednwjGLG6FLieS7ESmgcJCHfSMjapDVD07yiiWEWHMPkyJHHdzCBmZrckmkQY/XtphhCQxTrtsgBJrLdLUWdBj9+wNt8EQsnv4brEAmNhSTkGwhqbBHS6qO9FhbPQrM4tMTWaj8Po2dig0ZFXoc/BY/Ds9mdBzS85z0+nCxPwh8QhfCEhkNq3Q0F7zDz+DLjqLG/spHmzTqhAZGNp+hQMEQmyuWqhWIx+a5gT19AEvQNiSTkGw6poSW8WySOam4kIZ+QkJDQxEhCPiEhIaGJkYR8QkJCQhMjCfmEhISEJkYS8gkJCQlNjCTkExISEpoYScgnJCQkNDGSkE9ISEhoYiQhn5CQkNDESEI+ISEhoYmRhHxCQkJCEyMJ+YSEhIQmRhLyCQkJCU2MJOQTEhISmhhJyCckJCQ0MZKQT0hISGhiJCGfkJCQ0MRIQj4hISGhiZGEfEJCQkITIwn5hISEhCZGEvIJCQkJTYwk5BMSEhKaGEnIJyQkJDQxkpBPSEhIaGIkIX+g2NnDNCOavXz7wU/RYq+wn0rT7Diq5X4/aPmv//IPiaL7QpFcLfG8F3bCzk7FmuqOjjFlTM+TkrfopzNOcrUUnr0xuqLsgd3Bnn/0iSde3a6zNywV40RkGbuPexB5PipaltrLzDPyQlr+SiyP7EQhbTznPtVg+K6wXZ7uYEAx0HOnba+Se3hNiAoEv+id50hbMU1NOqAYyvLv7GzDz37ZHSCSx8vQQp88XAc4jX4lM7sul5dpV34FeFh1bJpChjVOh925pW2RzbFHZMKYAaxn4Tp6sixJ7kEbDYM8mPzDn/MOfzmKds+HKPon1CIJ+X0hkgon8jFdOxCm4mk01JYoWNWoIdhaQ1toK7WH1lKbTEspJgIYk1aKxEplO1S2t8LWzlbYrmzBh8IhRvCYURB4OoGCJGv9vD5OuTPGxjV0MkFjPiZ2dO+0w9Oac6Frl10E0DXgwUasxkcXj8yjwhiwtYT2tq7QXupAWVvhspy2K+Wwtb0ZyjuboQKhR9hVafK0dl8AboaX3lFh4lXox+tmQkQnwWheQkzQjHXgOeleGd/SMlM6FSonw3CM6VuUlm4G08Z0jGPuoHJS+DCVpcnq3vOi1WKHtpa20N7aqXovgR4U1bqwiowz/n4PCpIHLcwdXIFrV3DNrQrM9kYow3j5mIoxmadyiPVi8LPlzaOFIbYcVs4MmTWWl4b3AUO3ckB60p7p7PoIj/FEf12S7lgiupXGvC0CLDrFMwBq4uglUq6iWwk0Y04s/w7ag9QGT8ayKOPsZNfTIWEvJCG/L1STSmxJ5gO3qR3BXpG7JXS39YehzvEw1DURhrrHw3DPaOhq70EKCD9mI55sCZvb62FxfTYsrM2GxY25MLf+HOepsL1TtkhgXms0MMw7t2ZQ01KYNTI1MJ4i4zv/R5fFIXYoiM3Fo8qQh8Iarx1hjdERA9D62Bg723rDqYErMJdQ3rHQ1dYdtvHgml59Fp4t3guTKw/DcnkOOVDKeaZsvCY47E9/C4v9ATVkCTN573F9wBs7veyxwXT0hAejsWBwij7MiH7yMLddtzpvCRXFc8BDeUaot8UITG336j+K9NHuU+HM4JUw1ns69HX2W2+GYBaFe7AHiecjL6CC+t8Oq1vLYXrlRXi+eB/0ux/KlXXcU6tFARS/CkUfowShKygI18gqlHcaj/jr6gqK9QFjpTHQ5SkJ82dM881iMjtm5ZHpTRMraSfyHB/LfPjKF3QlX7RCwI/3nA7DXcfCJpSDpY2ZsLAxjQfcGiIVMqSV17AsLY8sPKEWSci/EYylaYzfjISUAa0t7aGnfTBM9J4Npwc+CMf7zqGhnwyjfcdCb0c/GBNMXuDHja21MLc6GWZgZmEeLd4MTxZvGHNXNmIsa3A8W1K7XpZRQfhUotAoNj+LRzdz8ZxocC8xbZ4DGrMSWmpqWxYfR+adRYz5Iz0FUl/HSPjk2N+HT47/FoL+AsraBy20HO7N3AjfvfhDuD37ZZhee4z8tpCO11ViZIn7sUshy+q7tijxgvSOrdoElSeymJaOOjBdECLwthgWYlqpx5QPM2IEWWVUcItHMFh54GB+sR7wLymuBShMefGBt83+Wzg//En42cn/Q7g48jEe8OPQUE04e/lymG8VUGYOWSxvLISniw/CvblvYb4GjzwLa+UV0Ju9PaSLtyBEp4F5Gkg+qzv8ec/kPzglskUTe5xaTyPGZf3Qpmx0qIbTLcbOr+s25ogQu0SExeSVmLHVFDgBD78SerudrT1QisZAt48g6M+E2bUptIVb4dnyHZR5ATHzvDNrBMOyyyTsQuuv//n8f4v2hNdCZGCAvObM5769nUPh7NCH4fr4r8L1Y7+A/YMw0jMBbW4wdEC7bUMXnkMa7WBsndu6Qnd7XxjsGkO847Izn/WtFTD3EtoDGoQuoWaZIb8H+CoCmyl+tMrwgDSMBjt/tFI+mlClhWeDX0eCoACmyn2QwCJl7p0WNFZo8l1opCehxZ/qvxTGeo6pHNTMFjZmw9TKUwiop2EVjVW3oxxpmB//lq8Nf5i/xaG3IphhGRknD9VRKFqRnYkp+/GaKgUESqbJIl9lHfOzFIbskjGqIIfFpVKuIGRswz12BfNk1BLq8kQ4M3AtHIMmP9A1gp5OrPtW1DlMW2u73OYHXoj+CiNfwL+zrQcPzyH1BAfRO6pUttAbmsfDkw9/DungXvxG/NqywPDeZMWB8WIIkdUoCGW0558/loMgd1kc5eHlVTjj0+V0taN8zDv6mZ0HnSJYN4zHfHlmGxjonAjnBz8Knx77u3B94ldhpPd4WNlcUS9weXMGWv268vL8PXuB/tVXiCbBkXN2wr4hhoUhi5cg0Lra+iHgzoTLIz8LV8Y+R3f9MhgWGnzngMbmrSExoR+YrjV0tfeiIY+E4/2noPl9FK6O/QK9gCtgfmiASOexDXlTpEZUzfEMzVk+PxfiUaixhSGthk7sNmoaaHRkiMKgyq8aDOGUg/JxyG4edrV4H/KK9wP4vAIFusaXBRczjB7D45FRZOAyQaYAQ0zO1K7Vq0ysKJ7dh+WHM0ZXFp6N2xnG+QyPQ/BWPZ7546i8c39BXqYl60KCny2um5qU2TUkALuGxUfXwBMX0TsY6zkt4a9y18C8eI38OrQb/dwwjPWe99FyuN3OuneZeJQ3Dpl3Hu4pCOMvc5o/j2bcrfoBXTjMd7LvEnj+l+HD8V+Hc8PX9VBrb+uIcZ33LO9d2EWIV8Q9okhCfl9wRoVwBnPxJ00Opq2lA93NY+F0/5VwYfhamOg7KW2Nom27Ugnl7bKGZtjdXt1c0njrGrT1za11jV1XEIetexBa37mhKxD2n4YT/ZfxAIBmn/GtN5HI2BAueUM0jdokF42JVMWBmw2KHtJcIbmsJIRimYDFmULNhKMZDv9kE3AA5ZmNd1ss04Q5wspJws2wsb1qZSsvQ3NfQo9kLZQrZaV34aUrxTz9WgqMkACu+bFMNslrE6yZP48qm3LRvVDVruAkoxtmCGNX4GZ6asF0eb4WpvFxxJUL50zAx3vTfSt+9OeRaQB7QDHYA004KamS05+TqKAR+QCaqviABnRaFb2WwwoMeWQTtOQwGOnc1tqKnuAAlIAL4i8OjZXwUz3oWrzRvE51OdxXi/gB5dKZ//hj70s2HpmWk8iKAlAkxB4TgxSHYGmMtorD8MI1lS8ysdVV5qfyw89IxDTkE0vL+ye6Wvul0Jwduhr6e1CuVvgrQyRSfvEOdDZeM8AdL24hLEnxegmONFyzbxgHWbvHQRzFiccudM0vhAsjH4Nhr4T+riHF2YIAX9lcDi+WHof78zfC3fmvcf4+PF64HaZWnqiRk3XbS1yJ0WoG2j0ncNnYp9cKwxy6KARQZP6c/2HnfcDYr+DPM906WnoXPlkZdAcIwcEFn52swWZQfmYYQcmVFjY1/hYNMU2tPgpPFu+Eh/M3w4O5H8LzpXthcWMatFizywH20LG75c8FhuVcXcbactj1LL5lGO8h+giyxtxiHpYnvWJmOJMWOd0oEGN8ZWDX8twNTEjAJ17DhpToQG7Mk8M13cfDqQH05HpOhG5oq6VSCfW4Aj54FO7NfR/uzH0F2pAPboVHCzdlHtLM/4A4D/DA3IZw59CNrc6icNtGfYgnVh9rzob363Wok86w6RZjiVQWGgr6SAP5mL+lM1gx6GMiU/mJrxigP2C5eR5mt/oU3WjozfiWhQ7kLcuDFsRFvlRsBjtHwyUoNBzq45wV6bRRXgPPPAjPl++Hxc0pLU4gTXlvyi4e/eRwp+69JuwoI0287hfkYoGMRE6iYNjS2OnVsd+Ej4//fbg88qE0ck7CUYi/WHwcfpz5Otyb/zZMrT2EdrusCdr+zpHYVf0inB+6HoZ70U2F9r8FrX9hYy7cnPoy/OuD/zsEwC1dj5N9XGLG8e6O1h4NEZkGuQUNek29AjaGNjww9NDAw4K3yDu25XgbilNGo+G9WUm8PDuhFUKlo60ndJS6Qwfuj0Xc2ikjja1u0Dgy/NkQmYxLPze3N8I6rr2NX2/7gEwnutqcTGNjW9+EZr+xgF7LolaHcGims7ULgq9PAozLC4nNLeQDAcbG38oxaty/ltMFlkGiWMtL2Vvg/W/tQNPlclMEUADqIcdYFDawUTjxHtpLXSgPl3a2izYmKGyymFo16UEh397WrThc9hr4kEUchm2ibOXKGrIlvZizMsd1WPe8tvlaCOuionq5NPxp+OWp/xIuj36mORkK6pnVF+HG5J/Dzek/hcfLtyDMVkxHYFaWnQRfX8dg+Gji78KHx/4GD4qLoUfzNJWwsDYXbk9/FX73+F/0kCD9OXEZ7wqw63N1D6/XBjr7mH9rZATWiQlY1Bj4jD1M8gWXuPIaJkaj0YMXDwfEVylFO/Ig6QoeQf7trXwA2dAYQbopb/Ck6AvalVFnBtaU59GmoRrOW3xx6j+Fy2Ofae6iDfe9tD4POv0J/P+n8GzlbljanBefUdhv415jDcPwzELBTicP9IrWBEMS8vsAmZOamjiJjUagkK+E/o5hNMp/DJ+e+AcI7MtwD0gbm15+gob5dfhu8vfh4eIP0OrnJDi5FI6NZKTrRLg09Fm4NvHL8MH4pxq/5zXKEHq3Z78K/+8f/2/h7tw3ujZ/A524zvivwxk8FDiRyzH98tZqeDT/I7Sfx6GjvTuM9hwP4zAUDhTITLeGONMrT7Wc8Rk069XyYjYcwPun8BvuPoGu81Utg5RgQt5c5fBk4a4azVjvMU0Qd+FBQOG0uD6Ha94PDxZvhoXNaTywLoezg1e0moTLRTlMNbn0BOlxb8vQ5hGHQv4MrvHByM/CaO9xW1aKRsr74oOQD5/R3pO41ik9KDsgpKxnU1GPaJZLCqHhzUCb5ZJMrUBygcsT7stfpunvHAsTPefD8b6zoMmx0N3BB0sbyruNvJaQ13PQ4r4EEoUpr9sDbZITn6ug15OF+zC30OO6jwfzYqHO+ZADVeWkaHSxA4GLMpPm1E5/eQJCHsJrBNem0J1aeRa+ffa78O3kv4X7C9/hobZsaZCRNOZYF92t/eHC6Ofhk2O/hbD/Fe59QjwxvzYbbs98FX7/+P8Z7sx+jWttIR17ULg+7sV6R0iPB+hIt9GQZRruHhMvRCqp3pc3F8Pc6hTu6Tlo+STMbzzTw4y8IiArt7N0oikeyF2t3dC+Sddz4Vj/OU2yc5KYd0+Qt1dRT/NrM+L9Zyt3wtz6M9GIQzT8tbd0om7Hw9XxL8KVsZ+HEwMXpNF3tHXqoUXen8UDcW59ShPNU8vPoOjcAY/8qLx4/1Zuf7TodgWRkfcdi5GQhmv2iawJwGo2Htm2OBk20XtOSyaHukZDZ3uXBBM1+dm1FxrCWIKAV0NWSmjW0J4opKilsBm1QStag5a/sD4t83z5QXiw8IPS2dV20DhGw+cn/yl8fuKfwtnha+FU/0Vc9zQ0o049NDhE8AG0R078nh++LoHNrvA4Gjx7G9Rseddc3khN1V5QsiGGsZ5T6IV8rhUOV8c/D6cHL+OhMoq8u8IxCMqryPPS6CcajuL4cH/HCDTBLa3tZ+/kwtBH4eOJ34Zr478IF4Y/DCcQh3MVFM5c+0+hzOtwJcXnx/8R9/gFysB7vCitjj2YUdzDBxBwVyAALo1+qtVJLAPzGus5qftpRzkpdNa3l6Epgnags2pCf2iJENI9nUMa6706+gvcz8/DBxC2pAcnMY+DZiwre1Kkx0j3MYR/Aa37Z+H8yHWku6wHZXl7OyyhR7W4Pqm5Bkgguw4kKh+dhMsUnfSwIS0DHt7HtNKIAp4PFwovzlNMLj8OkyuP0FObUh0oJ8sSNuShh383tNoxlfcY6o0PHgraxY15PFQfhicQduQPu5ZdUz0gPEj62ofAg+fDxZHPQL/P8TDl+ZPICxfBCxdBy/Naxz8AYd3T3q90fC9jGxo3e0p66PNe8JNSAwd7h6TXib4LqNuPxCdXIaD5EDs7+IHyZf4ncG2udR/qnIAyYA8W5s182fNiedkLHUXZfnbyH8NHx34tDZ69DStKi+6nB0oSlYBjaE9852S9vIp6mMbDaVbtynpkRnprT7SznxLbqDJLIJKQf02QkdjQxFwFBiMYRo2TE6+jPSegydrLQBynpuDl6hl7C7QVjca61JVAbYR5BXVn2egfQyP+ceYv6Kb+Odya+TLcn/suzOEBwXF9u+JO6EVX/uLwp9B+IBhxTWnquA6X3lE7Ot5/BoJlHA8ZXh9p+MeZQxEc5hnmi1nQ7rbQ4BY3ZyDINqQBMipX81CYT/Sd0aoODs9wiIia+yiX8eEBo1UP8ONDaXljUXMN1ObXt5bwIDmrxj4EAdXRhocJBM/82jSE2mNpixTy7HlQCJ0fvC4NsxPaG++/Daa3fRAC6Fw4MXgOAmUodOCeWQBej/Tjtdn4h3kfuLclCL1VaKQUllY7LGtJGvy5wU/ChxO/Rg/pZyjT6dir4Vp1q8lWPFC7uaoJdTXWx17DOPLmMJjNjZS3N8PMyhNoug/1ENuAluvzDqSVqkOwmuFB/sibZxuTp5A/kQl5jslPgxbTq0/x4Iawwo8Pds41tiKcQ3gcpqLwvRSFMx82vCdqr1PLT8ND9CyeLd0NK9BwVRZcyyZS0cvDQ5fC92MtRfwFHtKXwmC3acikIYVjpBLy7ECvsV+8oh4TrruJMi9vzuNa1kNgLbM8pNsQHoQXhj4Nnx7/O/Qu/lYCnTzCe+PVWRbmzfqlH8fXeW095PAgWUZdLW8uKD8O0/Vp1dAVKR+trOdIVJ50VfAO28k2esN80L7Aw5HvWSyBZzk3QaqL3PEu6Sj6RUsCkIT8vuGM5DAXmZvMSs2IyyYpjCgsKCgp8KnpU0BzuIMPgnEIFgoCakdd0GI5Pjq3/gJC4ImEwOzaMwkCaspiXlyGjYj5UmM+Dm2MS+z8QUGhyrXYHA+dX5sMT5Z+DE8hfBfWZ9liNA7O8B407B7cB7U2ruqgdslxZ+pA1JLHIeTH8RBgA+YDhMKJQoLXXtiYCU8X72hSdQ7XeLH8KDxavA3t9IEeVBPQutiTGUCZLE0Fwn1Kk40zaKAUTLxfamenof3poQFhw+0e2PApdNn156ojDilxmIe9II4b05/Cg8Kpq6NXNF/aWACNON6/JG2RQwGd0IKpqX987LfQMj9FL+ekaE8hyTX7z5YeaLJzCkJjbXtF9cU6IW1ITz2McY8b6OVwuGES9z63gZ7KNsfubejLatyEpUPLR3EmnRjDhDzfkTgOId8rOlJ4sudE2nDdO+tQPS30UmjYCzvVf1m9m0vojVHj5oOHoIC8h4f+7dm/StixzvgQ5Y98N9AxJqHJBxvnASbAXz24Lss9tzaFersHJeIW6uqRXrLi/fSCl9hL4AOQPEhw5Y+N09uKKG4x0NMxHM4NfQjh/jd68PChSYWBisLM6nPxxCPU1Qu+1Yy8WZdUbPhCHHuPnHjeRJ6c2+G4+hZ+bC9tpDV+aDlKQw2eDxfy0szKc/DZXd3zg/kfwM93wAtP1WMkXxFG74hIf7UTHhIyJCH/mhADsWstV8ZacMMHTMUGwQnBElo7tzLgBCSZmI2JmhAbEbVoaqpnhq6i0VxXI2e3ma9x9yC+TZRSW+QVotZlTo01suvMhnlx+GOkvSDBJyHPcERkl/bRwm2N/3/1/P+n8VuOYXPyksKM2j0fOmxUvC9eg6s0KLyRuYYIJqjJQ7uikPdGxzFsvtB0Y/IvyPdfw43pP8bVDw8g6O+HeeRBYcAhlePozg90m4bH+59bgZBffggh/0RCntdlb4ECicKV2jn9SENqg9MQGrdw33999v9FOX6nV/rZzaewoODgmDrLzKGd1c1VPcTmIYQ5HNDR0gFhN6q3Jj898Vtc55SEB3sq1Prvz90M37349/D1s38Nd2e/CfPo/nNohw9fPWDUS7E6pkDilgIvoHnPrj+z4RpWtWhNmIPyhMZBmjKPkZ6TEtgm5G1uhPfOHgp7SueGrkFb/6RgPg0XR2G0OuualAAKUj64OCHN3tCNqT+G23N/CSvQtsUbul4InSVOYF4NV8d/pQfbWO8JlZsCdRrCknMd3zz/t/D91O9Ag+8h9FFf4DVO8NrDky/k9eoByQfZCh4o1J7Z2+RDYAI9r2vjv0Tv4As8vCbEz6T3FJSRG1Nfhq9f/O+oq38L92a/RV3MKM9uPFj54KTyod5sG5cCo2e3PgU+WNRDagZCm1t69LQNqBfCFWqkE3s8d2e+DV/jnjl/cXeWb/s+jvNIfNs3QsTnydoAsq+ujAQhCfl9w1kMZ2jIRSGvFR8QiPSnYUOzNxj5dmO7NDgKezacPghrCpf+zmEI/wl1yzlsMIxuMbX1bTSxdQgWrraw3O2afHhcgJCnlictGNeuVHbQAJYleH+Y+gOE5J810bmwPiOtmHoP4/ZDcHPohUKVDZHgMk42NmqY7FVQy+YYP+NSq2WXmRr/vdnvw7cQkA8XfkBP4QUEwWJYgSBYKS9oBQWF+vG+i9Lk2f1n/hR43KqBGv80hDwn0SgATZOnkKcmjwcVfpyXmEG+nGxmGR4t3NBQ1Sq0dGqqvdAmKZQojNiMyxD8mojFvU+vPoTQX0fZKJAu6CHIsXVqwbx/9laeQSv8Hg8NDodN4qFDrX6V7yngYcG64TyK8paQ4MT3uiYlOX4+t/Yc8VZ1n6rvPeC+rCfSl+P8GpNHr07CGkKV/uqJ4DpaiYTymBmKxtzUrDv4wMGPK1S45QWXo94FbSZXHuChh14L8uLF+ADjfXMe48OxX0mD74KwZI9ueuUZHvRfh1vTX2rZLofMOL+zBmWA6fSAw8OfDyHyB4Uxt19gXXEOiTzByfhLwz9D7+BT1NsZ8bB6Of//9s71V6/jOu9DitfDOynxJlGkHDFy3NCy1Ca1XTuGXRhFgqBoEhQFgv5vDRAE+RSkX5IiBoK2SaxatiTbIqkLKZqUeBHJw+vh4SHPhYd5fs8zs/d+D0mJlNkv8l7vO3vPnlmz5rJn1qy5ra2y+ejqUb2rn7hOoHKBqZ67S3MeCSBQMFrJCCmSPeclrqosqTsweZg2aWD6jgVi8gGTp1M7e+Mjd0gXZ3+V7bfL8+50ApS2SseFTonL0toi0F7GCIYqJ47wOOC60ypQuG5u9bIsKWNGkszJKz8vxy6+4V01F8RcYFa3NYydV+PKHDjD1dWq1FNiBpLut75YfuvZ3y2v7vtO+b0Xfli+se/7YlSvSsrfX9apEcCooB9WXyNGtK92T0XcuVrO1YaBMrDEc8+M9ezM++X0jeNKG/PAWVdgCsnH5SVNwxxpXKFX6QuwITEzLTItSfLi7dOWxpdXLXkOfs5b2+6YofRp68MbXF7NLYWHxMWkxhCTQ1N0OOwVPz/zoRjADeeRDgTpj50ppCNlkcU5GMkGMR1vwhRROgzmwDEwFgDJb0ad3YVbv9Kw/7g6hLPeAUKZ8a7YuYSk67KBthNFOmvX6uektL36hwH56THanXDNAMHxT1ZLoDbYm6kW4973nDQL5HcX76jOrMkIkQ7aTE1Smppw1kz2SILfa2kYII9I/x9d/YU7zFmV4bLzvWimyRTIyemfq8PGXflWnOzsgpEjraOmgi2ojKBYgGcRODuT7nuv/rmbp8spSdsXbp30Yqg3FIgOi6Ps/Pn4+gcePXmxVXVrSgyc+XlO7G5Wh50Rk8afdFbO7yTgAgYjGXBxCRbXht+/l/jKNK8ROhiZ/JOA6pQXTl2fWm1qjTiVDOZ6Y/6yDz397MI/lH868z/Lj8/8XTn6qYbK1z7w/DT7gNspUOhQ0WFaDG1ZtOTE6zf2fbcc2f3tsm3dLsQ1Ny6icNzElETYmJGpQaHrg4NTy16IZNpAVw2r2YnhxT4a3T2Gu2nUbGXbvHZX2boWBVrrIPsAWGKez8nMtkhLspla8WKbnsPgPw8ejtOKkXTdXbjjffWORyMYgPhYl4DReV88jgrzjBgHHRW6f5higMkiFSLtb1q/zVMKgBeY1TmwFRTmhP4X2Dch7ime2YUrYnR0IOqwFAd5CrTyfZy8PQgpJoXnPcneUZMHTDVG4zWb9hw378kXHswNyfnZzfvLbz/3Wvk3e75VUHzGmoeJ6bJBkvj2DXvLZrmtFS5sEWA65cbdS+6YvSOFhX7n7Z46gLteTEb51y06N5dJRiBI0zslve/coBHB6kzhsJFgizoAFod510xdXdGogBEgB5ec2foiGXkwHUPHfHNuWu/zdvIvf+bmmZrcrNEro8QGMOjGwg0DAWYI6UjBT5iGgjvz8BQ1OUSQGaGHkck/EbSqWK+pbTZIMeyRpsHML90uV+9+qiHy8fLe9Jvl3Yv/YnNU0v2xS/+vvH/5p+XE9DuSso5Jcj1pKRUmSnjP227Y4f3mL+98VZLVIUlB2y3Fpeq2CFvksioce66ZOoGp0dAjAwVYK7ijhsfecCRmmAjAPDo7Wpgq4CCU2bUi6ZsIkuSiaftAFIzHcVbTOPRjAbgrG98gJkmsi4ti7mLorpbQxtsopKt1KAFy58NLlAsNXG50lDApnzC1fJ/RFUxnZoHDWCobMar24jgCzwL0wr3bniJgd4k7McOT5G0ISYvDryDFlJQ1jd484dHeB9Nvybzt3VS9ecvSNwuldDyE3bpB0vT2r/jQ3OGdr4tR7lV9UP6UD/bEs6uLNZ2Mxugw7+l93/H0CZ2+DyNRRjUdZHFeeZ5ZvGYcFlupQyR4lcoQtQk7NuxTvdjhqaPNTB8xreZyY3SVTgLhgZHGygVphAxOPjO6ZJ3IAop8PWUoBs8UkSX4lQU0BJwcX6ClHbBXrBVEh47Bjq0rGKFB4wMjPAZkq1rqU6tqbcjNoik7WJh75IAPh0ZgQnzwgQZx5uaxcmz6x+WtCz8q//fM35R/+Ogvyz+e+uvyxsd/V45f+mm5cPNj75FHyu6mcqb2lue3vKIh7gHRYoiuClzbRZM3AVifT6YqLraX0eicNrWM6DepzFqdz/xSa3R6+cJjC+PGtRvMNGkrbliDVoL0HP0zaD5MA0podwm2PQ1AikWCZ1RicBoafe4tvuYWpkIePbqSHcaH5Ml7CBMJXeaQOV0KQwKvY+TCgQrPTEuRV8rq14dahmY8oUfa6WRPX3u/vPnJj/T+/6r8/Ym/KP/rxP+YMH8v86OTf1XeOv+P5ePrHzoMYVnXYd/4AbSaStJet3rK74w5760avWxUvlu3Tkd/Z2FWedboR/lHf4+NEsUYJiDZ/v5CmROz5+DXEqMHuVIea0WLjp9zEAgBnEtoUyYAdZqDbbfUSSzq170Z1Z3o+6HM6WRm1Jncxcch165aW6ZYkGW6ibQ4kEwFwsXSv9MA4YOcjj6/VFX8lDPlk7o+7G5GCLQ3PsJjQWUstqei8cSxeRaoXtn9e+WbL/xh+daBP5b5o/L6vh94IRIGyS4WFglZODs/c0JS/rFy6tovy4dX3yrHL79RPrzytqS3M+X2/IwqMs2R6YhNatjPe48yekxanJa5lIjWCEiVK7/CtUYAuGnIyhNDWBhecJIHDNLvajW+1jBy7QF8ttOZ+dZOrpJ/EPmxoZVjT4BcYZzG5jakLyaVBt0ArGB2dISDNMtUTaROYQgFyZJOLlDdfQtFyozpDPLaQ0//14JGRoa99yyGs0CO3prT1496rYStkZyJsN74a6oXV9/VaO9NSfvvlEu3z3qaiRQiTTNVs0uSPNN4MH6mUJijZ1RW+xMzdhY/PR+uvJHVVuITIHxOZdMpOO81PB0k5xC8ECvhglFkIOHdIavj5GMeGRXWcqwYGKadUm/wD2E6CkaqCER+MXbk0tfZBjz1rpWqHoxORmWC05sRHg4jk38CsMZJwK1JlcwchINGGy1tv7b3B+U/vvzn5YeH/7vN9176M5+ibLsrqKJQ4IARJJhGYd4UKf/k1bfL2Run9HzdjQ5gCyaLYext9xyma3Lirg8dIMUxRcGsqdPWNYLW+BhtqIEVFiQrlhorDXbIWAM1nwKyvCzmDga08KnZj/kCYBqV1gTQibSyjcskTARYgaF34fzArAe7MPjBtGCGbdQVCRCgwwtjZ6++3bs4vmDmBC5xZ0PEJnqqxJt4eF+ZQXec1QN3mPOl2Y893UeHwEEimCY4THls27C77Fi/xyNFmOiS8pt811SLDh1dPmyit1YZfaRcgPQ5wvLMfW+o7dMAiKY/28hCbaVrCHH/YNTsxOk+noLpEkAdF1302lDvjYMXv3TmBjnjk7fdapeAW1fJcq1k49cBD5RgP8pwOIcdocHI5B8XqDut0umGrT65QTD3y8Ipc45IWz70JCl8/9bDZf+Wwxr2blf4JvFkoZBOgoUqDvOwnY/F2H5OWFhq8OwYYUERO20FJpUqHUpODHY1arYacncbwVWVnbaM3dNJ8m8KpQAal6cy2CFjiQu3ByF8KvFgapv9/wQ1DtudQ9970wC/xjT4KZQY9pLys7S0INfKvJVYRlpM41hJ14AZJpbKtAojmv7Tel8cGoXPotSxM90bq6dO6K73zHtDmZtVUS/e8Rx7qxaeklozVdat5VOSzxQUu6ErZlF5JhxZ5B2zNpFF6dQzE7AREb1QbjDg9WvXlw1rKZvUG8qTQ2KcLL21cEWjiJuenhlCzhZs79aKQjQddOvTOFg2tWZzPzWjKyOMu6LF2kfDA7CmRILHe0mHVF3NtGX0UG0BOwUnIIcJhBGAkck/AbgKugJha5WLofHdwgEV9pNbD42lw+gSQYnT4V3/ruzb8ltqFNvcSGHkniuV4VNxW9blFCxbGpnTz3xyKnzXOPPkWF3xaSVx0gMnWjcWdHwwhAeaFw3P2w1ZL+BwihqdPyguQApEOyRbIZUL03HALjCg+PxdTsJMeCRZvxY4J7Z10erS2nQXXbs/CpQQGAEdFVsN2au9fC9MHua1cd0W77hhR47fTUdPzGQV0xKcSM6Xm1qT+LwoHw3JT3dvjxXcISm9GUG1+9Cg7qJ4IXWb6sVm1RneWZtvJzwnRpGw6d44ATpTzxO0UUk0lU4VTjaz+4YpF6E6LPlyx6f6wAIoqg3QsxRmrTq3vFw4XXvt7sXCN1bnZM/OKgkgCk12SA8LsygqIy46TkdQ88oogsXvbetyLqO1FDoLthLzflpaQ5G8yQw4f9xleqfem0z4Qaa9KCpNhzsINEKtOSN8PqgSdXWLx/rDkb3HSOM35i6Xm3NXwuj1g+GiYOqru1+Ltr0tL3shC30la5mbFNOB+aCwK1+DekmjgHQEAEwApoW0nd0PiTyNRgZuoD90Nq/f7n3IUQqV10o3YSYnN/YmT63fWtZ4m518RJtFMRoyUhsjilBfAW47+ECTuxwU9mnASip5Tp5ySczh+g8D/PWr+EveSXNLTAo1BxmZ0MFxypStqTDy0E0WKBsYHRoQKT8zu9oBOuYB03kSMIMiqBkPJu5Y6MA9laHOhXl0DGlkrjp6bKLpce/UoXJw29fKXgkJfDDEO2dEiqkcOmXOKzCdcmd5tlyf5yASKjDUUVNUZuLoUnquPLfxRTH77Xp9GaVQL4kf/T7PKY4ta1FAx3pPrRMaGbDX/cbdy5K6b8vcKTc4ODbfOhHRVjlaR9PGvZbYTRhJfjn1bb3q25YNGs1u5OP1lLlQFJaF/2t3L/lAFs90Nvazv4l0RZVRaNocHxtB0EhR0qHLzYgOiUV+lZY84zJCg5HJPwF0Am13S22jwrJrBV0x526e8vCZmkaD5jTh3k0HrBnyyJ5vlyN7v2MlT1/f+13fX5U5svfbPtrOqVcf7bYkHz0i7G9Hp023DU7uWRuoCREw175djWq/OglUC2zdiJpgDq7w5Z1NVjXACdMtYmZt/ziNmS16qDRg66V3logmDaijrPCJKYNnbI4fP0Gfgi8OjRbQ056knLgfBhVbL4a5YfaGo6eFAz5toRUGiooGDvnsQeWCmD1MDpqoejiw9eVycMdXfUoXqbSP62nkbgAix7tF/S+qC353z7f07v+g1oOYVzF7vqt6IrP3P1hzJjtqUB+d3S2oW7jrRXyfAmXOXPnk/ZFnVDxQT0g5AgY6iNAYieZIRgbQwHCier9Gli/tOKJ6g657OoB8kGR67lOVoRi8GDKL7YxOWRe4JqafxfdioQH1wKhmYC2Kw3Th0ffLpjXbrIMHRXUwetYQYOAIK6g2RjcTe/PN5PUjGCMY4s/7TG2j/tIBwuYJz9RSq4fdGZHaERhMCD/d8R6hg1GtwWOCq1KtUK5DtW55wc42pCA1MFXM5zbvL1skPWV+XBVWbuicQR/Jwe2vWPnU4Wdfs/nKriMFdcHM4XPwhWG5Bu2SrBfL9OzZcvTSG+XszAeSqGY9lEeF7kq1BjRcjsuz1Y1+m4bPXn2Y1nNTL1r1L7q7n1WjRz8LjQq9LeduniynbxxVR3LObmg/ZF8+umv4shXMkKE1yqI4RcsQnp1CTQKrN5qhpWSYyaPUGjTdNaR1z6aD5cC2V4SHVsuMLNhuh/KsMIFpS+WQB5/5311TL5hRczCHTpCdG2igvGBFZh959AQu74Wy3r+V8wUa1SiRlBO7k4gnZTPn6Qo6v6/t/qbfA3qFkKaTt1We60ZfDyoQ2ALLyd7m9yjAh7Kgw2Eve6+7ZpMlXBgve973bXnRzPfwrm9YHYHrgtUCc3/di/WoWIbBOyzMToyOLaacYv3wys/KhZmPyj2Nvsgv/hvWbC0bNUrcsm6b3wXskDqxfu0mM1R2w6B2g/l8Orvfpk7sft2nW0kXnfxllT2nf9n5c3P+8gQjZq2pacREDQQdJJor791bdtmbtkYg+6wc7tvl5Z1fV5k+6w/AMGKcnj1fTl076tOw0KYuQ5cTtXQY1E00V9LhMCJBpw377G8vokNn2aMHyj/h6juIaN+l0Tbekd/TCA1GJv+Y4GpD/WniPA61LiFYUBHbXnIULrGjhgZFpaXiWRvl2miipMEwheCDIW6UUz2D0Z/GjApfGtzJa2+LyfChhJz25Fg7H3TeJyYWHdxJBPprqOzM6bPwu2Nqt7UgIjV+RaOEPWIsKI0Ch33vn1z/sHxw9W0xyY+sSwRgCB/dNeqkJP2ayS+KyUu6Y+snB7zC5JEIu+wrXV+AyW8Vk9dwfpLJnxNjPScpFSbPh1WIY1WY/MYXCmqUYRxMXcCUZiVlevQ0c9IHdEgJ7pTnDkmoqLiFwSMVWn/Kmk2etkKBFwrSKJuDO77m7a9+T/xEmzsSM7pf6HjC5OdqWbdcPwj4kGfyiA6ifP5PjJp1FtGnc4JJUjeYHurrwaTZvB4dPdEnwzsAeP8Xb50tJ6/8wlsvkdypDy4jGU9PqSPw4TblO7qSsg6D5L1FHeoeld8BSd/o9nlpJwryDqisUDE8Hz03YsAon7s893FZ0HsHYKr4I0CwecCLvgpDeZI+OlIrtoO2RkQc4GNUGoFCnYA61etzl8p7l3/qbcKX5866w3SiBXQW6J+nnLZuYN2ENaVMKVkVgjrf7Rv3+t2hvybnPOrUZRW6OgbPVXRDeYQGI5N/bDALUL2q91qTUsEC6AZh3zCHbmjoLH5RWb2Yph8SXlgxQMgYKq0bk0YCDI/RG35CjfnElZ9Lyv5EkhANTrj6Mxz2ELxj8pL8FR9faULNK9KVmZgkwUNiYNZprobC3CmMgkW1i5JOP5z+mTqRd3xq0VKz6DA33Ssoq5K8mXwkWtQfL6jRwqzcoGSACSavEcaQyV8Xk7eEbiZ/043QTF4jGiR5GAYlwqEfmDz61nsm71Izk39WabIkX5k8Iw+mxfiy0ye3PjTjID05vs+WSRj7ekmydKCosZX0uX6z55JRc3xAhjUM2AWHgZCUya+nCZQ/1kHQpUMHRSf7JJI8ZQntjslb1XDmxPvQw6dJO08YL9CrvFnYZ86d+nB8+k13hKQHHEQO6o4PuslNuXZ+md+n9MgPncnerS9qdBDtp0zr0ZmsFgEEiqti8KeuHfMI4ZObx72JgOQQns6DTwPylS+mCWHsnodX7Oyy2bZxp2gf9NTNoe1fs8pk4qOzpO6gBfXMtePl3Uv/7C+jWS+/KSe/dHpMJSHRe3pHI01GJnQeqHN4ftvL/gAJ+/mR7lG/TT2uopYv/exlLOOUzSSMTP4JIHOB1CAe2qUaP4tZS5KcX5wXQ5sttyS5IqGypc8fZZYBjWacHxJYRgDos7l467xV4NLYTl1/1/q5WdCl40g4piJg8kzXHHSDg6HQUC/cPF3O3Dih+KKzfXPVEx5pcLUlXdT4MmQ+eunHkgbf9SfWFpb5tieMaZWYriQyMWA6CRb7aKhocITJkxa0MXrO11JvzbLhvpj1lJk8IwZGAeSVbaXXb8Pkz1mS77RQKg4+M8gXgZA4CY9622nlPx+pDpMXshpzna7Z+LxovyCpbpfyE1XDjED4SDif6GM6Ip1CTv8yv8yiIcybURKdSZhfGP7S0qLzf+LqL6yxk22WVscspkMnwnoIeoZQpYw+eRSlkePGnACR7p5814WyJM1I8vvUwaJh1J84VNpcP+QfrP6H2/Bnf9ULGDnz4yi5Q+Pjias/L+c18ppbuqkw7JuHZlLk/fL3JCSovlDv5pZmnQcEANYCGOHBUNvogNOwdMAotTt57Zei/45HdbNeFL3nPABJEQfiFlSmM140nZm/Xu4s0OmtVse5yaMFhAtPN8qN9R5oo76B79kiUFyYPeU0AUkxdY4SiYpu3TxKWP+MRgpKIyMrmD3vjHdJR0TnxkYBNjqwmwqBidIyuXrH6mIZoYORyT8BhIW4WtUla0m0rPq3yoWvGue8mK6/oSkpGQ2I1v0iRk4lZ9cCu3D4fiVTGdfEOPmABR9IOHP9g3JKTOcM8+RiinfuzdZdNQEWmRiO90xeUjAMXI3q3M2PFPZ4mebbp2qITC9kQe6K44LRohkQtbMcvIJho7flfk082aGRwQzYT85pRtKOql00OPKFJBoYx9/D6lQOFIXCwuyyd3qbpTyG1UzNoDoYFb8wYubzyQ9s2x+SUAfkzk14N1UmjBT4zus0X5BSR5XdMYx+kPbEpNT4GbmQZitc06iCMDA97os0fDFnz107/hmZfBSFkRBbDVnwIyzqbmGcdKjvXfmp3XZP8RGXPWJUG83kmdLi4yh8vISRRabiAHIgINNkvl797it3AYP8sX2RQrqrdPAhFxbQWRj24rDrAM+6V3NNBrzmxwiIj3FkLvto+VQdDlI2x58Sj+JTnO5AZJiq4p2TT+ofh6hQ58u6CiOlpOGy88/XvKK+OKduP1VHx5e7qL9h8GGg7jhF3h2I8uHvD6hOzc6zXTgfOWcBP3m4pPdyQbQ/Nm0EFaaA+IANI43UG36wZ0fh+jSvd4PwwMiFU8G8M8rc6ZVhtMa6C0rRbi9xIjwLwIHknTsSfLXZZ4TA+CHvJwCqjpl8V4dkQbp3CeIe2YJhLQdV2J/M/nQrzarzwxlLAhAhrOQkVVoq+V1JVyh2YpE1c/CNwSdCGuDuqQPl+y/91/La/u95lwRzvXcWbpejn/6k/OLCv5Qrd9EDvijpCqZIfKnySHQ0dr6kxMfELQ1B2dMIsildLJxNrdlmPexZvOMrPYtq3LOF/dLo1mlbE6PRMDb4HdMCKLZiXzdbETnt6MMvDlslS3V+TPSgKZJ1A77ryv5sjgExBw5TRjpHjz7MupK3lJgh/dZIxfqxT5y54ll/gzVDeJhs19DV+a2hc1AcLOixHkFZwYDvL6cjYOH2ltK2Z8tL5XsH/8zfxWUEgxQJo/3J2R+VYxr1sB7BOyFFma7jbVNmJJCHltaUBRh0lujnZ784nVNwTUG3BDRvEiSvCoWXSYUe9QItj3yEHSaJxJt6Ef/E1EMLi6SObhskbOtRUhqaWoxg3PeiLR0ZtH3oSiO9NmKkDMFsAkCqbMK2aTB2bXH+IFOSUXsAXeoonQ1TRzDrnB1hFNSndphm1yI5IMFvXrPd79i69ClLEBUtU2f+foE6rNBK3WvF3hWkwLqaBK3DHUFlMjL5JwUVV6s/Ljkadmoj19hqkXa34a8yxxqW+yomR10pGRXQFGCFIIRAug7dJdUzX/6Dr/y3MHl1HGwzY2762MU3yzvn/0/5ZOa4GNcVMfVMDADEyhRHpgzEun3Hl90TLOxBP2mjkcJ0/IOhCddz8BhhBpI2fpZr9ei2xV0/JiX4QRdJPHEnbx2O4yFMy13iCl4kyYADCI389GkTklFIGz9i897wdbsKx/69piBm7d0YCkMHh1TIyAbmTicHw0LT4uFd/7Z899B/9seuvYVVhC/Nni//dPpvy7HLb/RrBIrDDI/01PgNuLU0VWsrhzDw+s4fgIYPTqOnkCZFueBQy5+f6dcwBsJxjVvzIU6k4vi7tBKFMWWpiNC777Ku9HGzTw1HfEZvd4GtvAvSiSGPHtsIkk+nU2b4G0L/lLSBG1rVQKci5ZYy4N7KIO7g90+A6XE13gjAOF3zJOAa1VUv313ldBlWKdvNDVJZzbS4r4bBoikkOzk4eINJo0hAubjJGXxLFabyEytTIod2Hil7tx0yU4M2Q9zLYkoM52cWLnv+GJLWZQODULyyhJbTX80g4c6NpdTg8HuG9BG+ugXCUnDr6Pgqd3AJKyemfMyAld/scQ5egnCBLv7gEy6N2IeR5Ob9z+iycZpqkI6+7uQJ+qYjT5XP1Jot5cVtX/WHpl9//ge6/3tL56/set2LoOtWbzLz48woc72cG9i/JSqdD3mv/A5FghreeU97fXCZrYqnLPUDfUdZy4ukOnUCd/QCbjDo9iiLy4F30b0PQtW8YMPfdSMGf9+rcSwVF3BdqPR9b0aX3Nodaw0re9LP+9Bd8Zm+yw/DbwDgcMNeMxt/4q7YENU96W73RpdfaPOuDeDbYB8+Vgejchcdt5EBPRvwenAccndY4ZJMvwbhTWL+ZkMt/RE+HwYNK9XL9wB+bgmGxgapbDHcWpWnYuo+UXnj40YCskF319hU4uYKYF+FTtfONV2OJSAnI3FE6Rb0CU+cXGt40OrVTKk+CUX3pK+ZycZlWTDRVEg4XZVUhLoWL2H10DB6Ogrc8guecbDDuO2PRCgk5b8LTdptarr0S9dBSoKfXSbsOrnvI/fPTj2vkc+B8pwM20l/R0z/9w/8p/IHh/7UU17fO/gn5fdf+GE5/OzXy9b16BZi//1S4dN2Z2+cLNeZi78/r2TAtGvaK9Qc5QHA3/+UJRDGNzRJdcfsZfP7aQy3Gn72s0m+E2MFP1dY8TJsxZsi7Wgm7v6ZNCSW/EjzgIieVkJ768GSv2i299Hen9/hhMEf7CHtHhhHtpoX3NBLR6T0DenUH7hDsIvbHgvRtd48Ir7fVKANjfAY8GDVSZXr6p1NMFJxKdrMd7emwb1J5KqZujeTJre6G/bGlWuw9cTfzAarKj70Q1bQV//WaFqMTpNvaSSEBAPwbiEbnrgE132LvSod0ux0N5A7jzKmBZ7J5Fed3O6BLiT4LYxdk9pA0hdnuTu9VTqz4ZqwMeDIzc6UC4vFC+XqnU/9ZX8WFlng5DuwMG7mp5/f9lI5svdb5Zsv/lH5zqH/4vuRfd/0IjYjDtYeWAzn03h82m5mYVqdFvr9a4oVnycqnIC4GWqi+lJ36mwHnH5n3LZ2C5bQXHY9utzrg3Gwg5ASwARwq1bbEybvLHbDgDC2B59EhHJ0ogagcK3OtDTCQrt8g179u0f/ArimPGRahv2+MLkZg0rS0dRd7g6rS5yNKC/KPeVVMbDIt04dtTgq/gg99FxlhM+EQX0bQCraBMipVUTPVbriYrdvglScxmTTUIJLXc3iUQuQplPbRqvS/tnPc9UNt7HwiWZut/wCDRsfMJGosLdnA7cesQe5OXk1SIu7YwjVA9fMC4e6HYLagXOh9CdWmZpvMyqMn4KZCGsY/2QXjqU8djjJ+BzA/LXyyfX3yzvn/3f55af/XPjk4sydq0rLUkFf0EYxe07EojMINc4sjEKLI/enr75f3rv0pnW5n515zztVkjYiS0qMXNPih/piktp4t46cqz+iYfTJ/OAUybVSq/SDal/f4yqw2wpobqk0Mv7LyE5AjJkf1lpmfgjdyL0J1N5cy4+tnQFfpqYncaw0wnDYGtjQ+5LXCRddfB+E6d15Toqbdze4k6mpiUN3bX41HyN0MC68PgHQeFtl7cE1q7MGcGA7H/Y2hAy04NCxPxyArhYyRrOjSbSqHFgWo1q2rpHX9n3fR+LbYSumKH4lBsVpyOm5M+XO0k2Fg3mmOeSULlH11AyKmy6CuEhW510ZRiLHInALih1np2yIE8cKdtSV2AH8O089yodHn9LluTZMM5/qZxeMaLnccVsJCUcHk7Ii3vvexsnJ1l1T7K0/VJ6X2Tn1XGkHhDrajndVmVu4Xa7MsiXznMrvrMwn5cY8J0rbdtFafnmhDucySnTyx42Lk5p7e66o9bHH59pw6o/RXKDlpYcWftK1Qn1xxnHEes5fjnnGnryDLvqyuj7oj2t8hBfEdpmAkG7vFIweh7JpQR9sIwOoeAna8Ab1pN5Mz4g9OL78Bb2nbd1jhzBChZHJPzWolVfXVEYZtyRcaxHLzYxiWAlbg2jORm1MjfBMWejnRcgwsK0bdnn7JB9tAJETtnOLtwvaFxe9/TBf+kkjDH2ivb+6NianDUeYiQfhFUtQLcTZSV9u3dAgkQ0z+U0czR6YQANwsG8cW2fTo1TbkIiA+AbR2S+PuZqsIH0kedFdtElTt9VPkjpTNU19Qg3pa4in/Bbu3S18x9Z3GXTjGKW7BDpm1jpmuwZaeiYzD8ij8+NPWmXB2emN54rUGVIGzScw9AeGobi6eGsAx0N67K1Lpecnbri3hNcw4DuNXYYa6LmGcf2ov+650fUF3IrsW/z80OFXp4QQVAeH5Z7HQO0AjYKHcxbgUQ9OUaurtY6NoKIZmfzTBKpuKr9roEuWxuKbnQLBc8W1o+z6N2ug0hEOTh0zsL/lb2N0AdxiMucekG+r8BWPjiINSxf8+laOY03ACpCbJb+K4mfd8sg1T80WkE0OjXnZDydZkhaejYAtCAPA2RQd0E4Oh7U+9kEaGUA0wevCAjXhuDHdEI90bA7JVI9uPY0wisQGmFott/Yk8DO4fhI0S0dpAtyZCiVpqNR55mkiiF1iNYRuS0+eepgIKt/2nqDZyrpBOumEmaDXBaqGy8CpQXUyUA5BDwZ+seMzxBxSAIKZsySyTzBj4Q7SYmp+7ClPFpaeccJaLzX0CANo48MRngpQGWslpLalDnYV01IZj/oxNLedSqr2/+B8ZhrL/VXsGmjNVVcH4t4qdOJkq71fZkdH/uAYl8dKA6/l4PjZV3Ukxq2PvtUfDH7wa9D8+idiD4F0Nc1PLtCuQZ0cezV/eVQrN2JLIhtiM3KFDhgNBZCXZ6PMLOwbbEeke02WpeHm5ntMnPLzg8BSYF6Ky6TPe2g3fOyJsQE0uNcQfhf2EAhP9ENFV+LQS2PHoClRzl0hiSrujZwg4XhqLkNbAwLE1FKooNBMatcyiou6nQdeigwZpg+UX0ttsKufC7u9X0yDHhtovjatnrhcwUDYqNh2EjU/8iBcpyXesbs04+A0Y7Amn04uRkRs7DtCA/OFER4XHqw+NMyuAmIqSpMGXV1dg6mvVMqGW8FWsKoRTmzhTqnIfcVtvvzY9WHmhZsbg71iDApVG1MNIXvDFV38asNwczFq9XOo3iRYnro8OB776jYM0/wEuhuDOIf4QEVz3DwmcIUBHuA0tuZsQraR3IlgAufV5Q8zQlIXksuJCv+MeGs1/OQOo41//wtUqvJLCkPbIK8cgstzS4NTaXwB94o+pIyplF32CYWpyJSlnG1qiFyDG9PbHs7c2lOlqVufgoDL5WGQyDr6lLqv7vjqO6gJbDhxk59fYtxiEzgaCFZDvE5zc252LhUoA3n2HR9OeuZeiXfYLRxudq9hRjCMTP5JYFAHV4Kre1e3GmLutbra7oYxqINuxK70zK9HrWwqLaYy5QFp7oTHuMF2fi1MDNeKXQ038Bujb069f0JOQg0pD9mMkHsLZf/+En/ZXR4VDwhdXWMRVIZjhObIfWhv0MovJp0NDT7xVFebFs62xkXaVYhJfiRRk+mgxw3UN+YAcW/ohO2Dxtae+3c7xAkkhj6eCRqKJ9HE71FgqgQcVqIOBm59NAJZujolY7Q+JZhGz3ZDfOLKdWjadGEPk7mdoCxofi71wWM6xKA13Ach6PgTS/Ba/eqC61qp1+cRGoxM/knATGMSmjTk6uUalmfz08ZFBswmtbJvEt2w1fISJk+JqlZp4dfQBkvvNZ6hfQihL3dbEp/T09LUQBG10GGUk1BjUTBoDUwF27jApLAP/OKS545u5z9gzrLYXzRMvobpAcdqwLeTsPQc02Kp+cSYVpU6m29uAlPoHBJfCxmITe6Ot6UoY4mwOKAPE3/ueq7eza1hVee413Q3dJcD7o+Aimo8p3v4zp1GLA9zq1R5btDluzdDtyFQO/hN0BYkCb1baGAm8Tr61Ra7cGr+UwaTYQzVybFXmlxt0/Oj6nzK8UG/32QYmfxTgL4RPE7leoIKWEk+LuWHw2eHjO9nxzCJsxJv8nml79ODB+NuLo8XZ8V8IFBneSR8PgbQY02QfwTEv2F+HvbjwNOg8ShoaayjwM4M4WFunw+fGeIhJL9YLL/ZMDL5EUYYYYQvMYxMfoQRRhjhSwwjkx9hhBFG+BLDyORHGGGEEb7EMDL5EUYYYYQvMYxMfoQRRhjhSwwjkx9hhBFG+NJCKf8K8YEu+J9tTuAAAAAASUVORK5CYII=;" vertex="1" parent="1">
          <mxGeometry x="130" y="40" width="87" height="86.31" as="geometry" />
        </mxCell>
        <mxCell id="lP6f4BaXkuB_5W5CZ1m3-22" value="analyze" style="edgeLabel;html=1;align=center;verticalAlign=middle;resizable=0;points=[];fontSize=20;fontFamily=Architects Daughter;" vertex="1" connectable="0" parent="1">
          <mxGeometry x="329.9989254644694" y="264.9973448532142" as="geometry">
            <mxPoint x="14" y="-1" as="offset" />
          </mxGeometry>
        </mxCell>
      </root>
    </mxGraphModel>
  </diagram>
</mxfile>
